<svg width="57" height="56" viewBox="0 0 57 56" fill="none" xmlns="http://www.w3.org/2000/svg">
<rect width="56.7273" height="56" rx="20" fill="#F2E3E9"/>
<g clip-path="url(#clip0_31_1027)">
<path d="M40.4429 25.4006H31.0681L34.8567 21.5013C31.0819 17.768 24.9703 17.6297 21.1955 21.3631C17.4206 25.1102 17.4206 31.1527 21.1955 34.8999C24.9703 38.647 31.0819 38.647 34.8567 34.8999C36.7372 33.047 37.6774 30.8762 37.6774 28.1384H40.4429C40.4429 30.8762 39.2261 34.4297 36.7925 36.8357C31.9392 41.6475 24.0577 41.6475 19.2044 36.8357C14.3648 32.0376 14.3234 24.2391 19.1767 19.4411C24.03 14.6431 31.8147 14.6431 36.6681 19.4411L40.4429 15.5557V25.4006ZM28.6898 22.4692V28.3458L33.5293 31.2218L32.5337 32.8949L26.6157 29.3828V22.4692H28.6898Z" fill="#9D4C6C"/>
</g>
<defs>
<clipPath id="clip0_31_1027">
<rect width="24.8889" height="24.8889" fill="white" transform="translate(15.5557 15.5557)"/>
</clipPath>
</defs>
</svg>
