<svg width="132" height="26" viewBox="0 0 132 26" fill="none" xmlns="http://www.w3.org/2000/svg">
<path d="M18.1209 25.8942L4.19558 16.1326C4.15705 16.1056 4.11181 16.0897 4.06483 16.0867C4.01786 16.0837 3.97095 16.0936 3.92927 16.1155C3.88759 16.1374 3.85274 16.1703 3.82855 16.2107C3.80435 16.251 3.79175 16.2973 3.79212 16.3443L3.78365 25.4348C3.78379 25.5082 3.76942 25.5809 3.74137 25.6488C3.71333 25.7167 3.67214 25.7783 3.6202 25.8303C3.56825 25.8822 3.50656 25.9234 3.43866 25.9514C3.37076 25.9794 3.29799 25.9938 3.22452 25.9937H0.559129C0.410741 25.9934 0.268527 25.9343 0.163701 25.8293C0.058874 25.7243 -2.65128e-07 25.582 0 25.4337L0.00741347 9.66199C0.00759391 9.5588 0.0362958 9.45766 0.0903545 9.36975C0.144413 9.28184 0.221727 9.21058 0.313754 9.16381C0.405781 9.11705 0.508945 9.09663 0.611857 9.10478C0.714769 9.11293 0.813426 9.14934 0.896936 9.21001L22.5812 24.9881C22.6765 25.0577 22.7473 25.1557 22.7836 25.268C22.8199 25.3802 22.8197 25.5011 22.7832 25.6133C22.7467 25.7255 22.6757 25.8233 22.5802 25.8927C22.4848 25.9622 22.3699 25.9997 22.2518 26H18.4396C18.3251 25.9979 18.2139 25.961 18.1209 25.8942Z" fill="url(#paint0_linear_59_95)"/>
<path d="M28.72 25.3713L0.242577 5.00038C0.170063 4.94869 0.110978 4.88039 0.0702644 4.8012C0.0295504 4.72202 0.00838714 4.63425 0.00854581 4.54522V1.28396C0.00872507 1.18154 0.0370025 1.08114 0.0903008 0.993674C0.143599 0.906204 0.219877 0.835016 0.310834 0.787865C0.401791 0.740714 0.503945 0.719399 0.606177 0.726244C0.708409 0.73309 0.806805 0.767837 0.890658 0.826694L25.7327 18.3047C25.7691 18.3304 25.8118 18.3455 25.8562 18.3485C25.9006 18.3515 25.945 18.3422 25.9845 18.3216C26.024 18.3011 26.0571 18.2701 26.0801 18.232C26.1031 18.1939 26.1152 18.1502 26.115 18.1057V0.563127C26.115 0.414619 26.174 0.272193 26.2791 0.167183C26.3841 0.0621718 26.5266 0.00317383 26.6752 0.00317383H29.3332C29.4072 0.00316732 29.4805 0.017872 29.5489 0.0464211C29.6172 0.0749702 29.6792 0.116797 29.7312 0.169483C29.7832 0.222168 29.8242 0.28466 29.8519 0.353325C29.8795 0.421991 29.8933 0.495456 29.8923 0.569471L29.6032 24.9236C29.6018 25.0255 29.5725 25.1251 29.5186 25.2116C29.4646 25.2981 29.388 25.3682 29.297 25.4143C29.2061 25.4604 29.1042 25.4808 29.0025 25.4732C28.9008 25.4656 28.8031 25.4304 28.72 25.3713Z" fill="url(#paint1_linear_59_95)"/>
<path d="M19.1227 0.562072V4.83102C19.1227 4.87621 19.1104 4.92055 19.087 4.95921C19.0635 4.99786 19.0299 5.02935 18.9898 5.05021C18.9497 5.07107 18.9046 5.08051 18.8595 5.07751C18.8144 5.07451 18.771 5.05919 18.734 5.03319L11.7354 0.10585C11.6428 0.0388307 11.5319 0.00187677 11.4177 0H6.99442C6.87591 0.000251549 6.76053 0.0380686 6.66488 0.108008C6.56922 0.177948 6.49823 0.276416 6.4621 0.389238C6.42596 0.50206 6.42656 0.623425 6.46379 0.735888C6.50103 0.848351 6.57299 0.946115 6.66932 1.01512L22.0178 11.9622C22.1015 12.0217 22.1999 12.0572 22.3024 12.0646C22.4048 12.0721 22.5073 12.0512 22.5987 12.0043C22.6901 11.9575 22.7668 11.8864 22.8205 11.7989C22.8742 11.7113 22.9028 11.6107 22.9031 11.5081L22.9084 0.559953C22.9084 0.411445 22.8494 0.26902 22.7443 0.164009C22.6393 0.058998 22.4968 0 22.3482 0H19.6818C19.6081 -1.18896e-06 19.5351 0.0145615 19.4671 0.0428467C19.399 0.0711319 19.3372 0.112588 19.2853 0.164823C19.2333 0.217057 19.1922 0.279044 19.1643 0.347218C19.1364 0.415393 19.1222 0.488411 19.1227 0.562072Z" fill="url(#paint2_linear_59_95)"/>
<path d="M48.7045 16.229C48.7045 14.6719 47.8108 13.7203 46.4256 13.7203C45.013 13.7203 44.1478 14.673 44.1478 16.229V24.8547H37.7443V8.5887H44.1478V11.0677C45.0702 9.65462 46.6893 8.47333 49.1376 8.47333C52.8874 8.47333 55.0794 11.2117 55.0794 15.4214V24.8547H48.7045V16.229Z" fill="url(#paint3_linear_59_95)"/>
<path d="M57.386 4.14821C57.386 2.3604 58.7997 0.947296 61.0786 0.947296C63.3278 0.947296 64.7415 2.3604 64.7415 4.14821C64.7415 5.90639 63.3278 7.29091 61.0786 7.29091C58.7997 7.29091 57.386 5.90745 57.386 4.14821ZM57.8477 8.58863H64.2512V24.8547H57.8477V8.58863Z" fill="url(#paint4_linear_59_95)"/>
<path d="M73.5381 24.8547H67.1378V8.5887H73.5413V11.5864C74.812 9.77 76.7721 8.47333 78.8773 8.47333V15.306H77.0602C74.7527 15.306 73.5413 15.9697 73.5413 18.1893L73.5381 24.8547Z" fill="url(#paint5_linear_59_95)"/>
<path d="M86.2287 8.58871L88.8538 18.7662L91.4493 8.58871H98.2573L92.8344 24.8548H84.8446L79.4217 8.58871H86.2287Z" fill="url(#paint6_linear_59_95)"/>
<path d="M105.813 8.38654C107.977 8.38654 109.534 9.33919 110.313 10.8084V8.58554H116.688V24.8547H110.313V22.6319C109.534 24.1021 107.977 25.0537 105.813 25.0537C102.063 25.0537 99.093 21.9682 99.093 16.7212C99.093 11.4742 102.063 8.38654 105.813 8.38654ZM107.948 13.9797C106.621 13.9797 105.582 14.9323 105.582 16.7191C105.582 18.5058 106.621 19.4574 107.948 19.4574C109.275 19.4574 110.313 18.5048 110.313 16.7191C110.313 14.9334 109.275 13.9797 107.948 13.9797Z" fill="url(#paint7_linear_59_95)"/>
<path d="M125.974 24.8547H119.571V8.5887H125.974V11.5864C127.245 9.77 129.205 8.47333 131.311 8.47333V15.306H129.493C127.186 15.306 125.974 15.9697 125.974 18.1893V24.8547Z" fill="url(#paint8_linear_59_95)"/>
<defs>
<linearGradient id="paint0_linear_59_95" x1="0" y1="17.5468" x2="22.812" y2="17.5468" gradientUnits="userSpaceOnUse">
<stop stop-color="#12BCCA"/>
<stop offset="1" stop-color="#41BA95"/>
</linearGradient>
<linearGradient id="paint1_linear_59_95" x1="0.00854581" y1="12.7402" x2="29.8944" y2="12.7402" gradientUnits="userSpaceOnUse">
<stop stop-color="#12BCCA"/>
<stop offset="1" stop-color="#41BA95"/>
</linearGradient>
<linearGradient id="paint2_linear_59_95" x1="6.43424" y1="6.03665" x2="22.9084" y2="6.03665" gradientUnits="userSpaceOnUse">
<stop stop-color="#12BCCA"/>
<stop offset="1" stop-color="#41BA95"/>
</linearGradient>
<linearGradient id="paint3_linear_59_95" x1="37.7443" y1="16.6609" x2="55.0794" y2="16.6609" gradientUnits="userSpaceOnUse">
<stop stop-color="#12BCCA"/>
<stop offset="1" stop-color="#41BA95"/>
</linearGradient>
<linearGradient id="paint4_linear_59_95" x1="57.386" y1="12.8989" x2="64.7415" y2="12.8989" gradientUnits="userSpaceOnUse">
<stop stop-color="#12BCCA"/>
<stop offset="1" stop-color="#41BA95"/>
</linearGradient>
<linearGradient id="paint5_linear_59_95" x1="67.1346" y1="16.6609" x2="78.8742" y2="16.6609" gradientUnits="userSpaceOnUse">
<stop stop-color="#12BCCA"/>
<stop offset="1" stop-color="#41BA95"/>
</linearGradient>
<linearGradient id="paint6_linear_59_95" x1="79.4217" y1="16.7191" x2="98.2573" y2="16.7191" gradientUnits="userSpaceOnUse">
<stop stop-color="#12BCCA"/>
<stop offset="1" stop-color="#41BA95"/>
</linearGradient>
<linearGradient id="paint7_linear_59_95" x1="99.093" y1="16.7191" x2="116.688" y2="16.7191" gradientUnits="userSpaceOnUse">
<stop stop-color="#12BCCA"/>
<stop offset="1" stop-color="#41BA95"/>
</linearGradient>
<linearGradient id="paint8_linear_59_95" x1="119.571" y1="16.6609" x2="131.311" y2="16.6609" gradientUnits="userSpaceOnUse">
<stop stop-color="#12BCCA"/>
<stop offset="1" stop-color="#41BA95"/>
</linearGradient>
</defs>
</svg>
