<svg width="120" height="120" viewBox="0 0 120 120" fill="none" xmlns="http://www.w3.org/2000/svg">
<g clip-path="url(#clip0_24_157)">
<path d="M43.4087 109.175C46.2256 115.543 52.6006 120 60.0003 120C67.4 120 73.7747 115.543 76.5918 109.175H43.4087Z" fill="#193B68" fill-opacity="0.1"/>
<path d="M59.9986 11.4648C64.8816 11.4648 69.5703 12.3264 73.9214 13.9038V13.3678C73.9214 5.99676 67.9246 0 60.5538 0H59.4459C52.0749 0 46.0781 5.99676 46.0781 13.3678V13.897C50.4269 12.3243 55.1141 11.4648 59.9986 11.4648Z" fill="#193B68" fill-opacity="0.1"/>
<path d="M103.94 102.132H16.0593C14.3968 102.132 12.8739 101.011 12.5281 99.3843C12.1858 97.774 12.9196 96.1847 14.4085 95.4968C14.7618 95.2677 17.4212 93.4082 20.0836 87.7821C24.9735 77.4502 25.9999 62.8961 25.9999 52.5061C25.9999 33.7591 41.2517 18.5078 59.9983 18.5078C78.7007 18.5078 93.9243 33.6856 93.9966 52.3711C93.9982 52.4159 93.9992 52.461 93.9992 52.5061C93.9992 62.8961 95.0255 77.4502 99.9154 87.7821C102.578 93.4082 105.237 95.268 105.591 95.4968C107.079 96.1847 107.813 97.7738 107.471 99.3843C107.125 101.01 105.603 102.132 103.94 102.132ZM105.63 95.5217H105.632H105.63Z" fill="#193B68" fill-opacity="0.1"/>
</g>
<defs>
<clipPath id="clip0_24_157">
<rect width="120" height="120" fill="white"/>
</clipPath>
</defs>
</svg>
