<svg width="16" height="22" viewBox="0 0 16 22" fill="none" xmlns="http://www.w3.org/2000/svg">
<path d="M7.78607 0C7.78607 0 0.299805 10.3865 0.299805 14.518C0.299805 18.6495 3.69177 22 7.87531 22C12.0588 22.0002 15.4508 18.6501 15.4508 14.518C15.4508 10.3859 7.78554 0 7.78554 0H7.78607ZM5.15381 19.9014C5.06541 20.0181 4.92956 20.0801 4.79223 20.0801C4.69795 20.0801 4.60284 20.0513 4.522 19.9911C2.61498 18.5805 1.78621 15.9861 1.75202 15.8765C1.67853 15.6413 1.81186 15.3918 2.04976 15.319C2.28934 15.2452 2.54069 15.3779 2.61482 15.6127C2.62238 15.6371 3.39468 18.0426 5.06357 19.2773C5.26284 19.4248 5.30357 19.7041 5.15386 19.9013L5.15381 19.9014ZM6.87038 20.8732C6.85988 20.8732 6.84959 20.873 6.83909 20.8723C6.49116 20.8485 6.14702 20.7813 5.81632 20.672C5.5801 20.5938 5.45244 20.341 5.5316 20.1077C5.61139 19.874 5.86714 19.7489 6.10316 19.8265C6.36122 19.9117 6.62957 19.9644 6.90086 19.9829C7.14947 19.9999 7.3374 20.2126 7.32039 20.4582C7.30423 20.6932 7.10538 20.8732 6.87042 20.8732L6.87038 20.8732Z" fill="#9D4C6C"/>
</svg>
