<svg width="54" height="54" viewBox="0 0 54 54" fill="none" xmlns="http://www.w3.org/2000/svg">
<path d="M43.0312 35.0437C43.2562 34.8187 43.3687 34.5562 43.3687 34.2562C43.3687 33.9562 43.2562 33.6937 43.0312 33.4688C42.8062 33.2437 42.5437 33.1312 42.2437 33.1312C41.9437 33.1312 41.6812 33.2437 41.4562 33.4688L37.9125 36.9562C37.6875 37.1812 37.575 37.4531 37.575 37.7719C37.575 38.0906 37.6875 38.3625 37.9125 38.5875C38.1375 38.8125 38.4094 38.925 38.7281 38.925C39.0469 38.925 39.3187 38.8125 39.5437 38.5875L43.0312 35.0437ZM38.25 49.5C35.1375 49.5 32.4844 48.4031 30.2906 46.2094C28.0969 44.0156 27 41.3625 27 38.25C27 35.1375 28.0969 32.4844 30.2906 30.2906C32.4844 28.0969 35.1375 27 38.25 27C41.3625 27 44.0156 28.0969 46.2094 30.2906C48.4031 32.4844 49.5 35.1375 49.5 38.25C49.5 41.3625 48.4031 44.0156 46.2094 46.2094C44.0156 48.4031 41.3625 49.5 38.25 49.5ZM4.5 24.75V13.5C4.5 12.2625 4.94062 11.2031 5.82187 10.3219C6.70312 9.44062 7.7625 9 9 9H45C46.2375 9 47.2969 9.44062 48.1781 10.3219C49.0594 11.2031 49.5 12.2625 49.5 13.5V27.225C48 25.6875 46.2844 24.5156 44.3531 23.7094C42.4219 22.9031 40.3875 22.5 38.25 22.5C36.825 22.5 35.4656 22.6781 34.1719 23.0344C32.8781 23.3906 31.65 23.8875 30.4875 24.525L26.775 16.9875C26.5875 16.6125 26.3062 16.3312 25.9312 16.1437C25.5562 15.9562 25.1625 15.8625 24.75 15.8625C24.3375 15.8625 23.9437 15.9562 23.5687 16.1437C23.1937 16.3312 22.9125 16.6125 22.725 16.9875L15.75 30.9937L13.2187 25.9875C13.0312 25.6125 12.7594 25.3125 12.4031 25.0875C12.0469 24.8625 11.6625 24.75 11.25 24.75H4.5ZM9 45C7.7625 45 6.70312 44.5594 5.82187 43.6781C4.94062 42.7969 4.5 41.7375 4.5 40.5V29.25H9.84375L13.725 37.0125C13.9125 37.425 14.1844 37.7344 14.5406 37.9406C14.8969 38.1469 15.3 38.25 15.75 38.25C16.1625 38.25 16.5469 38.1469 16.9031 37.9406C17.2594 37.7344 17.5312 37.425 17.7187 37.0125L24.75 23.0625L26.8875 27.3375C25.5375 28.7625 24.4687 30.4031 23.6812 32.2594C22.8937 34.1156 22.5 36.1125 22.5 38.25C22.5 39.4125 22.6219 40.5656 22.8656 41.7094C23.1094 42.8531 23.4937 43.95 24.0187 45H9Z" fill="#2F4858"/>
</svg>
