<svg width="18" height="18" viewBox="0 0 18 18" fill="none" xmlns="http://www.w3.org/2000/svg">
<circle cx="9" cy="9" r="9" fill="white"/>
<path d="M12.5156 12.5156H5.48438C5.29789 12.5156 5.11905 12.4415 4.98719 12.3097C4.85533 12.1778 4.78125 11.999 4.78125 11.8125V6.89062C4.78125 6.70414 4.85533 6.5253 4.98719 6.39344C5.11905 6.26158 5.29789 6.1875 5.48438 6.1875H6.89037L7.59349 5.13281H10.406L11.1091 6.1875H12.5156C12.7021 6.1875 12.8809 6.26158 13.0128 6.39344C13.1447 6.5253 13.2188 6.70414 13.2188 6.89062V11.8125C13.2188 11.999 13.1447 12.1778 13.0128 12.3097C12.8809 12.4415 12.7021 12.5156 12.5156 12.5156Z" stroke="#6CB6BE" stroke-linecap="round" stroke-linejoin="round"/>
<path d="M9 10.7578C9.87373 10.7578 10.582 10.0495 10.582 9.17578C10.582 8.30205 9.87373 7.59375 9 7.59375C8.12627 7.59375 7.41797 8.30205 7.41797 9.17578C7.41797 10.0495 8.12627 10.7578 9 10.7578Z" stroke="#6CB6BE" stroke-linecap="round" stroke-linejoin="round"/>
</svg>
