<svg width="22" height="20" viewBox="0 0 22 20" fill="none" xmlns="http://www.w3.org/2000/svg">
<path d="M11.5149 0.215504C11.6694 0.0742644 11.8781 -0.0020358 12.0934 0.0039942C17.1434 0.145504 21.2091 3.97326 21.3594 8.7276C21.3657 8.9303 21.2847 9.1268 21.1346 9.2723C20.9846 9.4178 20.7785 9.4999 20.5631 9.4999H12.0698C11.6298 9.4999 11.2731 9.1642 11.2731 8.7499V0.753664C11.2731 0.550884 11.3603 0.356744 11.5149 0.215504ZM9.67991 2.78369C9.67991 2.57307 9.5858 2.37216 9.42074 2.23007C9.25557 2.08799 9.03465 2.01782 8.81181 2.03672C3.9387 2.45016 0.120499 6.30489 0.120499 11.0001C0.120499 15.9706 4.40039 20.0001 9.67991 20.0001C14.6669 20.0001 18.7612 16.4053 19.2003 11.8174C19.2204 11.6076 19.1459 11.3996 18.995 11.2441C18.8441 11.0886 18.6307 11.0001 18.407 11.0001H9.67991V2.78369Z" fill="#B0B0B0"/>
</svg>
