<svg width="18" height="21" viewBox="0 0 18 21" fill="none" xmlns="http://www.w3.org/2000/svg">
<path d="M6.14824 16.551C5.58465 16.551 5.10235 16.3537 4.70135 15.959C4.29967 15.5637 4.09882 15.0887 4.09882 14.534V2.43204C4.09882 1.87736 4.29967 1.40236 4.70135 1.00703C5.10235 0.612369 5.58465 0.415039 6.14824 0.415039H15.3706C15.9342 0.415039 16.4168 0.612369 16.8185 1.00703C17.2195 1.40236 17.42 1.87736 17.42 2.43204V14.534C17.42 15.0887 17.2195 15.5637 16.8185 15.959C16.4168 16.3537 15.9342 16.551 15.3706 16.551H6.14824ZM2.04941 20.585C1.48582 20.585 1.00319 20.3877 0.601502 19.993C0.200501 19.5977 0 19.1227 0 18.568V5.45754C0 5.1718 0.0983719 4.93211 0.295115 4.73848C0.491176 4.54552 0.734373 4.44904 1.02471 4.44904C1.31504 4.44904 1.55858 4.54552 1.75532 4.73848C1.95138 4.93211 2.04941 5.1718 2.04941 5.45754V18.568H12.2965C12.5868 18.568 12.8303 18.6649 13.0271 18.8585C13.2231 19.0514 13.3212 19.2908 13.3212 19.5765C13.3212 19.8623 13.2231 20.1016 13.0271 20.2946C12.8303 20.4882 12.5868 20.585 12.2965 20.585H2.04941Z" fill="black"/>
</svg>
