<svg width="52" height="58" viewBox="0 0 52 58" fill="none" xmlns="http://www.w3.org/2000/svg">
<path d="M9.58036 58C7.82396 58 6.32091 57.3695 5.0712 56.1086C3.81937 54.8454 3.19345 53.3278 3.19345 51.5556V9.66667C2.28864 9.66667 1.52966 9.35841 0.916521 8.74189C0.305507 8.12322 0 7.35741 0 6.44444C0 5.53148 0.305507 4.76567 0.916521 4.147C1.52966 3.53048 2.28864 3.22222 3.19345 3.22222H15.9673C15.9673 2.30926 16.2738 1.54344 16.887 0.924778C17.498 0.308259 18.2559 0 19.1607 0H31.9345C32.8393 0 33.5983 0.308259 34.2115 0.924778C34.8225 1.54344 35.128 2.30926 35.128 3.22222H47.9018C48.8066 3.22222 49.5645 3.53048 50.1755 4.147C50.7887 4.76567 51.0952 5.53148 51.0952 6.44444C51.0952 7.35741 50.7887 8.12322 50.1755 8.74189C49.5645 9.35841 48.8066 9.66667 47.9018 9.66667V51.5556C47.9018 53.3278 47.2769 54.8454 46.0272 56.1086C44.7754 57.3695 43.2713 58 41.5149 58H9.58036ZM15.9673 41.8889C15.9673 42.8019 16.2738 43.5666 16.887 44.1831C17.498 44.8018 18.2559 45.1111 19.1607 45.1111C20.0655 45.1111 20.8245 44.8018 21.4376 44.1831C22.0487 43.5666 22.3542 42.8019 22.3542 41.8889V19.3333C22.3542 18.4204 22.0487 17.6546 21.4376 17.0359C20.8245 16.4194 20.0655 16.1111 19.1607 16.1111C18.2559 16.1111 17.498 16.4194 16.887 17.0359C16.2738 17.6546 15.9673 18.4204 15.9673 19.3333V41.8889ZM28.7411 41.8889C28.7411 42.8019 29.0476 43.5666 29.6608 44.1831C30.2718 44.8018 31.0297 45.1111 31.9345 45.1111C32.8393 45.1111 33.5983 44.8018 34.2115 44.1831C34.8225 43.5666 35.128 42.8019 35.128 41.8889V19.3333C35.128 18.4204 34.8225 17.6546 34.2115 17.0359C33.5983 16.4194 32.8393 16.1111 31.9345 16.1111C31.0297 16.1111 30.2718 16.4194 29.6608 17.0359C29.0476 17.6546 28.7411 18.4204 28.7411 19.3333V41.8889Z" fill="#F0988E"/>
</svg>
