<svg width="375" height="812" viewBox="0 0 375 812" fill="none" xmlns="http://www.w3.org/2000/svg">
<rect width="375" height="812" fill="url(#paint0_linear_1_5)"/>
<path d="M98.1593 429.808L71.909 411.316C71.8364 411.265 71.7511 411.235 71.6625 411.229C71.574 411.223 71.4856 411.242 71.407 411.284C71.3284 411.325 71.2627 411.388 71.2171 411.464C71.1715 411.54 71.1478 411.628 71.1485 411.717L71.1325 428.937C71.1328 429.076 71.1057 429.214 71.0528 429.343C70.9999 429.471 70.9223 429.588 70.8244 429.686C70.7264 429.785 70.6101 429.863 70.4821 429.916C70.3542 429.969 70.217 429.996 70.0785 429.996H65.054C64.7743 429.995 64.5062 429.883 64.3086 429.685C64.111 429.486 64 429.216 64 428.935L64.014 399.059C64.0143 398.863 64.0684 398.672 64.1703 398.505C64.2722 398.339 64.418 398.204 64.5915 398.115C64.7649 398.027 64.9594 397.988 65.1534 398.003C65.3474 398.019 65.5334 398.088 65.6908 398.203L106.567 428.083C106.747 428.215 106.88 428.401 106.949 428.613C107.017 428.826 107.017 429.055 106.948 429.267C106.879 429.48 106.745 429.665 106.566 429.797C106.386 429.928 106.169 429.999 105.947 430H98.7601C98.5451 429.998 98.3355 429.931 98.1593 429.808Z" fill="white"/>
<path d="M117.803 428.805L64.4386 390.417C64.3027 390.32 64.192 390.191 64.1157 390.042C64.0394 389.892 63.9997 389.727 64 389.559V383.414C64.0003 383.221 64.0533 383.031 64.1532 382.867C64.2531 382.702 64.396 382.568 64.5665 382.479C64.7369 382.39 64.9283 382.35 65.1199 382.363C65.3115 382.375 65.4959 382.441 65.653 382.552L112.205 415.488C112.273 415.537 112.353 415.565 112.437 415.571C112.52 415.577 112.603 415.559 112.677 415.52C112.751 415.482 112.813 415.423 112.856 415.351C112.899 415.28 112.922 415.197 112.922 415.113V382.055C112.922 381.775 113.032 381.507 113.229 381.309C113.426 381.111 113.693 381 113.971 381H118.952C119.091 381 119.228 381.028 119.356 381.081C119.484 381.135 119.6 381.214 119.698 381.313C119.795 381.413 119.872 381.53 119.924 381.66C119.976 381.789 120.002 381.928 120 382.067L119.458 427.961C119.456 428.153 119.401 428.341 119.3 428.504C119.198 428.667 119.055 428.799 118.884 428.886C118.714 428.973 118.523 429.011 118.333 428.997C118.142 428.983 117.959 428.916 117.803 428.805Z" fill="white"/>
<path d="M99.8757 382.071V390.206C99.8758 390.292 99.8526 390.377 99.8085 390.451C99.7644 390.524 99.7012 390.584 99.6257 390.624C99.5502 390.664 99.4654 390.682 99.3805 390.676C99.2956 390.67 99.2139 390.641 99.1443 390.592L85.9738 381.202C85.7997 381.074 85.591 381.004 85.376 381H77.052C76.8289 381 76.6118 381.073 76.4318 381.206C76.2518 381.339 76.1182 381.527 76.0502 381.742C75.9822 381.957 75.9833 382.188 76.0534 382.402C76.1235 382.617 76.2589 382.803 76.4402 382.934L105.324 403.802C105.481 403.915 105.667 403.983 105.859 403.997C106.052 404.011 106.245 403.972 106.417 403.882C106.589 403.793 106.734 403.658 106.835 403.491C106.936 403.324 106.989 403.132 106.99 402.937L107 382.073C107 381.79 106.889 381.519 106.691 381.319C106.494 381.118 106.225 381.006 105.946 381.006H100.928C100.649 381.006 100.381 381.118 100.184 381.318C99.9865 381.518 99.8757 381.789 99.8757 382.071Z" fill="white"/>
<path d="M155.232 411.203C155.232 408.352 153.582 406.609 151.025 406.609C148.418 406.609 146.821 408.354 146.821 411.203V427H135V397.211H146.821V401.751C148.523 399.163 151.512 397 156.032 397C162.954 397 167 402.015 167 409.724V427H155.232V411.203Z" fill="white"/>
<path d="M172 388.891C172 385.601 174.499 383 178.526 383C182.501 383 185 385.601 185 388.891C185 392.127 182.501 394.675 178.526 394.675C174.499 394.675 172 392.129 172 388.891ZM172.816 397.063H184.133V427H172.816V397.063Z" fill="white"/>
<path d="M201.449 427H190V397.211H201.455V402.701C203.728 399.375 207.234 397 211 397V409.513H207.749C203.622 409.513 201.455 410.728 201.455 414.793L201.449 427Z" fill="white"/>
<path d="M225.649 397L230.527 415.771L235.349 397H248L237.923 427H223.077L213 397H225.649Z" fill="white"/>
<path d="M262.604 397C266.662 397 269.583 398.772 271.043 401.505V397.37H283V427.63H271.043V423.495C269.583 426.23 266.662 428 262.604 428C255.571 428 250 422.261 250 412.502C250 402.743 255.571 397 262.604 397ZM266.608 407.403C264.12 407.403 262.171 409.175 262.171 412.498C262.171 415.821 264.12 417.591 266.608 417.591C269.097 417.591 271.043 415.819 271.043 412.498C271.043 409.177 269.097 407.403 266.608 407.403Z" fill="white"/>
<path d="M300 427H288V397.211H300V402.701C302.382 399.375 306.055 397 310 397V409.513H306.595C302.27 409.513 300 410.728 300 414.793V427Z" fill="white"/>
<defs>
<linearGradient id="paint0_linear_1_5" x1="1.07973e-05" y1="578.851" x2="375" y2="232.186" gradientUnits="userSpaceOnUse">
<stop stop-color="#6BB5BE"/>
<stop offset="1" stop-color="#74B192"/>
</linearGradient>
</defs>
</svg>
