<svg width="19" height="25" viewBox="0 0 19 25" fill="none" xmlns="http://www.w3.org/2000/svg">
<path d="M6.39701 6.37576H0.937825L5.63988 1.59422C5.85873 1.37517 6.11517 1.19743 6.3969 1.06921L6.39701 6.37576ZM18.602 2.592V23.0463C18.6033 23.5144 18.419 23.964 18.0894 24.2963C17.7596 24.6285 17.3116 24.8165 16.8435 24.8192H1.75896C1.29087 24.8167 0.842713 24.6287 0.512889 24.2965C0.183297 23.964 -0.0012248 23.5146 6.11913e-06 23.0463V8.41203C6.11913e-06 8.34566 0.0139784 8.28238 0.0189105 8.21703H7.31763V8.21683C7.56174 8.21703 7.79579 8.12005 7.9686 7.94723C8.1412 7.77463 8.23819 7.54038 8.23819 7.29627V0.819214H16.8436H16.8434C17.3115 0.821885 17.7594 1.0099 18.0892 1.34217C18.4188 1.67443 18.6031 2.12401 18.6019 2.59213L18.602 2.592ZM10.0792 7.29632C10.079 7.54043 10.176 7.77469 10.3486 7.94729C10.5214 8.1201 10.7555 8.21709 10.9998 8.21688H13.7615C14.0903 8.21688 14.3941 8.0414 14.5585 7.7566C14.7231 7.4718 14.7231 7.12084 14.5585 6.83604C14.3941 6.55124 14.0902 6.37576 13.7615 6.37576H10.9998C10.7555 6.37576 10.5214 6.47275 10.3486 6.64535C10.176 6.81796 10.079 7.05221 10.0792 7.29632ZM14.7018 18.3935C14.7032 18.1494 14.6077 17.9146 14.4361 17.7409C14.2643 17.5673 14.0307 17.4691 13.7865 17.4676L4.56095 17.4154C4.31478 17.4074 4.07622 17.5009 3.90114 17.6739C3.72607 17.847 3.6297 18.0845 3.63504 18.3306C3.6334 18.5748 3.72916 18.8096 3.90073 18.9832C4.07231 19.1569 4.30594 19.2553 4.55007 19.2565L13.7757 19.3087H13.7812C14.0243 19.3087 14.2577 19.2124 14.4301 19.041C14.6027 18.8696 14.7003 18.6368 14.7018 18.3935L14.7018 18.3935ZM14.7018 12.8702C14.7032 12.6261 14.6077 12.3912 14.4361 12.2176C14.2643 12.0439 14.0307 11.9457 13.7865 11.9443L4.56095 11.8921H4.5556C4.22663 11.8913 3.92231 12.0657 3.75688 12.3501C3.59167 12.6345 3.59064 12.9852 3.7542 13.2707C3.91777 13.5559 4.22126 13.7324 4.55004 13.7332L13.7756 13.7854H13.7812C14.0243 13.7854 14.2577 13.689 14.4301 13.5177C14.6027 13.3463 14.7003 13.1135 14.7017 12.8702L14.7018 12.8702Z" fill="#6CB6BE"/>
</svg>
