<svg width="23" height="18" viewBox="0 0 23 18" fill="none" xmlns="http://www.w3.org/2000/svg">
<path d="M0.961555 5V3.25C0.961555 1.45507 2.50707 0 4.41356 0H7.47117C8.105 0 8.71286 0.23705 9.16105 0.65901L10.7865 2.18934L8.03446 4.78033C7.88507 4.92098 7.68244 5 7.47117 5H0.961555ZM0.961555 6.5V14.75C0.961555 16.5449 2.50707 18 4.41356 18H18.7527C20.6591 18 22.2047 16.5449 22.2047 14.75V5.75C22.2047 3.95507 20.6591 2.5 18.7527 2.5H12.7097L9.16105 5.84099C8.71286 6.26295 8.105 6.5 7.47117 6.5H0.961555Z" fill="#B0B0B0"/>
</svg>
