<svg width="38" height="38" viewBox="0 0 38 38" fill="none" xmlns="http://www.w3.org/2000/svg">
<rect width="38" height="38" rx="10" fill="#8EC5CE" fill-opacity="0.34"/>
<path d="M17.8959 21.8551C18.0598 21.3469 18.2873 20.8674 18.5691 20.4262H12.1368C10.9567 20.4262 10 21.3853 10 22.5684V23.1187C10 23.9691 10.3026 24.7916 10.8535 25.4383C12.3418 27.1856 14.609 28.0478 17.5982 28.0478C18.1682 28.0478 18.712 28.0164 19.2291 27.9535C18.8576 27.549 18.539 27.0946 18.2847 26.6016C18.0617 26.6132 17.8329 26.619 17.5982 26.619C14.9962 26.619 13.1283 25.9086 11.9374 24.5105C11.6069 24.1224 11.4253 23.6289 11.4253 23.1187V22.5684C11.4253 22.1744 11.7439 21.8551 12.1368 21.8551H17.8959ZM17.5982 9C20.222 9 22.3491 11.1324 22.3491 13.7628C22.3491 16.3932 20.222 18.5256 17.5982 18.5256C14.9743 18.5256 12.8472 16.3932 12.8472 13.7628C12.8472 11.1324 14.9743 9 17.5982 9ZM17.5982 10.4288C15.7614 10.4288 14.2725 11.9215 14.2725 13.7628C14.2725 15.6041 15.7614 17.0967 17.5982 17.0967C19.4349 17.0967 20.9238 15.6041 20.9238 13.7628C20.9238 11.9215 19.4349 10.4288 17.5982 10.4288ZM18.548 23.7609C18.548 26.6544 20.8877 29 23.774 29C26.6603 29 29 26.6544 29 23.7609C29 20.8674 26.6603 18.5219 23.774 18.5219C20.8877 18.5219 18.548 20.8674 18.548 23.7609ZM26.6245 20.427C26.8869 20.427 27.0996 20.6403 27.0996 20.9033V22.8084C27.0996 23.0714 26.8869 23.2847 26.6245 23.2847H24.7242C24.4618 23.2847 24.2491 23.0714 24.2491 22.8084C24.2491 22.5454 24.4618 22.3321 24.7242 22.3321H25.6746C25.2407 21.7529 24.5507 21.3795 23.774 21.3795C22.9821 21.3795 22.2806 21.7675 21.8482 22.3664C21.6943 22.5795 21.3973 22.6272 21.1847 22.4729C20.9723 22.3187 20.9247 22.0209 21.0785 21.8078C21.6819 20.9722 22.6644 20.427 23.774 20.427C24.705 20.427 25.5462 20.8106 26.1494 21.4277V20.9033C26.1494 20.6403 26.3622 20.427 26.6245 20.427ZM21.3985 26.0941V26.6186C21.3985 26.8816 21.1858 27.0949 20.9234 27.0949C20.6611 27.0949 20.4483 26.8816 20.4483 26.6186V24.7135C20.4483 24.4505 20.6611 24.2372 20.9234 24.2372H22.8238C23.0861 24.2372 23.2989 24.4505 23.2989 24.7135C23.2989 24.9765 23.0861 25.1898 22.8238 25.1898H21.8734C22.3073 25.7689 22.9974 26.1423 23.774 26.1423C24.5021 26.1423 25.1535 25.8145 25.59 25.2963C25.7592 25.0953 26.059 25.0699 26.2595 25.2396C26.46 25.4093 26.4852 25.7099 26.3159 25.9108C25.7067 26.6342 24.7937 27.0949 23.774 27.0949C22.8431 27.0949 22.0018 26.7113 21.3985 26.0941Z" fill="#3A3A3A"/>
</svg>
