<svg width="27" height="27" viewBox="0 0 27 27" fill="none" xmlns="http://www.w3.org/2000/svg">
<circle cx="13.5" cy="13.5" r="13.5" fill="white"/>
<path d="M10.7852 8.02093C10.371 8.0262 10.0395 8.36621 10.0448 8.78038C10.05 9.1946 10.3901 9.52608 10.8043 9.52081L16.4582 9.44875L9.24675 16.7376C8.95542 17.032 8.95794 17.5069 9.2524 17.7982C9.54686 18.0895 10.0217 18.087 10.313 17.7925L17.521 10.5073L17.5093 16.1547C17.5085 16.5689 17.8436 16.9054 18.2578 16.9063C18.672 16.9071 19.0085 16.5721 19.0093 16.1579L19.0245 8.86744C19.0255 8.34426 18.5982 7.92142 18.075 7.92808L10.7852 8.02093Z" fill="#6CB6BE"/>
</svg>
