<svg width="20" height="19" viewBox="0 0 20 19" fill="none" xmlns="http://www.w3.org/2000/svg">
<path d="M11.9651 0.53318C11.075 -0.17382 9.77326 -0.17382 8.88318 0.53318L1.71358 6.22772C1.17533 6.65523 0.864746 7.28447 0.864746 7.94747V17.2526C0.864746 18.2191 1.69695 19.0026 2.72352 19.0026H5.90999C6.93656 19.0026 7.76876 18.2191 7.76876 17.2526V13.25C7.76876 12.5707 8.34424 12.018 9.0613 12.0004H11.787C12.5041 12.018 13.0795 12.5707 13.0795 13.25V17.2526C13.0795 18.2191 13.9117 19.0026 14.9383 19.0026H18.1248C19.1514 19.0026 19.9836 18.2191 19.9836 17.2526V7.94747C19.9836 7.28447 19.673 6.65523 19.1347 6.22772L11.9651 0.53318Z" fill="#AFAFAF"/>
</svg>
