<svg width="311" height="279" viewBox="0 0 311 279" fill="none" xmlns="http://www.w3.org/2000/svg">
<path d="M239.035 69.9365C239.035 69.9365 204.544 -5.39349 147.174 19.3965C89.8044 44.1865 125.794 122.667 62.9545 139.687C0.114479 156.707 7.80445 269.287 72.6744 248.497C137.544 227.707 169.215 188.867 227.285 217.637C285.365 246.407 293.185 153.807 239.035 69.9365Z" fill="#D8E5F5"/>
<path opacity="0.3" d="M261.284 37.5365C261.284 37.5365 216.724 20.3165 192.914 58.9165C169.104 97.5065 236.354 105.426 241.564 123.406C246.774 141.386 213.994 154.266 224.554 178.816C235.104 203.366 319.254 182.546 309.884 106.266C302.734 47.9965 261.284 37.5365 261.284 37.5365Z" fill="#64A3F5"/>
<path opacity="0.3" d="M185.904 41.0265C184.134 32.4165 167.534 1.35649 126.654 9.11649C83.4245 17.3265 87.6245 72.8565 118.394 80.4565C149.164 88.0565 136.744 59.0565 152.884 53.1765C163.524 49.2865 191.324 67.3365 185.904 41.0265Z" fill="#64A3F5"/>
<path opacity="0.3" d="M12.5145 92.3165C12.5445 91.6765 19.4345 39.1965 48.6845 36.8365C77.9345 34.4665 63.5444 62.7865 66.8644 74.3365C70.1844 85.8765 84.7545 80.6165 103.744 92.3265C126.754 106.527 134.094 179.897 66.8644 184.187C-0.365555 188.477 12.5145 92.3165 12.5145 92.3165Z" fill="#64A3F5"/>
<path d="M160.694 278.387C234.121 278.387 293.644 273.717 293.644 267.957C293.644 262.196 234.121 257.527 160.694 257.527C87.2682 257.527 27.7444 262.196 27.7444 267.957C27.7444 273.717 87.2682 278.387 160.694 278.387Z" fill="#D8E5F5"/>
<path d="M120.854 92.2465C120.854 96.4765 120.194 100.567 118.954 104.387C113.834 120.337 98.8745 131.887 81.2145 131.887C59.3245 131.887 41.5745 114.137 41.5745 92.2465C41.5745 91.3565 41.6044 90.4765 41.6644 89.6065C43.0144 68.9465 60.2045 52.6065 81.2145 52.6065C103.114 52.6065 120.854 70.3565 120.854 92.2465Z" fill="#E3E2E0"/>
<path d="M118.954 104.387C113.834 120.337 98.8745 131.887 81.2145 131.887C59.3245 131.887 41.5745 114.137 41.5745 92.2465C41.5745 91.3565 41.6044 90.4765 41.6644 89.6065C44.9144 81.5765 49.8145 75.3765 49.8145 75.3765C49.8145 75.3765 34.9045 120.897 73.7545 123.257C77.3045 123.477 100.834 115.017 106.724 98.5365C106.734 98.5265 111.494 111.047 118.954 104.387Z" fill="#CECFD6"/>
<path d="M76.9944 125.577C95.8992 125.577 111.224 109.974 111.224 90.7265C111.224 71.4794 95.8992 55.8765 76.9944 55.8765C58.0897 55.8765 42.7645 71.4794 42.7645 90.7265C42.7645 109.974 58.0897 125.577 76.9944 125.577Z" fill="#E3E2E0"/>
<path d="M52.6545 115.277L90.6044 58.7665C90.6044 58.7665 65.1444 47.0065 49.3544 69.9065C32.8644 93.8265 52.6545 115.277 52.6545 115.277Z" fill="#EEEFEF"/>
<path d="M59.2545 120.637L97.6144 62.8865C97.6144 62.8865 124.194 83.2165 105.864 111.147C88.5444 137.547 59.2545 120.637 59.2545 120.637Z" fill="#EEEFEF"/>
<path d="M69.9244 184.617C69.9244 194.337 61.3445 202.217 50.7545 202.217C40.1645 202.217 31.5845 194.337 31.5845 184.617C31.5845 184.087 31.6144 183.556 31.6644 183.036C32.5344 174.056 40.7445 167.017 50.7545 167.017C60.7645 167.017 68.9845 174.056 69.8445 183.036C69.9045 183.556 69.9244 184.087 69.9244 184.617Z" fill="#FEC65E"/>
<path d="M50.7545 199.057C61.2976 199.057 69.8445 191.884 69.8445 183.036C69.8445 174.189 61.2976 167.017 50.7545 167.017C40.2113 167.017 31.6644 174.189 31.6644 183.036C31.6644 191.884 40.2113 199.057 50.7545 199.057Z" fill="#FED87C"/>
<path d="M59.9445 187.906L41.6545 178.467C41.4245 178.347 41.3345 178.057 41.4545 177.827L41.9845 176.807C42.1045 176.577 42.3945 176.487 42.6245 176.607L60.9145 186.047C61.1445 186.167 61.2345 186.457 61.1145 186.687L60.5845 187.707C60.4645 187.937 60.1745 188.026 59.9445 187.906Z" fill="#FEFFFF"/>
<path d="M276.684 98.9465C276.684 106.227 270.254 112.127 262.324 112.127C254.394 112.127 247.964 106.227 247.964 98.9465C247.964 98.5465 247.984 98.1565 248.024 97.7665C248.674 91.0365 254.824 85.7665 262.324 85.7665C269.824 85.7665 275.974 91.0365 276.624 97.7665C276.664 98.1565 276.684 98.5565 276.684 98.9465Z" fill="#FEC65E"/>
<path d="M262.324 109.767C270.222 109.767 276.624 104.394 276.624 97.7665C276.624 91.1391 270.222 85.7665 262.324 85.7665C254.427 85.7665 248.024 91.1391 248.024 97.7665C248.024 104.394 254.427 109.767 262.324 109.767Z" fill="#FED87C"/>
<path d="M269.214 101.417L255.514 94.3465C255.344 94.2565 255.274 94.0465 255.364 93.8665L255.764 93.0965C255.854 92.9265 256.064 92.8565 256.244 92.9465L269.944 100.017C270.114 100.107 270.184 100.317 270.094 100.497L269.694 101.267C269.604 101.437 269.384 101.507 269.214 101.417Z" fill="#FEFFFF"/>
<path d="M6.29441 137.377C9.28441 144.397 17.7244 147.226 25.1344 143.696C32.5444 140.166 36.1244 131.617 33.1344 124.597C32.9744 124.217 32.7945 123.847 32.5945 123.487C29.2245 117.287 21.3044 114.936 14.2944 118.276C7.28441 121.616 3.70442 129.437 5.86442 136.207C5.98442 136.597 6.12441 136.987 6.29441 137.377Z" fill="#FEAFD0"/>
<path d="M25.7402 140.535C32.7258 136.26 35.4581 128.005 31.8429 122.098C28.2277 116.191 19.634 114.869 12.6485 119.144C5.66289 123.42 2.93069 131.674 6.54588 137.581C10.1611 143.488 18.7547 144.81 25.7402 140.535Z" fill="#FECFE3"/>
<path d="M14.3445 136.356L24.1345 123.576C24.2845 123.376 24.2544 123.087 24.0644 122.927L23.5044 122.466C23.3145 122.306 23.0345 122.346 22.8845 122.546L13.0945 135.326C12.9445 135.526 12.9744 135.816 13.1644 135.976L13.7244 136.436C13.9044 136.596 14.1845 136.556 14.3445 136.356Z" fill="#FEFFFF"/>
<path d="M163.084 25.9665C166.074 32.9865 174.514 35.8165 181.924 32.2865C189.334 28.7565 192.914 20.2065 189.924 13.1865C189.764 12.8065 189.584 12.4365 189.384 12.0765C186.014 5.87651 178.094 3.52651 171.084 6.86651C164.074 10.2065 160.494 18.0265 162.654 24.7965C162.774 25.1965 162.914 25.5865 163.084 25.9665Z" fill="#FEAFD0"/>
<path d="M182.522 29.132C189.507 24.8566 192.239 16.6023 188.624 10.6954C185.009 4.78849 176.415 3.46589 169.43 7.74127C162.444 12.0167 159.712 20.271 163.327 26.1779C166.942 32.0848 175.536 33.4074 182.522 29.132Z" fill="#FECFE3"/>
<path d="M171.134 24.9565L180.924 12.1765C181.074 11.9765 181.044 11.6865 180.854 11.5265L180.294 11.0665C180.104 10.9065 179.824 10.9465 179.674 11.1465L169.884 23.9265C169.734 24.1265 169.764 24.4165 169.954 24.5765L170.514 25.0365C170.694 25.1865 170.974 25.1565 171.134 24.9565Z" fill="#FEFFFF"/>
<path d="M85.9945 90.3765C85.9945 90.3765 88.6645 84.9765 92.8445 85.0165C99.5445 85.0765 104.764 90.9965 106.974 96.6465C109.184 102.297 116.824 106.267 123.724 108.367C132.134 110.937 129.154 126.287 117.734 123.567C106.314 120.847 105.514 133.987 100.244 135.517C91.8245 137.957 81.3845 129.517 86.1345 121.267C92.7845 109.727 79.6045 90.8965 85.9945 90.3765Z" fill="#18325C"/>
<path d="M99.9645 251.957C94.8845 262.097 87.7244 259.226 87.7244 259.226C87.7244 259.226 92.6545 254.306 93.9545 249.196C94.3545 247.606 93.9244 243.227 93.1044 237.767C92.9844 236.967 92.8544 236.146 92.7244 235.316C90.5344 221.696 86.5544 203.366 86.7944 203.106C90.4944 199.186 96.7244 203.566 96.7244 203.566C100.174 213.496 100.184 224.937 99.8644 233.647C99.8144 234.917 99.7645 236.137 99.7145 237.277C99.5045 241.927 99.3545 245.387 99.8945 246.767C101.394 250.527 99.9645 251.957 99.9645 251.957Z" fill="#F6B3B3"/>
<path d="M101.134 251.686L101.054 253.416L100.664 262.296L98.5045 262.446L97.8945 260.026L96.9645 256.346C98.4045 250.616 101.134 251.686 101.134 251.686Z" fill="#E65783"/>
<path d="M101.134 251.687L101.054 253.416C99.4344 254.886 98.7845 257.626 97.8945 260.036L96.9645 256.356C98.4045 250.616 101.134 251.687 101.134 251.687Z" fill="#DE4373"/>
<path d="M101.134 251.687C98.8344 252.537 97.9845 255.266 97.0845 257.916C96.5245 259.566 95.9444 261.186 94.9744 262.296C93.3644 264.146 83.9244 263.167 83.5444 262.937C82.5144 262.307 83.6244 261.256 84.9844 260.356C85.4044 260.076 85.8445 259.817 86.2645 259.587C87.1945 259.067 87.9744 258.706 87.9744 258.706C89.5444 259.766 92.1144 260.176 94.3144 256.726C96.5144 253.266 99.7644 246.947 100.064 247.087C100.184 247.137 100.284 247.226 100.374 247.326C100.644 247.616 100.824 248.086 100.934 248.606C101.244 249.946 101.134 251.687 101.134 251.687Z" fill="#E65783"/>
<path d="M100.374 247.316C95.7845 253.846 96.1745 255.696 93.1245 258.916C90.5045 261.686 87.3245 260.616 86.2645 259.576C87.1945 259.056 87.9744 258.696 87.9744 258.696C89.5444 259.756 92.1145 260.167 94.3145 256.717C96.5145 253.257 99.7645 246.936 100.064 247.076C100.174 247.126 100.284 247.206 100.374 247.316Z" fill="#ED6890"/>
<path d="M97.0845 257.916C96.5245 259.566 95.9444 261.186 94.9744 262.296C93.3644 264.146 83.9244 263.167 83.5444 262.937C82.5144 262.307 83.6244 261.256 84.9844 260.356C84.9844 260.356 83.2844 261.846 83.8844 262.456C84.4844 263.076 93.2744 263.837 94.8144 261.837C96.3144 259.897 97.0445 258.036 97.0845 257.916Z" fill="#DE4373"/>
<path d="M124.104 263.837C123.304 265.807 122.424 265.947 121.174 265.527C119.784 265.067 117.324 263.066 115.724 259.766C115.294 258.876 114.954 257.956 114.674 257.036C113.204 252.146 113.624 247.236 113.624 247.236L119.794 247.696C119.794 247.696 121.624 250.956 123.004 254.726C123.004 254.726 123.004 254.726 123.004 254.736C124.194 257.966 125.034 261.567 124.104 263.837Z" fill="#E65783"/>
<path d="M121.174 259.986C118.974 260.916 117.274 259.146 116.204 257.367C115.404 256.036 114.874 254.566 114.614 253.036C114.134 250.286 113.034 243.986 112.004 238.356C111.794 237.186 111.584 236.046 111.384 234.976C110.954 232.686 110.574 230.696 110.304 229.396C109.084 223.587 102.984 200.876 103.024 200.176L112.704 197.687C112.704 197.687 112.224 200.416 115.914 210.786C118.354 217.626 118.474 227.087 118.414 234.247C118.404 235.747 118.374 237.146 118.364 238.406C118.344 240.226 118.354 241.746 118.454 242.816C118.914 248.116 125.134 258.326 121.174 259.986Z" fill="#F6B3B3"/>
<path d="M113.784 248.307C113.784 248.307 116.304 261.786 121.184 259.986C124.114 258.906 119.804 247.687 119.804 247.687C119.804 247.687 123.494 254.916 123.184 258.606C122.874 262.296 120.444 262.406 118.264 260.656C116.084 258.906 114.854 256.147 113.784 248.307Z" fill="#ED6890"/>
<path d="M124.104 263.837C123.304 265.807 122.424 265.947 121.174 265.527C119.784 265.067 117.324 263.066 115.724 259.766C115.294 258.876 114.954 257.956 114.674 257.036C114.754 257.266 117.384 264.906 121.634 264.606C125.864 264.306 123.124 255.116 123.004 254.736C124.194 257.966 125.034 261.567 124.104 263.837Z" fill="#DE4373"/>
<path opacity="0.15" d="M99.8644 233.636C99.8144 234.906 99.7645 236.126 99.7145 237.266C97.6045 238.096 94.7344 237.936 93.1044 237.756C92.9844 236.956 92.8544 236.137 92.7244 235.307L98.0544 233.236C98.0544 233.236 98.9444 233.356 99.8644 233.636Z" fill="#6E341D"/>
<path opacity="0.15" d="M118.414 234.247C118.404 235.747 118.374 237.146 118.364 238.406C115.794 239.236 113.534 238.897 112.004 238.367C111.794 237.197 111.584 236.057 111.384 234.987L116.094 234.316C116.094 234.316 117.144 234.237 118.414 234.247Z" fill="#6E341D"/>
<path d="M100.984 171.197C100.984 171.197 100.264 193.476 100.854 200.906C101.444 208.326 109.114 235.607 109.114 235.607C109.984 236.207 111.884 237.337 114.544 237.536C118.214 237.816 120.884 236.157 121.704 235.607C121.224 231.487 120.384 225.206 119.354 217.536C118.104 208.187 116.704 198.207 116.084 195.687C114.854 190.647 119.494 164.317 117.254 165.337C115.004 166.357 102.824 165.337 102.824 165.337L100.984 171.197Z" fill="url(#paint0_linear_108_543)"/>
<path d="M81.4345 173.016C80.7845 173.566 90.3445 234.616 90.9645 235.696C91.5845 236.776 101.534 237.086 102.954 233.626C102.954 233.626 95.8945 173.577 95.4345 172.967C94.9745 172.357 81.4345 173.016 81.4345 173.016Z" fill="url(#paint1_linear_108_543)"/>
<path d="M52.4445 141.966C54.1289 141.966 55.4944 140.422 55.4944 138.516C55.4944 136.611 54.1289 135.066 52.4445 135.066C50.76 135.066 49.3945 136.611 49.3945 138.516C49.3945 140.422 50.76 141.966 52.4445 141.966Z" fill="#1B1C19"/>
<path d="M52.6319 139.342C53.2862 139.28 53.7513 138.539 53.6708 137.687C53.5902 136.835 52.9945 136.194 52.3402 136.256C51.6858 136.317 51.2207 137.059 51.3013 137.911C51.3818 138.763 51.9775 139.404 52.6319 139.342Z" fill="#394A80"/>
<path d="M68.5445 140.796C68.1445 140.946 65.7645 140.346 63.4045 141.256C60.9345 142.216 59.4445 142.506 57.5545 141.606C56.0345 140.876 53.3245 140.286 52.1445 140.186C50.9645 140.086 51.9445 138.266 53.4245 138.426C54.9045 138.586 56.3445 139.366 57.0045 139.076C57.6745 138.786 58.2145 136.466 55.5845 136.166C54.1245 136.006 52.8345 137.296 52.2145 137.046C51.1345 136.596 51.8545 136.156 52.5845 135.436C52.5845 135.436 52.5845 135.426 52.5745 135.426C52.2745 135.036 53.1745 133.446 53.8445 133.796C53.5445 133.556 54.2845 132.656 55.3945 132.906C55.3945 132.906 55.9045 132.186 57.0345 132.556C57.1745 132.596 57.3445 132.686 57.5545 132.786C59.0745 133.576 62.2444 135.826 63.2245 136.006C64.3444 136.216 68.2645 135.916 68.2645 135.916L68.5445 140.796Z" fill="#F6ACAC"/>
<path d="M56.1445 134.646C54.3845 134.366 53.2145 134.946 52.5745 135.436C52.2745 135.046 53.1745 133.456 53.8445 133.806C53.5445 133.566 54.2845 132.666 55.3945 132.916C55.3945 132.916 55.9045 132.196 57.0345 132.566C57.1745 132.606 57.3445 132.696 57.5545 132.796C56.8445 132.936 56.8245 133.446 56.8245 133.446C56.2245 133.826 56.1445 134.646 56.1445 134.646Z" fill="#F89797"/>
<path d="M99.0444 120.686C97.2544 130.336 92.5145 146.156 92.5145 146.156L68.1445 144.646H62.8945C62.8945 144.646 63.9545 145.106 62.8945 143.266C61.2545 140.426 61.6145 134.476 62.8945 132.516L83.6345 137.686C83.6345 137.686 86.5245 128.196 89.7545 120.406C89.8445 120.186 89.9345 119.977 90.0245 119.757C91.6145 115.987 93.2745 112.706 94.6945 111.216C94.6945 111.216 97.6644 111.227 99.4144 113.617C99.9644 114.357 99.7044 117.096 99.0444 120.686Z" fill="#EDF5FD"/>
<path d="M99.0444 120.686C97.2544 130.336 92.5145 146.156 92.5145 146.156L62.8945 144.646L62.1445 141.146C62.1445 141.146 63.2045 142.976 62.1445 141.146L90.1545 145.146C90.1545 145.146 88.6445 124.666 89.7545 120.406C89.8545 120.016 89.9144 119.786 89.9344 119.746L90.0245 119.757L99.0444 120.686Z" fill="#D2D9E0"/>
<path d="M122.634 207.497C116.684 213.657 94.1945 210.046 94.1945 210.046L90.9545 193.826L90.8945 194.467L89.5645 209.106C87.8545 209.226 86.1945 209.147 84.6545 208.967C80.2345 208.447 76.9244 207.076 76.9244 207.076C80.8444 164.146 85.3844 139.886 88.9144 126.416C88.9944 126.116 89.0645 125.826 89.1445 125.546C89.3345 124.826 89.5245 124.146 89.7045 123.496C89.7545 123.316 89.8044 123.126 89.8644 122.956C92.6344 113.346 94.5945 110.726 94.8145 110.546C98.8045 113.526 106.064 109.456 106.064 109.456C120.544 114.686 122.634 207.497 122.634 207.497Z" fill="#EDF5FD"/>
<path d="M93.1245 110.686C89.8845 112.836 88.8044 116.226 88.8044 116.226L90.7444 116.867L88.3145 119.936L93.2444 132.496C93.2444 132.496 93.2945 112.216 94.8145 110.526L93.1245 110.686Z" fill="#EDF5FD"/>
<path d="M103.734 111.136C96.3444 118.936 95.0544 111.406 95.0544 111.406C95.7044 110.706 96.1044 109.686 96.3544 108.676C96.7744 106.966 96.7545 105.296 96.7545 105.296C99.4845 104.856 102.644 102.257 102.644 102.257C102.434 102.817 102.564 104.316 102.564 105.056C102.584 107.766 103.734 111.136 103.734 111.136Z" fill="#F6ACAC"/>
<path d="M102.574 105.056C100.584 107.426 97.5144 108.426 96.3544 108.686C96.7744 106.976 96.7545 105.306 96.7545 105.306C99.4845 104.866 102.644 102.266 102.644 102.266C102.444 102.816 102.564 104.316 102.574 105.056Z" fill="#F49897"/>
<path d="M96.8244 126.066C94.5644 128.816 93.3244 132.406 93.3244 132.266C93.3244 132.266 93.3244 132.267 93.3244 132.257C93.3844 131.906 91.7444 111.766 94.8244 110.536C94.8544 110.556 95.1445 110.706 95.4045 110.916C95.4645 110.966 95.5144 111.006 95.5644 111.066C95.9044 111.406 96.1544 111.826 97.1344 111.996V114.336L98.5945 112.046C99.8745 111.946 101.554 111.486 103.754 110.386C103.954 110.286 101.434 120.446 96.8244 126.066Z" fill="#498DE6"/>
<path d="M98.5945 160.786C98.5945 160.786 103.144 163.176 110.854 161.456V175.736H99.4545L98.5945 160.786Z" fill="#F7FBFF"/>
<path d="M98.5945 163.027C98.5845 162.787 98.9844 175.726 98.9844 175.726H110.854C110.854 175.726 99.0545 176.677 98.5945 163.027Z" fill="#D2D9E0"/>
<path d="M96.8244 126.066C94.8744 127.596 93.3444 132.326 93.3244 132.266C93.3244 132.266 93.3244 132.267 93.3244 132.257C93.3844 131.906 91.7444 111.766 94.8244 110.536C94.8544 110.556 95.1445 110.706 95.4045 110.916C94.8645 112.856 91.9344 125.606 96.8244 126.066Z" fill="#417DCC"/>
<path d="M93.3044 132.466L88.9144 126.426C88.9944 126.126 89.0645 125.836 89.1445 125.556C89.3345 124.836 89.5245 124.157 89.7045 123.507L93.3044 132.466Z" fill="#D2D9E0"/>
<path d="M93.2745 132.516C93.2745 132.516 95.7445 124.676 106.534 118.216L105.914 116.536L106.454 116.326L106.034 114.026L103.754 115.476C103.754 115.486 94.8145 124.676 93.2745 132.516Z" fill="#D2D9E0"/>
<path d="M105.304 110.226C104.994 110.226 104.244 110.366 103.764 110.376C103.764 110.376 103.764 110.686 101.144 114.836C94.5145 125.336 93.2845 132.516 93.2845 132.516C94.3245 128.496 96.5445 126.277 98.7045 123.867C98.7545 123.817 103.464 118.826 105.614 117.456L105.144 115.806L106.844 114.996C106.844 114.996 107.434 111.566 105.304 110.226Z" fill="#EDF5FD"/>
<path d="M90.9545 193.816L90.9045 194.467L89.5745 209.117C87.8645 209.237 86.2044 209.156 84.6644 208.976C86.0344 195.026 91.2745 142.566 93.2745 132.856C93.2745 132.846 89.8745 173.216 90.9545 193.816Z" fill="#D2D9E0"/>
<path d="M70.7444 146.747C70.2244 146.747 69.7145 146.726 69.2145 146.696C64.5945 146.426 60.5244 145.016 57.9244 143.876C56.6444 143.316 55.4145 142.686 54.4445 142.086C53.0645 141.246 53.0544 141.026 53.0544 140.926L53.5045 140.906C53.5045 140.866 53.4844 140.846 53.4844 140.836C53.6544 141.106 56.3245 142.926 60.5145 144.406C64.1345 145.686 69.6245 146.976 75.2645 145.846C86.1945 143.646 93.1845 133.556 96.0345 115.836L96.4844 115.906C92.4144 141.096 80.5544 146.747 70.7444 146.747Z" fill="#1B1C19"/>
<path d="M97.5245 153.486L81.5945 154.146L69.9944 127.996C70.1744 127.946 71.9145 127.746 74.2745 127.496C79.9845 126.876 89.3445 125.906 89.3445 125.906L95.8345 147.807L97.5245 153.486Z" fill="#F6C84A"/>
<path d="M83.3445 126.916L75.9144 127.596C75.7744 127.606 75.6445 127.507 75.6345 127.367L75.5945 126.956C75.5845 126.816 75.6845 126.697 75.8245 126.677L83.2545 125.996C83.3945 125.986 83.5245 126.086 83.5345 126.226L83.5745 126.636C83.5945 126.786 83.4845 126.906 83.3445 126.916Z" fill="#F5943B"/>
<path opacity="0.38" d="M97.5245 153.486L81.5945 154.146L69.9944 127.996C70.1744 127.946 71.9145 127.746 74.2745 127.496C75.6545 133.036 82.2945 152.767 95.8345 147.807L97.5245 153.486Z" fill="#F6B036"/>
<path d="M97.5245 153.486L88.7745 126.686L69.9944 127.996C70.1744 127.946 71.9145 127.746 74.2745 127.496C79.9845 126.876 89.3445 125.906 89.3445 125.906L95.8345 147.807L97.5245 153.486Z" fill="#F5A153"/>
<path d="M103.614 144.206C103.614 144.206 100.814 144.106 99.2445 144.206C98.3645 144.256 97.0545 145.016 95.7545 145.586C94.7345 146.026 93.7244 146.366 92.9244 146.166C89.6444 145.346 88.9045 143.296 88.9045 143.296C84.8845 142.956 85.0445 141.766 85.4545 141.456C85.8245 141.176 89.5545 141.626 91.1945 141.436C91.3745 141.416 91.5345 141.386 91.6545 141.346C92.8745 140.956 95.0345 137.676 93.7645 137.686C92.4945 137.696 91.3445 135.086 92.0245 134.516C93.0445 133.646 92.4545 135.556 94.5745 136.036C96.6945 136.526 96.9144 137.676 97.6744 138.506C98.4344 139.336 99.9345 139.346 100.304 139.346L103.034 138.826L103.614 144.206Z" fill="#F6ACAC"/>
<path d="M95.7545 145.576C94.7345 146.016 93.7244 146.356 92.9244 146.156C89.6444 145.336 88.9045 143.286 88.9045 143.286C84.8845 142.946 85.0445 141.756 85.4545 141.446C85.8245 141.166 89.5545 141.617 91.1945 141.427C91.7545 142.707 93.0945 144.996 95.7545 145.576Z" fill="#F89797"/>
<path d="M128.534 143.396L100.894 145.646C100.894 145.646 102.774 139.896 98.6445 134.146L117.024 134.396C117.024 134.396 105.474 122.066 105.774 109.636C105.774 109.636 109.574 105.916 111.314 108.316C124.664 126.766 128.534 143.396 128.534 143.396Z" fill="#EDF5FD"/>
<path d="M106.904 117.136C107.404 119.016 113.154 129.516 117.154 132.516C118.754 133.716 121.784 134.646 121.784 134.646C121.784 134.646 117.644 133.267 118.034 134.146C118.034 134.146 122.644 135.937 122.664 135.896C122.684 135.856 117.914 134.646 115.164 134.646C113.094 134.646 98.6545 134.146 98.6545 134.146C98.6545 134.146 116.104 133.346 116.034 133.266C109.154 125.646 106.904 117.136 106.904 117.136Z" fill="#D2D9E0"/>
<path d="M102.654 145.527L100.904 145.656C100.904 145.656 101.654 140.026 98.6545 134.156C101.524 137.896 102.964 143.507 102.654 145.527Z" fill="#D2D9E0"/>
<path d="M103.354 100.056C103.264 100.386 103.164 100.716 103.044 101.046C102.904 101.436 102.734 101.826 102.544 102.206C102.334 102.626 102.104 103.046 101.844 103.436C99.6745 106.786 95.9645 109.026 92.8445 108.126C90.3345 107.396 90.2145 105.376 90.0145 102.966C89.9845 102.566 89.9445 102.156 89.8945 101.736C89.7545 100.576 89.5145 99.3765 88.9345 98.1965C88.5745 97.4665 88.2345 96.8065 87.9345 96.2065C86.5445 93.3765 86.0945 91.7565 88.4645 89.3665C92.5245 85.2565 98.7145 87.8565 98.7145 87.8565C103.034 89.6965 104.664 95.0265 103.354 100.056Z" fill="#F6ACAC"/>
<path d="M103.354 100.056C103.044 101.246 102.664 102.086 101.994 103.126C101.394 103.266 100.154 101.967 99.4344 100.867C97.6844 98.1965 97.1544 93.3765 92.6444 95.3065C90.6544 96.1565 89.1144 96.6265 87.9444 96.1965C86.5544 93.3665 86.1044 91.7465 88.4744 89.3565C92.5344 85.2465 98.7244 87.8465 98.7244 87.8465C103.034 89.6965 104.664 95.0265 103.354 100.056Z" fill="#F49897"/>
<path d="M89.7145 108.736C89.6945 108.696 87.8145 105.186 86.0745 100.896C84.3545 96.6465 83.3345 93.6465 83.5645 91.8065C83.7945 89.9765 85.9245 90.0865 85.9445 90.0865L85.9345 90.2365C85.8545 90.2265 83.9245 90.1265 83.7145 91.8165C83.4945 93.6265 84.5045 96.6065 86.2145 100.826C87.9445 105.106 89.8245 108.616 89.8445 108.646L89.7145 108.736Z" fill="#18325C"/>
<path d="M127.444 110.867L127.294 110.897C126.694 107.947 124.694 106.256 120.614 105.226C120.364 105.166 120.104 105.106 119.864 105.056C117.554 104.546 115.564 104.106 113.104 96.9365C111.954 93.5965 110.144 92.8865 108.394 92.1965C107.004 91.6565 105.694 91.1365 104.864 89.3465C102.784 84.8065 99.3745 85.1565 98.2545 85.2765C98.0645 85.2965 97.9744 85.3065 97.9244 85.2865L97.9645 85.1365C97.9945 85.1465 98.1244 85.1265 98.2444 85.1165C98.7944 85.0565 99.9444 84.9365 101.234 85.4165C102.834 86.0065 104.104 87.3065 105.004 89.2765C105.804 91.0165 107.084 91.5165 108.444 92.0465C110.144 92.7165 112.074 93.4665 113.244 96.8765C115.684 103.967 117.634 104.407 119.894 104.897C120.134 104.947 120.394 105.007 120.644 105.067C124.794 106.117 126.834 107.847 127.444 110.867Z" fill="#214580"/>
<path d="M91.6644 95.9965C90.2444 96.2765 89.0444 96.0365 88.1044 95.2965C86.1944 93.7965 85.9844 90.6865 85.9844 90.6565L86.1345 90.6465C86.1345 90.6765 86.3445 93.7165 88.1945 95.1665C89.1045 95.8765 90.2645 96.1065 91.6345 95.8365L91.6644 95.9965Z" fill="#1D417A"/>
<path d="M91.2145 97.3065C89.7645 97.2665 88.6444 96.7765 87.8744 95.8465C86.3244 93.9665 86.7745 90.8965 86.7845 90.8665L86.9344 90.8865C86.9344 90.9165 86.4844 93.9265 87.9944 95.7465C88.7344 96.6365 89.8145 97.1065 91.2145 97.1465V97.3065Z" fill="#1D417A"/>
<path d="M100.164 114.156C98.9144 115.506 97.2844 116.196 95.2944 116.216H95.2344C93.7544 116.216 92.5245 115.676 91.5845 114.606C88.5944 111.186 89.5444 103.186 89.8844 101.736C89.9344 102.156 89.9744 102.566 90.0044 102.966C89.8544 104.356 89.2744 111.156 91.9944 114.257C92.8344 115.217 93.9445 115.696 95.2845 115.686C97.1145 115.666 98.6244 115.036 99.7644 113.796C102.374 110.976 102.634 105.656 102.544 102.206C102.734 101.826 102.894 101.446 103.044 101.046C103.214 104.406 103.224 110.846 100.164 114.156Z" fill="#000012"/>
<path d="M103.044 101.036C102.904 101.426 102.734 101.816 102.544 102.196C102.514 101.186 102.454 100.337 102.414 99.7565C102.384 99.2965 102.364 99.0665 102.374 98.9565L102.914 98.9965C102.904 99.0765 102.934 99.3765 102.954 99.7265C102.984 100.076 103.014 100.516 103.044 101.036Z" fill="#000012"/>
<path d="M127.764 110.896C127.294 109.256 125.804 108.106 124.234 107.426C122.674 106.746 120.974 106.416 119.394 105.756C117.634 105.016 116.014 103.836 115.024 102.206C113.914 100.396 113.274 98.3565 112.364 96.4365C111.394 94.3965 109.884 93.3165 107.514 92.5865C105.424 91.9465 104.974 91.0865 104.044 89.1165C102.834 86.5565 101.214 85.6565 99.0145 85.0465C97.0945 84.5165 93.3945 84.3265 91.2745 85.0565C88.7445 85.9265 84.9145 87.6765 85.8045 91.6465C85.8345 91.7965 85.9644 92.2565 85.9744 92.2665C86.5944 94.1865 88.8145 95.4465 90.7945 94.9765C91.5545 94.7965 92.2545 94.3965 93.0145 94.2065C93.9845 93.9665 95.0445 94.0765 95.9445 94.5265C97.4645 95.2865 98.3745 96.8765 99.0645 98.4365C99.7545 99.9865 100.364 101.646 101.574 102.836C102.734 103.976 104.334 104.576 105.924 104.926C107.514 105.276 109.154 105.426 110.734 105.846C111.844 106.136 115.744 105.116 119.754 109.476C119.754 109.486 119.764 109.486 119.764 109.486C120.284 110.106 120.764 110.746 121.214 111.416C122.294 113.026 123.624 115.036 125.554 114.806C127.254 114.616 128.234 112.526 127.764 110.896Z" fill="#214580"/>
<path d="M97.5345 97.3765L96.4344 98.0065H96.4244L94.7545 98.9565L94.2944 99.2265C94.2944 99.1665 94.2944 99.1165 94.3044 99.0565C94.3144 98.9265 94.3245 98.7965 94.3445 98.6765C94.4145 98.2065 94.5445 97.8465 94.7145 97.5865C94.7345 97.5565 94.7545 97.5265 94.7745 97.4965C95.0145 97.1965 95.3145 97.0365 95.6245 96.9765C96.5245 96.8165 97.5345 97.3765 97.5345 97.3765Z" fill="white"/>
<path d="M96.4445 97.9965L96.4244 98.0065L94.7545 98.9565L94.2944 99.2265C94.2944 99.1665 94.2944 99.1165 94.3044 99.0565C94.3144 98.9265 94.3245 98.7965 94.3445 98.6765C94.4145 98.2065 94.5445 97.8465 94.7145 97.5865C94.7345 97.5565 94.7545 97.5265 94.7745 97.4965C95.0145 97.1965 95.3145 97.0365 95.6245 96.9765C96.0045 97.2065 96.2945 97.5665 96.4445 97.9965Z" fill="#18325C"/>
<path d="M92.5045 99.7565L91.4944 99.7365L91.0045 99.7265H90.9944L89.9944 99.7065L89.7145 99.6965C89.8045 99.5665 89.8845 99.4565 89.9645 99.3565C89.9845 99.3365 90.0045 99.3065 90.0245 99.2865C90.0345 99.2765 90.0444 99.2665 90.0444 99.2565C90.2544 99.0265 90.4545 98.8765 90.6345 98.7865C90.6645 98.7765 90.6845 98.7665 90.7145 98.7565C90.9045 98.6865 91.0844 98.6665 91.2444 98.6965C92.0144 98.8065 92.5045 99.7565 92.5045 99.7565Z" fill="white"/>
<path d="M91.4944 99.7365L91.0045 99.7265H90.9944L89.9944 99.7065L89.7145 99.6965C89.8245 99.5465 89.9245 99.4065 90.0245 99.2865C90.0345 99.2765 90.0444 99.2665 90.0444 99.2565C90.2544 99.0265 90.4545 98.8765 90.6345 98.7865C90.6645 98.7765 90.6845 98.7665 90.7145 98.7565C90.9045 98.6865 91.0844 98.6665 91.2444 98.6965C91.4944 98.9865 91.5744 99.3665 91.4944 99.7365Z" fill="#18325C"/>
<path d="M93.4645 103.156C93.1345 103.226 92.9045 103.106 92.8945 103.096L92.8544 103.076L93.0345 98.9765L93.1945 98.9865L93.0245 102.986C93.1845 103.046 93.7445 103.166 94.3845 102.236L94.5145 102.326C94.1245 102.876 93.7545 103.086 93.4645 103.156Z" fill="#F67D93"/>
<path d="M93.7244 97.4165C93.7244 97.4165 94.4745 95.4065 96.5345 96.1065C96.5345 96.1065 94.3544 95.1765 93.7244 97.4165Z" fill="#18325C"/>
<path d="M89.5745 98.3565C89.5745 98.3565 90.9045 97.0865 92.4445 98.1965C92.4445 98.1865 91.0245 96.8965 89.5745 98.3565Z" fill="#18325C"/>
<path d="M94.5145 104.356C94.3045 104.406 94.1144 104.406 93.9744 104.386L93.9944 104.226C94.3944 104.276 95.1645 104.186 95.8945 103.016L96.0245 103.096C95.5045 103.936 94.9545 104.256 94.5145 104.356Z" fill="#F6798F"/>
<path d="M91.3139 102.512C91.971 102.504 92.5006 102.255 92.4968 101.957C92.4929 101.659 91.9571 101.424 91.2999 101.432C90.6428 101.441 90.1132 101.689 90.117 101.988C90.1209 102.286 90.6567 102.521 91.3139 102.512Z" fill="#F67D93"/>
<path d="M96.6599 101.024C97.4784 100.576 97.9891 99.9333 97.8006 99.5894C97.6121 99.2456 96.7958 99.3305 95.9773 99.7792C95.1589 100.228 94.6482 100.87 94.8367 101.214C95.0252 101.558 95.8415 101.473 96.6599 101.024Z" fill="#F67D93"/>
<path d="M197.574 265.147C197.574 265.157 197.574 265.157 197.574 265.147C197.474 265.317 197.354 265.487 197.234 265.647C196.674 266.357 195.894 266.917 194.884 267.187C191.434 268.107 186.414 265.897 186.094 260.247C185.774 254.597 185.354 251.437 185.354 251.437C185.354 251.437 185.794 251.267 186.494 251.057C188.464 250.457 192.454 249.517 194.184 251.017C194.734 251.497 195.054 252.227 195.004 253.307C194.954 254.207 195.984 257.967 197.544 259.947C198.544 261.227 198.584 263.467 197.574 265.147Z" fill="#636363"/>
<path d="M197.234 265.646C196.674 266.356 195.894 266.917 194.884 267.187C191.434 268.107 186.414 265.897 186.094 260.247C185.774 254.597 185.354 251.437 185.354 251.437C185.354 251.437 185.794 251.267 186.494 251.057C186.714 254.437 187.194 260.736 187.924 262.606C188.934 265.196 193.454 268.136 197.234 265.646Z" fill="#303030"/>
<path d="M197.574 265.146C197.624 264.997 198.254 262.947 197.234 261.247C196.174 259.487 194.074 255.486 194.074 253.826C194.074 252.226 193.874 251.636 193.874 251.636H193.024L194.194 251.006C194.744 251.486 195.064 252.216 195.014 253.296C194.964 254.196 195.994 257.957 197.554 259.937C198.544 261.227 198.584 263.466 197.574 265.146Z" fill="#4D4D4D"/>
<path opacity="0.51" d="M191.984 264.646C192.014 264.976 194.074 265.976 195.574 265.486C197.074 265.006 196.074 264.216 195.304 264.646C193.764 265.486 191.714 264.096 191.984 264.646Z" fill="#7A7A7A"/>
<path d="M219.785 258.736C219.765 259.246 219.504 259.776 218.964 260.346C214.694 264.846 205.374 261.496 203.824 259.896C201.564 257.566 197.824 256.476 197.274 255.866C197.204 255.786 197.144 255.556 197.104 255.206C196.804 252.846 197.084 245.266 197.374 246.936C198.214 251.857 205.044 248.286 205.044 248.286C206.764 252.666 219.975 254.876 219.785 258.736Z" fill="#636363"/>
<path d="M219.784 258.736C219.764 259.246 219.504 259.776 218.964 260.346C214.694 264.846 205.374 261.496 203.824 259.896C201.564 257.566 197.824 256.477 197.274 255.867C197.204 255.787 197.144 255.556 197.104 255.206C197.904 255.376 198.924 255.656 200.054 256.096C203.374 257.406 204.574 259.627 207.004 260.617C209.864 261.797 217.414 263.106 219.784 258.736Z" fill="#303030"/>
<path opacity="0.51" d="M216.354 258.876C216.354 258.876 216.954 258.436 217.414 258.586C217.864 258.736 218.164 259.166 217.564 259.606C216.964 260.046 214.614 260.786 212.884 260.046C211.524 259.466 214.844 260.186 216.354 258.876Z" fill="#7A7A7A"/>
<path d="M206.344 199.416C205.854 199.856 215.554 246.946 215.554 246.946C214.754 247.636 213.504 248.557 211.814 249.277C209.314 250.337 207.184 250.396 205.624 250.426C201.444 250.496 197.924 249.386 195.504 248.326C195.424 232.026 195.344 215.716 195.264 199.416H206.344Z" fill="#709C89"/>
<path d="M196.464 194.486C196.994 194.726 197.404 250.036 197.404 250.036C196.754 250.846 195.634 252.026 193.934 252.946C191.514 254.256 189.284 254.306 187.744 254.326C182.994 254.376 179.264 252.467 177.354 251.277C176.384 232.017 178.304 204.416 177.334 185.156L196.464 194.486Z" fill="#7AA995"/>
<path d="M221.294 137.617C221.294 137.617 206.434 116.606 199.734 113.936C199.734 113.936 199.414 121.716 204.484 132.526C209.554 143.336 212.614 145.386 212.614 145.386C213.474 141.196 214.404 139.617 221.294 137.617Z" fill="#96CEB6"/>
<path d="M181.564 118.776C180.004 117.496 177.674 118.027 176.814 119.867C174.874 123.987 174.034 130.086 179.354 140.826C187.244 156.756 187.894 154.057 187.894 154.057C187.834 153.047 188.014 150.337 190.204 148.457C191.284 147.527 194.864 146.596 196.724 146.846C196.744 146.846 196.794 146.856 196.844 146.826C197.994 146.116 187.554 126.837 185.954 123.957C184.684 121.667 182.994 119.946 181.564 118.776Z" fill="#96CEB6"/>
<path d="M222.974 211.606C217.904 214.336 209.494 218.056 198.504 219.386C194.584 219.866 190.934 219.966 187.604 219.837C186.404 215.237 182.564 201.576 181.764 198.126C182.084 202.076 182.044 219.396 182.044 219.396L181.744 219.356C178.944 219.016 176.504 218.536 174.474 218.066L174.084 184.896C173.824 180.316 175.494 158.537 177.024 150.587C178.414 143.357 174.384 135.346 173.684 127.956C173.674 127.856 173.664 127.756 173.654 127.656C173.634 127.376 173.614 127.086 173.594 126.806C173.594 126.716 173.584 126.616 173.584 126.526C173.574 126.276 173.574 126.026 173.574 125.776C173.614 119.896 177.164 115.936 182.344 113.216C182.434 113.166 182.534 113.126 182.624 113.076C183.024 112.876 183.514 112.906 184.074 113.076C185.994 113.646 188.594 115.786 190.064 114.956C191.904 113.916 193.644 113.397 195.244 113.257C203.414 112.537 208.314 121.606 208.314 121.606C198.834 136.466 202.494 158.957 208.514 177.747C213.164 192.127 218.074 203.796 222.974 211.606Z" fill="#96CEB6"/>
<path d="M191.714 116.876L191.304 121.276L190.484 116.876C190.484 116.876 185.614 116.186 184.234 115.556C183.114 115.046 183.644 113.716 184.094 113.066C186.014 113.636 188.614 115.776 190.084 114.946C191.924 113.906 193.664 113.386 195.264 113.246C195.724 113.376 196.054 113.596 196.154 113.936C196.684 115.686 191.714 116.876 191.714 116.876Z" fill="#80C1A7"/>
<path d="M184.754 114.136C191.174 117.256 195.424 114.257 195.424 114.257C194.844 113.317 194.774 113.256 194.404 112.446C194.044 111.676 193.714 110.906 193.444 110.196C192.884 108.716 192.584 107.556 192.584 107.556L183.664 105.476H183.654L183.664 105.507C183.724 105.827 184.054 107.286 184.334 108.576C184.554 109.576 184.744 110.466 184.764 110.626C185.094 113.766 184.754 114.136 184.754 114.136Z" fill="#F6ACAC"/>
<path d="M181.234 85.6565C181.234 85.6565 175.024 99.6665 183.144 104.436L181.234 85.6565Z" fill="#80C1A7"/>
<path d="M184.344 108.586C186.644 111.966 190.834 113.386 194.404 112.456C194.034 111.696 193.714 110.916 193.444 110.206C192.884 108.726 192.584 107.566 192.584 107.566L183.664 105.486C183.664 105.496 183.664 105.506 183.664 105.516C183.724 105.836 184.054 107.296 184.344 108.586Z" fill="#F49897"/>
<path d="M181.584 101.956C181.764 105.156 184.714 108.836 186.414 109.806C191.994 112.846 197.924 110.416 197.694 106.976C197.574 105.136 197.614 101.366 197.864 97.5965C197.904 97.0265 197.944 96.4665 197.994 95.9065C198.014 95.6865 198.034 95.4765 198.054 95.2565C198.454 90.8065 195.154 88.2565 194.914 87.9265C193.644 86.1065 191.514 85.7365 189.394 86.2265C188.504 86.4365 187.614 86.7965 186.794 87.2565C186.494 87.4265 186.194 87.6165 185.914 87.8165C185.104 88.3865 184.384 89.0665 183.854 89.7965C183.664 90.0565 183.494 90.3365 183.354 90.6265C182.304 92.7565 182.414 95.6165 182.634 97.4665C182.774 98.5765 182.954 99.3265 182.954 99.3265C182.954 99.3265 182.834 99.1365 182.624 98.8765C182.374 98.5565 181.994 98.1265 181.564 97.7965C181.524 97.7665 181.494 97.7365 181.454 97.7165C180.644 97.1565 179.684 96.9965 178.984 98.5365C177.534 101.696 181.584 101.956 181.584 101.956Z" fill="#F6ACAC"/>
<path d="M183.344 90.6265C182.294 92.7565 182.404 95.6165 182.624 97.4665C191.224 94.9665 195.814 96.4265 197.864 97.5965C197.904 97.0265 197.944 96.4665 197.994 95.9065C198.014 95.6865 198.034 95.4765 198.054 95.2565C198.454 90.8065 195.154 88.2565 194.914 87.9265C193.644 86.1065 191.514 85.7365 189.394 86.2265C188.554 86.5565 187.674 86.9065 186.794 87.2565C186.494 87.4265 186.194 87.6165 185.914 87.8165C185.104 88.3865 184.384 89.0665 183.854 89.7965C183.654 90.0565 183.484 90.3365 183.344 90.6265Z" fill="#F49897"/>
<path d="M185.184 90.6165C185.184 90.6565 185.174 90.6965 185.174 90.7465C184.914 93.1665 183.124 100.226 183.124 100.226C182.634 98.8765 181.824 97.9865 181.344 97.6965C179.724 95.3165 180.144 89.5965 180.914 87.3365C181.644 85.2065 185.094 85.9865 185.484 86.0865C185.504 86.0965 185.524 86.0965 185.524 86.0965C190.944 82.2865 198.204 84.9865 198.774 88.3465C201.264 102.906 185.184 90.6165 185.184 90.6165Z" fill="#18325C"/>
<path d="M198.674 92.8465C198.864 93.1465 201.384 97.1465 197.644 102.316L198.044 93.3765L198.674 92.8465Z" fill="#18325C"/>
<path d="M188.674 95.0065C184.704 92.1765 184.724 89.4065 184.724 89.3765H184.884C184.884 89.4065 184.874 92.1065 188.774 94.8765L188.674 95.0065Z" fill="#262F59"/>
<path d="M190.104 101.317L189.384 101.126L187.474 100.617L186.804 100.436H186.794L185.094 99.9865C185.094 99.9865 186.304 99.0365 187.574 99.0065C187.804 98.9965 188.034 99.0265 188.264 99.0865C188.484 99.1465 188.694 99.2465 188.904 99.3965C188.944 99.4265 188.984 99.4565 189.024 99.4865C189.264 99.6865 189.484 99.9565 189.684 100.306C189.754 100.426 189.814 100.546 189.864 100.686C189.924 100.826 189.984 100.976 190.034 101.126C190.064 101.186 190.084 101.247 190.104 101.317Z" fill="white"/>
<path d="M197.094 100.436L196.634 100.526L194.984 100.866H194.974L194.174 101.026L194.064 101.046L192.504 101.366C192.504 101.366 192.994 99.7165 194.194 99.2965C194.454 99.2065 194.764 99.1765 195.104 99.2365C195.154 99.2465 195.194 99.2565 195.244 99.2665C195.444 99.3165 195.664 99.3965 195.894 99.5265C196.054 99.6065 196.214 99.7065 196.384 99.8365C196.384 99.8365 196.394 99.8365 196.394 99.8465C196.414 99.8565 196.424 99.8765 196.444 99.8865C196.484 99.9165 196.524 99.9465 196.564 99.9765C196.734 100.106 196.914 100.266 197.094 100.436Z" fill="white"/>
<path d="M192.124 105.356C192.494 105.356 192.704 105.176 192.724 105.156L192.764 105.117L191.584 100.726L191.414 100.776L192.564 105.056C192.414 105.156 191.834 105.426 190.934 104.576L190.814 104.706C191.354 105.216 191.804 105.356 192.124 105.356Z" fill="#F6798F"/>
<path d="M189.924 98.8165C189.924 98.8165 187.934 97.0165 185.904 98.2765C185.904 98.2765 187.974 96.3565 189.924 98.8165Z" fill="#18325C"/>
<path d="M196.334 98.4565C196.334 98.4565 193.824 97.4365 192.254 98.9965C192.254 98.9965 193.444 96.8365 196.334 98.4565Z" fill="#18325C"/>
<path d="M191.294 106.906C191.534 106.906 191.724 106.856 191.874 106.806L191.814 106.646C191.404 106.796 190.554 106.886 189.494 105.806L189.374 105.926C190.134 106.696 190.804 106.906 191.294 106.906Z" fill="#F6798F"/>
<path d="M194.821 103.503C195.711 103.309 196.366 102.846 196.284 102.468C196.202 102.09 195.413 101.941 194.523 102.135C193.633 102.328 192.977 102.792 193.06 103.169C193.142 103.547 193.93 103.696 194.821 103.503Z" fill="#F67D93"/>
<path d="M190.159 103.635C190.282 103.216 189.586 102.644 188.606 102.357C187.625 102.07 186.731 102.177 186.608 102.596C186.486 103.015 187.181 103.587 188.162 103.874C189.142 104.161 190.037 104.054 190.159 103.635Z" fill="#F67D93"/>
<path d="M190.104 101.316L189.384 101.126L187.474 100.617L186.804 100.436H186.794C186.844 100.446 188.434 98.5765 189.684 100.306C189.754 100.426 189.814 100.546 189.864 100.686C189.924 100.826 189.984 100.976 190.034 101.126C190.064 101.186 190.084 101.246 190.104 101.316Z" fill="#18325C"/>
<path d="M197.094 100.436L196.634 100.526L194.984 100.867H194.974L194.174 101.026L194.064 101.046C194.244 100.526 194.834 99.5665 195.894 99.5165C196.054 99.5965 196.214 99.6965 196.384 99.8265C196.384 99.8265 196.394 99.8265 196.394 99.8365C196.414 99.8465 196.424 99.8665 196.444 99.8765C196.484 99.9065 196.524 99.9365 196.564 99.9665C196.734 100.106 196.914 100.266 197.094 100.436Z" fill="#18325C"/>
<path d="M182.964 99.5765C182.964 99.5765 182.834 99.4965 182.854 99.5965C182.994 99.8865 183.744 101.507 184.244 102.097L184.394 101.936C183.684 101.126 183.244 100.196 182.964 99.5765Z" fill="#80C1A7"/>
<path d="M181.244 101.916L183.264 105.507L183.444 105.416L181.584 101.956L181.244 101.916Z" fill="#80C1A7"/>
<path d="M181.244 101.916L181.234 101.906L181.504 101.946L181.244 101.916Z" fill="#60A1F5"/>
<path d="M182.794 105.776C184.234 109.666 186.964 111.306 191.774 111.666C195.124 111.916 196.624 110.727 197.264 109.367C197.664 108.527 197.734 107.626 197.704 106.976C197.624 105.276 197.654 102.316 197.654 102.316C197.654 102.316 189.754 105.496 185.224 102.536C185.164 102.496 185.104 102.456 185.044 102.416C184.704 102.176 184.394 101.906 184.094 101.596C184.094 101.596 182.774 105.686 182.794 105.776Z" fill="#94CCB4"/>
<path d="M199.454 98.5465C199.594 98.7865 201.464 92.6965 198.994 87.4465C197.774 84.8465 195.204 83.1765 192.374 83.0965C189.194 83.0065 184.454 83.3365 181.244 85.6465C181.244 85.6465 177.674 92.6765 181.314 97.7065C181.314 97.7165 195.354 91.7065 199.454 98.5465Z" fill="#96CEB6"/>
<path d="M182.794 105.776C184.234 109.666 186.964 111.306 191.774 111.666C195.124 111.916 196.624 110.727 197.264 109.367C186.064 113.497 185.164 105.686 185.224 102.536C185.164 102.496 185.104 102.456 185.044 102.416C184.704 102.176 184.394 101.906 184.094 101.596C184.094 101.596 182.774 105.686 182.794 105.776Z" fill="#80C1A7"/>
<path d="M214.764 161.326L214.334 162.337L213.874 163.396L213.535 164.196L212.504 163.796L212.054 163.617L199.644 158.747L187.924 154.146C187.924 154.146 187.844 153.846 187.834 153.356C187.794 151.646 188.584 147.666 196.734 146.826L197.155 147.166L203.345 152.136L213.634 160.406L214.764 161.326Z" fill="#F6ACAC"/>
<path d="M221.484 136.686C221.484 136.686 220.774 135.636 218.744 136.346C216.724 137.056 210.724 139.906 211.374 144.926C211.384 144.926 214.064 138.026 221.484 136.686Z" fill="#80C1A7"/>
<path d="M221.704 138.737C221.704 138.737 222.904 137.447 221.824 136.787C220.744 136.127 214.344 138.186 212.184 141.976C210.024 145.766 212.364 146.257 214.084 144.987L213.324 143.906C213.324 143.916 216.234 139.097 221.704 138.737Z" fill="#7AA995"/>
<path d="M196.744 145.666C196.744 145.666 194.364 144.556 190.574 146.886C186.784 149.216 185.864 152.926 186.874 154.046C186.874 154.046 189.684 145.786 196.744 145.666Z" fill="#80C1A7"/>
<path d="M197.424 147.386C197.424 147.386 198.124 146.056 196.754 145.666C195.384 145.276 191.024 146.486 189.114 149.066C187.204 151.646 185.304 155.556 188.794 154.506L187.924 154.156C187.914 154.146 190.074 147.406 197.424 147.386Z" fill="#7AA995"/>
<path d="M210.614 143.217C210.424 142.887 207.514 139.246 204.654 133.776C203.634 131.816 202.544 147.216 202.864 151.756C202.864 151.756 201.204 135.036 203.084 129.297C204.324 125.527 210.614 143.217 210.614 143.217Z" fill="#80C1A7"/>
<path d="M195.154 145.656C195.154 145.656 188.474 128.356 184.234 121.436C184.234 121.436 194.944 137.626 196.744 145.666C196.744 145.666 196.374 145.486 195.154 145.656Z" fill="#80C1A7"/>
<path d="M178.494 162.796C173.154 184.616 179.904 212.507 181.744 219.367C178.944 219.027 176.504 218.546 174.474 218.076L174.084 184.906C173.824 180.326 175.494 158.546 177.024 150.596C178.494 143.376 174.394 135.356 173.684 127.966C173.674 127.866 173.664 127.766 173.654 127.666C173.634 127.386 173.614 127.096 173.594 126.816C173.594 126.726 173.584 126.626 173.584 126.536C173.574 126.286 173.574 126.036 173.574 125.786C173.614 119.906 177.164 115.946 182.344 113.226C180.804 114.316 173.554 120.256 177.314 133.046C180.454 143.736 181.814 147.346 180.584 154.316C183.014 154.096 187.194 155.916 187.344 155.976C183.484 154.806 179.774 158.036 179.774 158.036C185.094 157.556 188.974 158.317 191.524 159.187C193.994 160.037 195.214 160.997 195.284 161.057C189.514 157.547 179.374 159.567 179.294 159.867C179.074 160.777 178.754 161.736 178.494 162.796Z" fill="#80C1A7"/>
<path d="M204.604 132.147C204.624 132.217 204.644 132.286 204.664 132.356C204.664 132.366 204.664 132.376 204.674 132.386C204.684 132.446 204.704 132.507 204.724 132.566C208.734 147.066 223.114 164.256 223.114 164.256C223.114 164.256 243.574 157.517 254.624 147.587C254.674 147.537 254.734 147.487 254.784 147.437C254.824 147.407 254.854 147.367 254.894 147.337C254.914 147.317 254.934 147.306 254.944 147.286C261.074 141.646 264.124 134.996 258.714 127.986C247.134 112.976 233.294 127.816 233.294 127.816C233.294 127.816 229.184 107.806 211.574 114.406C203.574 117.396 202.544 124.357 204.604 132.147Z" fill="#F25071"/>
<path d="M254.884 147.337L249.214 145.646C249.434 145.826 249.704 145.967 249.994 146.057L254.774 147.437C254.814 147.407 254.844 147.377 254.884 147.337Z" fill="#F25071"/>
<path d="M247.114 142.797L246.174 144.747L246.354 144.797L248.824 145.536L249.214 145.656C248.824 145.336 248.564 144.896 248.494 144.406L248.304 143.017C248.214 142.437 247.364 142.277 247.114 142.797Z" fill="#F25071"/>
<path d="M244.764 144.326L244.594 144.277L243.814 148.206C243.744 148.546 244.264 148.726 244.424 148.406L246.194 144.747L246.004 144.696L244.764 144.326Z" fill="#F25071"/>
<path d="M241.994 143.497L242.274 143.576L244.414 144.217L244.584 144.266L245.654 138.906C245.714 138.636 245.304 138.486 245.164 138.736L243.074 142.576C242.834 143.016 242.454 143.327 241.994 143.497Z" fill="#F25071"/>
<path d="M231.094 140.257L230.854 140.186C231.094 140.706 231.584 141.126 232.194 141.286L240.544 143.557C241.044 143.687 241.544 143.667 241.984 143.497L241.664 143.406L231.094 140.257Z" fill="#F25071"/>
<path d="M230.414 136.616L229.074 139.646L229.254 139.696L230.624 140.106L230.854 140.176C230.714 139.876 230.654 139.546 230.694 139.206L230.994 136.776C231.024 136.466 230.544 136.326 230.414 136.616Z" fill="#F25071"/>
<path d="M227.345 139.136L227.174 139.086L226.634 142.586C226.544 143.166 227.424 143.426 227.664 142.896L229.095 139.666L228.914 139.617L227.345 139.136Z" fill="#F25071"/>
<path d="M227.614 131.177L224.254 138.216L224.434 138.266L226.994 139.026L227.174 139.076L228.354 131.397C228.414 130.997 227.794 130.797 227.614 131.177Z" fill="#F25071"/>
<path d="M221.594 137.426L221.414 137.376L220.744 142.826C220.664 143.456 221.614 143.736 221.884 143.166L224.244 138.216L224.064 138.166L221.594 137.426Z" fill="#F25071"/>
<path d="M221.374 128.196L217.934 136.336L218.104 136.386L221.234 137.317L221.414 137.367L222.504 128.546C222.584 127.926 221.664 127.636 221.374 128.196Z" fill="#F25071"/>
<path d="M214.064 135.176L213.504 135.007C214.204 135.367 214.644 136.086 214.574 136.836L214.034 143.367C213.994 143.827 214.684 144.007 214.864 143.587L217.924 136.336L217.744 136.286L214.064 135.176Z" fill="#F25071"/>
<path d="M204.654 132.356C204.654 132.366 204.654 132.376 204.664 132.386L213.504 135.016C213.384 134.946 213.254 134.896 213.114 134.856L204.654 132.356Z" fill="#F25071"/>
<path d="M204.604 132.147C204.624 132.217 204.644 132.286 204.664 132.356C204.664 132.366 204.664 132.376 204.674 132.386C204.684 132.446 204.704 132.507 204.724 132.567L213.064 135.037C213.904 135.287 214.464 136.036 214.394 136.836L213.854 143.367C213.834 143.657 214.014 143.907 214.304 143.997L214.324 144.006C214.624 144.086 214.914 143.947 215.034 143.677L218.104 136.406L221.534 128.287C221.634 128.087 221.864 128.077 222.014 128.127C222.174 128.177 222.344 128.316 222.314 128.546L221.234 137.336L220.554 142.816C220.514 143.186 220.744 143.526 221.124 143.636H221.134C221.514 143.746 221.884 143.586 222.044 143.256L224.424 138.276L227.774 131.266C227.834 131.126 227.994 131.176 228.014 131.186C228.044 131.196 228.184 131.246 228.164 131.386L226.984 139.037L226.444 142.556C226.394 142.906 226.604 143.227 226.964 143.337C227.324 143.437 227.674 143.297 227.814 142.967L229.254 139.707L230.584 136.696C230.614 136.626 230.694 136.647 230.714 136.647C230.734 136.657 230.814 136.677 230.804 136.757L230.504 139.186C230.464 139.506 230.514 139.816 230.624 140.106C230.864 140.736 231.424 141.257 232.144 141.457L240.494 143.726C241.114 143.896 241.744 143.826 242.264 143.576C242.664 143.376 243.004 143.066 243.224 142.666L245.314 138.826C245.334 138.776 245.394 138.796 245.414 138.806C245.434 138.816 245.474 138.837 245.464 138.877L244.394 144.226L243.604 148.177C243.554 148.417 243.694 148.647 243.944 148.737C244.194 148.827 244.444 148.727 244.554 148.497L246.334 144.807L247.264 142.886C247.354 142.696 247.554 142.657 247.714 142.677C247.874 142.697 248.064 142.816 248.104 143.036L248.294 144.427C248.354 144.837 248.534 145.226 248.814 145.536C249.104 145.856 249.484 146.107 249.934 146.237L254.604 147.587C254.654 147.537 254.714 147.487 254.764 147.437C254.804 147.407 254.834 147.367 254.874 147.337C254.894 147.317 254.914 147.306 254.924 147.286L250.034 145.876C249.294 145.666 248.754 145.077 248.664 144.367L248.464 142.976C248.414 142.626 248.134 142.356 247.774 142.296C247.414 142.236 247.094 142.397 246.944 142.707L246.004 144.696L244.254 148.326C244.214 148.416 244.104 148.386 244.084 148.376C244.054 148.366 243.964 148.327 243.984 148.237L244.764 144.316L245.834 138.936C245.874 138.726 245.764 138.526 245.544 138.446C245.324 138.366 245.114 138.446 245.004 138.636L242.914 142.476C242.654 142.946 242.204 143.277 241.674 143.397C241.334 143.477 240.964 143.467 240.594 143.367L232.244 141.097L232.214 141.086C231.724 140.946 231.334 140.637 231.094 140.237C230.914 139.937 230.824 139.576 230.864 139.216L231.164 136.787C231.194 136.547 231.044 136.346 230.814 136.276C230.574 136.206 230.344 136.316 230.254 136.526L228.904 139.586L227.484 142.796C227.404 142.986 227.204 143.007 227.064 142.957C226.924 142.917 226.774 142.796 226.804 142.586L227.334 139.117L228.524 131.416C228.564 131.146 228.404 130.886 228.124 130.806C227.844 130.716 227.564 130.826 227.444 131.086L224.074 138.156L221.724 143.076C221.624 143.286 221.404 143.306 221.244 143.266H221.234C221.074 143.216 220.894 143.076 220.924 142.846L221.594 137.427L222.684 128.576C222.724 128.206 222.504 127.877 222.134 127.757C221.814 127.657 221.414 127.726 221.214 128.106L217.764 136.276L214.714 143.506C214.664 143.636 214.524 143.646 214.434 143.626C214.334 143.606 214.224 143.526 214.234 143.386L214.774 136.856C214.824 136.216 214.554 135.607 214.084 135.177C213.834 134.947 213.524 134.776 213.184 134.666L204.604 132.147Z" fill="white"/>
<path d="M230.184 161.586C229.924 161.976 229.144 162.646 228.354 163.296C228.154 163.466 227.944 163.626 227.744 163.786C226.654 164.656 224.874 165.176 223.744 165.126C219.284 164.916 213.084 164.416 211.944 164.236C211.844 164.216 211.774 164.206 211.764 164.196L212.054 163.616L212.294 163.126L213.634 160.406L214.314 159.016L216.644 160.476C216.644 160.476 222.014 158.386 224.094 158.966C224.334 159.036 225.134 159.056 225.314 158.966C226.114 158.576 226.114 159.736 225.454 160.206C224.744 160.706 222.794 160.396 222.634 161.936C222.584 162.446 223.064 162.726 223.724 162.866C224.404 162.786 226.534 163.096 228.704 161.446C230.184 160.626 230.454 161.176 230.184 161.586Z" fill="#63B3B8"/>
<path d="M216.644 160.486L214.334 162.337L213.154 163.286L212.514 163.807L211.964 164.247L211.814 164.226L199.724 158.926C199.704 158.866 199.674 158.807 199.654 158.747C199.504 158.347 199.404 157.966 199.344 157.606C198.684 153.696 202.964 152.276 203.354 152.136L214.324 159.016L216.644 160.486Z" fill="#63B3B8"/>
<path opacity="0.12" d="M228.354 163.296C228.154 163.466 227.944 163.626 227.744 163.786C226.654 164.656 224.874 165.176 223.744 165.126C219.284 164.916 213.084 164.416 211.944 164.236L211.794 164.217L199.704 158.916C199.684 158.856 199.654 158.796 199.634 158.736L187.914 154.136C187.914 153.996 187.924 153.746 188.054 153.456C188.174 153.206 188.324 153.046 188.424 152.956C192.054 154.506 195.684 156.046 199.314 157.596L212.284 163.117C212.284 163.117 212.594 163.176 213.134 163.266C213.344 163.306 213.584 163.346 213.854 163.386C217.254 163.936 225.144 164.946 228.354 163.296Z" fill="#427A7D"/>
<path d="M247.104 127.826C247.104 127.826 248.374 129.346 248.994 127.526C249.124 127.696 249.634 127.956 250.064 127.836C250.714 127.436 250.654 126.306 251.204 125.076C251.354 124.756 251.404 124.626 251.424 124.576C250.724 126.616 250.884 127.366 251.024 127.636C251.184 127.766 251.394 127.836 251.684 127.756C251.914 127.696 252.024 127.146 252.184 126.636C252.384 126.006 252.834 125.516 252.994 124.866C253.144 124.266 253.254 122.766 252.974 122.076C252.404 120.706 251.004 120.946 250.964 120.916C250.494 120.466 250.124 120.086 249.004 120.336C248.594 120.426 248.394 120.066 247.434 119.876C246.934 119.776 246.274 120.036 245.994 120.076C245.404 120.176 244.854 120.006 244.194 120.046C243.764 120.066 243.054 120.406 243.054 121.016C243.054 121.136 243.054 121.266 243.054 121.396C243.634 122.266 244.004 123.066 244.284 123.846C244.294 123.866 244.294 123.886 244.304 123.896C244.384 124.106 244.454 124.306 244.514 124.516C244.514 124.516 245.294 127.236 245.364 128.126C245.494 129.276 247.014 129.156 247.104 127.826Z" fill="#63B3B8"/>
<path d="M247.104 127.826C247.104 127.826 248.374 129.346 248.994 127.526C249.014 127.836 249.394 128.026 249.794 127.976C249.844 127.946 249.904 127.916 249.974 127.886C250.004 127.876 250.034 127.856 250.064 127.836C250.714 127.436 250.654 126.306 251.204 125.076C251.354 124.756 251.404 124.626 251.424 124.576C250.724 126.616 250.884 127.366 251.024 127.636C251.184 127.766 251.394 127.836 251.684 127.756C251.914 127.696 252.024 127.146 252.184 126.636C252.384 126.006 252.844 125.516 252.994 124.866C253.144 124.266 252.694 123.416 251.584 123.946C251.714 123.886 251.174 123.536 250.394 123.456C249.624 123.376 249.264 123.626 249.074 123.706C248.074 123.196 246.764 123.596 246.764 123.596L246.394 123.776C245.734 123.536 244.834 123.456 244.304 123.846C244.284 123.856 244.314 123.886 244.324 123.896C244.404 124.106 244.474 124.306 244.534 124.516C244.534 124.516 245.314 127.236 245.384 128.126C245.494 129.276 247.014 129.156 247.104 127.826Z" fill="#58A2A6"/>
<path d="M272.754 245.146C272.114 245.426 271.464 245.676 270.814 245.886C266.654 247.206 262.304 246.996 258.444 245.506C253.984 243.786 250.164 240.366 248.074 235.646L232.544 200.676C228.354 191.246 232.614 180.186 242.044 175.996C246.764 173.896 251.884 173.916 256.354 175.636C258.134 176.316 259.814 177.286 261.324 178.496C263.594 180.306 265.474 182.666 266.724 185.496L282.254 220.466C286.444 229.896 282.184 240.956 272.754 245.146Z" fill="#F0EAF8"/>
<path d="M274.314 202.586L240.134 217.766L232.544 200.676C228.354 191.246 232.614 180.186 242.044 175.996C246.764 173.896 251.884 173.916 256.354 175.636C260.824 177.356 264.634 180.776 266.724 185.496L274.314 202.586Z" fill="#A875F9"/>
<path opacity="0.07" d="M270.814 245.876C266.654 247.196 262.304 246.986 258.444 245.496C253.984 243.776 250.164 240.356 248.074 235.636L232.544 200.666C228.354 191.236 232.614 180.176 242.044 175.986C246.764 173.886 251.884 173.906 256.354 175.626C258.134 176.306 259.814 177.276 261.324 178.486C252.084 187.876 240.804 209.216 270.814 245.876Z" fill="black"/>
<path opacity="0.28" d="M277.375 228.753C279.132 227.973 276.763 218.802 272.085 208.268C267.406 197.734 262.19 189.827 260.433 190.607C258.677 191.387 261.046 200.559 265.724 211.093C270.402 221.627 275.619 229.534 277.375 228.753Z" fill="white"/>
<path d="M25.4545 97.1965C25.2245 96.9565 25.0044 96.7065 24.8044 96.4465C23.5244 94.7965 22.9044 92.8165 22.9444 90.8365C22.9844 88.5565 23.8845 86.2765 25.6545 84.5665L38.7845 71.8465C42.3245 68.4165 47.9844 68.5065 51.4144 72.0465C53.1344 73.8165 53.9644 76.1165 53.9244 78.4065C53.9144 79.3165 53.7545 80.2265 53.4645 81.1065C53.0245 82.4165 52.2745 83.6565 51.2145 84.6765L38.0845 97.3965C34.5445 100.827 28.8845 100.736 25.4545 97.1965Z" fill="#F0EAF8"/>
<path d="M44.7944 90.8965L32.3644 78.0665L38.7745 71.8565C42.3145 68.4265 47.9745 68.5165 51.4045 72.0565C53.1245 73.8265 53.9544 76.1265 53.9144 78.4165C53.8744 80.6965 52.9745 82.9765 51.2045 84.6865L44.7944 90.8965Z" fill="#A875F9"/>
<path opacity="0.07" d="M24.8044 96.4465C23.5244 94.7965 22.9044 92.8165 22.9444 90.8365C22.9844 88.5565 23.8845 86.2765 25.6545 84.5665L38.7845 71.8465C42.3245 68.4165 47.9844 68.5065 51.4144 72.0465C53.1344 73.8165 53.9644 76.1165 53.9244 78.4065C53.9144 79.3165 53.7545 80.2265 53.4645 81.1065C47.7345 78.5065 36.3044 76.9565 24.8044 96.4465Z" fill="black"/>
<path opacity="0.28" d="M41.8389 90.8448C45.7936 87.0135 48.4823 83.3739 47.8443 82.7155C47.2064 82.057 43.4835 84.6291 39.5289 88.4604C35.5743 92.2916 32.8855 95.9313 33.5234 96.5897C34.1613 97.2482 37.8843 94.6761 41.8389 90.8448Z" fill="white"/>
<path d="M241.044 207.516C241.564 207.746 242.064 208.006 242.544 208.286C245.604 210.076 247.834 212.816 249.024 215.946C250.414 219.566 250.424 223.726 248.714 227.546L236.064 255.896C232.654 263.546 223.674 266.976 216.024 263.566C212.194 261.856 209.434 258.756 208.044 255.136C207.494 253.696 207.154 252.156 207.064 250.586C206.924 248.236 207.334 245.826 208.354 243.526L221.004 215.187C224.424 207.547 233.394 204.106 241.044 207.516Z" fill="#F0EAF8"/>
<path d="M214.534 229.687L242.234 242.057L236.054 255.906C232.644 263.556 223.664 266.986 216.014 263.576C212.184 261.866 209.424 258.766 208.034 255.146C206.644 251.527 206.634 247.366 208.344 243.546L214.534 229.687Z" fill="#F9617D"/>
<path opacity="0.07" d="M242.544 208.286C245.604 210.076 247.834 212.816 249.024 215.946C250.414 219.566 250.424 223.726 248.714 227.546L236.064 255.896C232.654 263.547 223.674 266.976 216.024 263.566C212.194 261.856 209.434 258.756 208.044 255.136C207.494 253.696 207.154 252.157 207.064 250.587C217.734 251.067 236.724 246.286 242.544 208.286Z" fill="black"/>
<path opacity="0.28" d="M224.304 230.23C228.115 221.692 230.052 214.256 228.63 213.621C227.208 212.987 222.966 219.393 219.154 227.931C215.343 236.468 213.407 243.904 214.829 244.539C216.251 245.174 220.493 238.767 224.304 230.23Z" fill="white"/>
<path d="M140.794 93.8365C138.924 94.5665 136.614 93.2265 136.114 91.1165C135.904 90.2465 136.044 89.1665 136.724 88.6665C135.574 88.2265 135.394 86.1565 136.444 85.4865C135.614 83.9265 136.094 81.8665 137.104 80.4365C137.734 79.5465 138.604 78.7865 139.634 78.6665C140.664 78.5465 141.795 79.2465 141.965 80.3565C142.025 78.9165 143.824 77.9865 144.874 78.8665C145.154 77.5365 146.344 76.7065 147.454 76.0665C148.564 75.4265 150.334 74.7865 153.184 75.9165C154.324 76.3665 155.334 77.2465 156.024 78.3365C156.725 79.4265 156.915 81.0065 156.155 82.0465C157.055 81.5565 158.225 81.4365 159.024 82.0965C159.834 82.7565 159.944 84.3465 159.074 84.8965C160.514 84.5365 162.124 85.4565 162.684 86.9465C163.244 88.4365 162.684 90.3365 161.434 91.1865C162.434 91.6165 162.445 93.3265 161.655 94.1265C160.865 94.9265 159.684 94.9965 158.614 94.8665C156.964 94.6665 155.354 94.0565 153.934 93.1165C153.734 94.2965 152.635 95.1165 151.535 95.1665C150.445 95.2165 149.394 94.6165 148.584 93.8065C148.184 95.3465 146.445 96.2765 145.095 95.6765C144.355 95.3465 143.794 94.6665 143.144 94.1665C142.484 93.6665 141.585 93.3465 140.905 93.8165" fill="#85483C"/>
<path d="M183.244 198.717C176.214 201.607 162.764 204.406 147.204 204.406C133.894 204.406 123.114 202.657 116.364 200.247C119.134 193.077 122.654 181.326 124.554 168.117C125.634 160.627 125.804 154.496 126.064 148.596C126.574 136.796 124.644 117.156 126.614 112.316C126.614 112.316 138.724 110.776 143.574 107.316C149.134 113.366 151.344 107.576 151.344 107.576C151.904 107.776 154.354 108.956 154.884 109.266C158.334 110.916 166.264 114.656 168.914 115.446C167.954 126.956 165.004 136.816 166.044 149.986C167.374 166.876 179.704 181.217 183.244 198.717Z" fill="#D2D9E0"/>
<path d="M182.144 265.767C182.114 266.307 181.824 266.877 181.214 267.497C176.364 272.307 165.784 268.727 164.014 267.017C161.444 264.527 157.204 263.357 156.574 262.717C156.494 262.637 156.434 262.387 156.384 262.017C156.044 259.497 156.364 251.397 156.694 253.187C157.644 258.447 165.404 254.626 165.404 254.626C167.354 259.286 182.364 261.647 182.144 265.767Z" fill="#3F3F3F"/>
<path d="M142.964 272.106C142.844 272.296 142.714 272.466 142.574 272.636C141.944 273.396 141.054 273.986 139.904 274.276C135.984 275.256 130.284 272.896 129.924 266.866C129.564 260.826 129.084 257.446 129.084 257.446C129.084 257.446 129.584 257.266 130.374 257.046C132.604 256.406 137.144 255.396 139.104 256.996C139.734 257.506 140.094 258.296 140.034 259.446C139.984 260.416 141.144 264.426 142.924 266.546C144.064 267.906 144.114 270.306 142.964 272.106Z" fill="#3F3F3F"/>
<path d="M142.574 272.636C141.944 273.396 141.054 273.987 139.904 274.277C135.984 275.257 130.284 272.897 129.924 266.867C129.564 260.827 129.084 257.446 129.084 257.446C129.084 257.446 129.584 257.266 130.374 257.046C130.624 260.656 131.174 267.386 132.004 269.386C133.144 272.156 138.274 275.296 142.574 272.636Z" fill="#303030"/>
<path d="M182.144 265.766C182.114 266.306 181.824 266.877 181.214 267.497C176.364 272.307 165.784 268.726 164.014 267.016C161.444 264.526 157.204 263.357 156.574 262.717C156.494 262.637 156.434 262.386 156.384 262.016C157.294 262.196 158.444 262.497 159.734 262.967C163.504 264.367 164.864 266.736 167.624 267.796C170.874 269.036 179.454 270.436 182.144 265.766Z" fill="#303030"/>
<path d="M173.274 260.786C176.534 261.876 179.934 263.486 180.474 264.836C181.264 266.796 178.314 267.946 176.354 267.946C173.784 267.946 171.564 266.866 170.354 264.676C168.994 262.186 170.534 260.166 173.274 260.786Z" fill="#4D4D4D"/>
<path d="M142.964 272.106C143.014 271.946 143.744 269.757 142.574 267.937C141.364 266.057 138.984 261.776 138.984 260.006C138.984 258.296 138.754 257.666 138.754 257.666H137.784L139.114 256.997C139.744 257.507 140.104 258.296 140.044 259.446C139.994 260.416 141.154 264.426 142.934 266.546C144.064 267.906 144.114 270.306 142.964 272.106Z" fill="#4D4D4D"/>
<path d="M140.794 266.976C140.964 267.106 142.414 268.726 142.244 270.596C142.074 272.466 140.564 273.127 138.644 272.777C136.934 272.467 134.064 271.206 134.034 269.886C134.004 268.566 134.654 267.867 137.424 267.517C140.184 267.167 139.514 265.996 140.794 266.976Z" fill="#4D4D4D"/>
<path opacity="0.51" d="M178.254 265.927C178.254 265.927 178.944 265.457 179.454 265.617C179.964 265.777 180.314 266.237 179.624 266.707C178.934 267.177 176.274 267.967 174.304 267.177C172.764 266.547 176.534 267.327 178.254 265.927Z" fill="#7A7A7A"/>
<path opacity="0.51" d="M136.614 271.566C136.654 271.916 138.984 272.987 140.694 272.467C142.394 271.947 141.264 271.106 140.384 271.566C138.634 272.466 136.314 270.976 136.614 271.566Z" fill="#7A7A7A"/>
<path d="M169.634 225.057L170.014 228.666L168.974 257.696C168.974 257.696 157.734 261.727 154.514 255.146C154.514 255.146 154.454 251.596 153.924 246.596V246.587C153.774 245.127 153.584 243.536 153.334 241.876C152.294 234.696 152.174 221.826 152.784 219.617L152.434 215.636L148.254 188.766V188.747L148.234 188.636L148.174 188.266V188.247L147.984 189.937L144.934 217.687L145.364 218.676C145.704 219.456 145.754 220.306 145.524 221.117L145.384 224.937C145.384 224.937 144.504 236.487 143.464 245.967C142.854 251.547 142.184 256.396 141.604 257.766C141.604 257.766 132.324 260.486 127.784 256.696L128.334 224.826C128.334 224.826 126.964 222.647 127.994 221.247L128.164 218.286L127.534 162.437L169.044 161.997C170.604 162.837 170.644 216.417 169.004 220.277L169.824 221.326C170.724 222.446 170.644 223.997 169.634 225.057Z" fill="url(#paint2_linear_108_543)"/>
<path opacity="0.24" d="M153.924 246.587C153.774 245.127 153.584 243.536 153.334 241.876C152.294 234.696 152.174 221.826 152.784 219.617L152.434 215.636L148.254 188.766C148.254 188.696 148.244 188.637 148.244 188.587C148.904 191.917 154.074 217.976 154.234 218.266C154.414 218.576 153.444 237.997 153.924 246.587Z" fill="black"/>
<path opacity="0.24" d="M147.994 189.926L144.944 217.676L145.374 218.666C145.714 219.446 145.764 220.296 145.534 221.106L145.394 224.926C145.394 224.926 144.514 236.476 143.474 245.956C143.484 245.686 144.284 220.906 143.794 217.596C143.374 214.716 146.994 195.246 147.994 189.926Z" fill="black"/>
<path d="M157.334 158.307H136.754V162.516H157.334V158.307Z" fill="#794E29"/>
<path d="M149.744 132.926C149.744 132.926 137.654 153.046 147.714 171.316C155.944 186.256 153.204 201.176 153.204 201.176C153.204 201.176 178.224 193.966 183.244 196.316C183.244 184.056 173.434 169.326 167.844 153.837C162.504 139.057 170.344 121.796 168.924 115.406L153.344 108.676C153.334 108.676 157.454 112.196 149.744 132.926Z" fill="#EDF5FD"/>
<path d="M143.434 107.646C143.434 107.646 138.914 113.666 144.074 132.196C148.494 148.066 145.504 168.717 144.164 181.087C142.754 194.097 139.494 200.256 139.494 200.256C139.494 200.256 123.364 194.547 116.364 200.247C116.364 200.247 119.024 184.006 122.114 170.876C128.574 143.406 127.514 119.236 127.514 119.236L126.624 112.316L143.434 107.646Z" fill="#EDF5FD"/>
<path d="M133.644 171.196C134.014 171.386 135.874 174.347 135.814 176.527C135.664 181.797 124.834 177.887 124.854 177.307L124.394 175.717L133.644 171.196Z" fill="#F6ACAC"/>
<path d="M138.134 177.906L136.114 192.266L134.084 192.066L122.524 190.916L123.244 180.976L123.624 175.777C123.604 175.777 128.694 178.726 138.134 177.906Z" fill="#F7FBFF"/>
<path d="M134.074 192.066L122.514 190.916L123.234 180.976C123.624 189.316 130.544 191.496 134.074 192.066Z" fill="#D2D9E0"/>
<path d="M136.254 192.266C136.254 192.266 135.504 192.266 134.374 192.066L136.254 192.266Z" fill="#D2D9E0"/>
<path d="M158.824 176.777L163.274 190.676L165.294 190.187L176.754 187.416L174.364 177.696L173.114 172.617C173.104 172.617 168.464 176.247 158.824 176.777Z" fill="#F7FBFF"/>
<path d="M165.284 190.196L176.744 187.426L174.354 177.706C175.354 185.996 168.744 189.136 165.284 190.196Z" fill="#D2D9E0"/>
<path d="M141.494 108.746C141.494 108.746 138.074 109.446 136.844 119.666C136.844 119.666 138.684 119.686 140.634 121.516L137.294 124.156C137.294 124.156 141.114 136.896 145.924 141.726L141.494 108.746Z" fill="#D2D9E0"/>
<path d="M143.194 108.086C143.434 107.836 140.644 108.626 139.624 111.066C138.604 113.506 137.704 118.976 137.704 118.976C137.704 118.976 140.934 120.666 141.314 121.846L137.674 124.206C137.674 124.206 138.924 130.916 145.914 141.716C145.924 141.716 140.914 110.466 143.194 108.086Z" fill="#EDF5FD"/>
<path d="M153.434 108.956C153.434 108.956 158.874 109.776 158.464 121.856L155.074 122.566L157.074 124.546C157.074 124.546 147.474 136.216 145.924 141.726C145.924 141.716 157.814 110.456 153.434 108.956Z" fill="#D2D9E0"/>
<path d="M151.634 107.946C151.634 107.946 155.274 112.576 150.484 121.336C145.844 129.826 145.934 141.726 145.934 141.726C145.934 141.726 152.104 128.766 156.244 124.456L154.664 122.406L158.114 120.936C158.104 120.916 159.594 110.376 151.634 107.946Z" fill="#EDF5FD"/>
<path d="M137.604 171.236C134.734 175.436 122.854 176.066 122.854 176.066C122.754 175.656 122.654 175.226 122.554 174.796C119.984 164.136 115.614 147.826 115.484 146.956C115.474 146.926 122.374 109.926 126.614 112.206C136.294 117.416 127.854 145.286 127.854 145.286C129.944 149.176 137.604 171.236 137.604 171.236Z" fill="#EDF5FD"/>
<path d="M126.614 112.196C126.614 112.196 132.594 113.776 131.114 128.096C129.754 141.296 128.694 145.416 128.694 145.416L137.604 171.226C137.604 171.226 126.644 146.416 126.614 146.576C126.584 146.736 121.294 147.226 121.294 147.226C121.294 147.226 125.204 146.457 126.244 145.437C126.244 145.437 123.814 146.287 121.854 145.437C121.854 145.437 125.754 145.986 127.494 142.896C129.234 139.806 134.874 116.206 126.614 112.196Z" fill="#D2D9E0"/>
<path d="M137.604 171.236C134.734 175.436 122.854 176.066 122.854 176.066C122.754 175.656 122.654 175.226 122.554 174.796C122.514 174.816 134.694 174.656 137.604 171.236Z" fill="#D2D9E0"/>
<path d="M135.064 143.096C134.894 142.666 130.824 132.406 133.254 127.846C133.784 126.856 134.584 126.196 135.634 125.876C137.124 125.426 138.444 125.726 139.474 126.736C140.874 128.116 141.724 130.906 141.814 134.386C141.904 137.556 141.334 140.837 140.344 142.937L139.694 142.686C141.684 138.476 141.684 129.866 138.954 127.166C138.114 126.326 137.094 126.106 135.864 126.476C134.994 126.736 134.344 127.276 133.904 128.116C131.604 132.436 135.694 142.766 135.734 142.866L135.064 143.096Z" fill="black"/>
<path d="M139.244 146.706C138.914 146.686 138.584 146.616 138.284 146.506C135.854 145.656 135.104 142.516 135.074 142.386L135.244 142.356C135.254 142.386 136.004 145.546 138.344 146.356C139.684 146.826 141.294 146.446 143.134 145.226L143.234 145.356C141.764 146.336 140.424 146.786 139.244 146.706Z" fill="black"/>
<path d="M135.334 146.296C134.224 146.216 133.084 145.616 131.934 144.506L132.064 144.396C133.454 145.746 134.824 146.326 136.134 146.096C138.714 145.656 140.234 142.246 140.244 142.206L140.404 142.266C140.344 142.406 138.834 145.797 136.164 146.247C135.884 146.307 135.614 146.316 135.334 146.296Z" fill="black"/>
<path d="M142.274 144.937C142.244 145.097 142.224 145.737 142.824 146.087C143.254 146.337 143.904 145.977 144.314 145.617C144.544 145.417 144.704 144.977 144.584 144.707C144.464 144.437 144.314 144.277 143.724 144.237C143.224 144.197 142.354 144.547 142.274 144.937Z" fill="black"/>
<path d="M132.974 144.306C132.984 144.466 132.894 145.106 132.244 145.366C131.774 145.556 131.194 145.116 130.844 144.706C130.644 144.476 130.564 144.016 130.724 143.766C130.884 143.516 131.054 143.376 131.654 143.416C132.164 143.446 132.964 143.916 132.974 144.306Z" fill="black"/>
<path d="M144.064 107.286C143.904 107.516 143.754 107.766 143.634 108.026C143.624 108.026 143.614 108.026 143.604 108.036C143.594 108.026 143.584 108.007 143.584 108.007C143.574 108.017 143.574 108.036 143.564 108.046C142.844 108.196 142.114 108.376 141.384 108.596C137.404 109.736 135.294 113.046 135.104 118.436C134.964 122.516 136.044 126.316 136.054 126.356L135.374 126.516C135.364 126.476 134.255 122.606 134.405 118.426C134.605 112.816 136.944 109.206 141.184 107.986C142.124 107.696 143.084 107.476 144.064 107.286Z" fill="black"/>
<path d="M138.374 108.126C138.384 108.136 138.384 108.146 138.394 108.156C138.384 108.156 138.364 108.156 138.354 108.166C138.364 108.156 138.374 108.146 138.374 108.126Z" fill="black"/>
<path d="M152.364 138.596L151.704 138.356C151.794 138.136 161.204 116.396 157.034 110.996C156.254 109.986 154.224 108.896 151.354 108.196C151.254 107.966 151.064 107.686 150.864 107.416C154.034 108.086 156.564 109.276 157.604 110.626C162.004 116.316 152.764 137.686 152.364 138.596Z" fill="black"/>
<path d="M155.824 139.787C155.764 140.487 155.504 141.117 155.094 141.657C154.284 142.717 152.894 143.377 151.374 143.267C149.084 143.107 147.364 141.296 147.544 139.226C147.604 138.506 147.884 137.847 148.314 137.297C149.134 136.267 150.504 135.637 151.994 135.737C154.274 135.897 155.994 137.707 155.824 139.787Z" fill="black"/>
<path d="M151.584 141.186C152.562 141.186 153.354 140.466 153.354 139.576C153.354 138.687 152.562 137.966 151.584 137.966C150.607 137.966 149.814 138.687 149.814 139.576C149.814 140.466 150.607 141.186 151.584 141.186Z" fill="#6C7078"/>
<path opacity="0.34" d="M155.824 139.787C155.764 140.487 155.504 141.117 155.094 141.657C154.294 142.167 153.294 142.437 152.244 142.367C149.804 142.197 147.984 140.277 148.164 138.067C148.184 137.807 148.234 137.546 148.304 137.306C149.124 136.276 150.494 135.646 151.984 135.746C154.274 135.896 155.994 137.707 155.824 139.787Z" fill="#6C7078"/>
<path d="M152.414 109.526C152.404 109.586 150.844 111.986 147.134 111.986C144.064 111.986 142.854 108.946 142.854 108.946C142.854 108.946 143.964 106.587 144.254 103.757C144.294 103.417 144.314 103.066 144.324 102.726C144.324 102.726 144.324 102.716 144.334 102.716L150.764 102.666C150.764 102.666 150.774 102.666 150.774 102.676C150.774 102.746 150.804 103.386 151.104 105.216C151.334 106.686 151.784 108.136 152.414 109.526Z" fill="#F6ACAC"/>
<path d="M151.134 105.376C147.824 106.746 145.354 105.036 144.264 103.906C144.304 103.566 144.324 103.217 144.334 102.867L150.774 102.816C150.774 102.816 150.914 104.146 151.134 105.376Z" fill="#F49897"/>
<path d="M148.304 83.8465C148.304 83.8465 140.154 83.8165 139.434 93.7865C139.434 93.7865 136.074 91.1265 135.434 93.7865C134.794 96.4465 136.084 98.3165 139.434 96.6965C139.434 96.6965 141.404 104.536 148.304 103.886C155.204 103.236 156.414 96.5665 156.414 96.5665C156.414 96.5665 158.554 97.2765 159.484 95.5965C160.414 93.9165 157.634 91.5165 155.634 92.9365C155.624 92.9465 149.134 90.2865 148.304 83.8465Z" fill="#F6ACAC"/>
<path d="M156.154 92.6865C154.394 92.5165 152.864 91.9365 151.604 90.9565C150.594 90.1765 149.754 89.1465 149.114 87.8865C148.014 85.7465 147.854 83.6765 147.854 83.6565H147.924C147.924 83.6765 148.084 85.7365 149.184 87.8665C150.194 89.8265 152.224 92.2465 156.164 92.6265L156.154 92.6865Z" fill="#85483C"/>
<path d="M146.564 94.4065L145.754 94.1965L144.824 93.9565L143.584 93.6465L142.974 93.4865L142.834 93.4465H142.824L140.904 92.9565C140.904 92.9565 141.914 92.2065 143.104 91.9665C143.304 91.9265 143.514 91.8965 143.714 91.8965C143.974 91.8865 144.244 91.9165 144.504 91.9865C144.754 92.0565 144.994 92.1565 145.224 92.3165C145.254 92.3365 145.284 92.3565 145.314 92.3765C145.324 92.3865 145.344 92.3965 145.354 92.4065C145.714 92.6965 146.044 93.1065 146.314 93.6965C146.384 93.8465 146.444 94.0065 146.504 94.1765C146.514 94.2665 146.534 94.3365 146.564 94.4065Z" fill="white"/>
<path d="M154.494 93.4665L153.974 93.5665L152.914 93.7765L152.104 93.9365H152.084L151.174 94.1165L150.814 94.1865L149.284 94.4865C149.284 94.4865 149.634 93.3565 150.474 92.6665C150.684 92.4865 150.934 92.3465 151.204 92.2565C151.504 92.1565 151.844 92.1265 152.234 92.1865C152.284 92.1965 152.334 92.2065 152.394 92.2165C152.484 92.2365 152.584 92.2665 152.674 92.2965C152.984 92.4065 153.324 92.5765 153.684 92.8265H153.694C153.714 92.8365 153.734 92.8565 153.754 92.8665C153.794 92.8965 153.844 92.9265 153.894 92.9665C154.084 93.1065 154.284 93.2765 154.494 93.4665Z" fill="white"/>
<path d="M148.844 98.7665C149.264 98.7665 149.504 98.5665 149.524 98.5565L149.564 98.5165L148.234 93.7865L148.044 93.8365L149.344 98.4465C149.174 98.5565 148.524 98.8465 147.494 97.9265L147.364 98.0665C147.984 98.6165 148.484 98.7665 148.844 98.7665Z" fill="#F6798F"/>
<path d="M146.354 91.7165C146.354 91.7165 144.094 89.7765 141.794 91.1365C141.794 91.1265 144.144 89.0565 146.354 91.7165Z" fill="#18325C"/>
<path d="M153.634 91.3265C153.634 91.3265 150.784 90.2265 148.994 91.9065C148.994 91.9065 150.344 89.5765 153.634 91.3265Z" fill="#18325C"/>
<path d="M147.914 100.426C148.184 100.426 148.404 100.376 148.574 100.316L148.504 100.136C148.034 100.296 147.074 100.396 145.874 99.2365L145.734 99.3665C146.594 100.207 147.354 100.426 147.914 100.426Z" fill="#F6798F"/>
<path d="M151.951 96.824C152.957 96.6205 153.706 96.122 153.623 95.7106C153.54 95.2991 152.656 95.1306 151.649 95.3341C150.643 95.5376 149.894 96.0361 149.977 96.4475C150.06 96.8589 150.944 97.0275 151.951 96.824Z" fill="#F67D93"/>
<path d="M146.672 96.9125C146.796 96.4595 145.993 95.8466 144.879 95.5436C143.765 95.2406 142.762 95.3622 142.639 95.8152C142.516 96.2682 143.319 96.881 144.433 97.184C145.546 97.487 146.549 97.3654 146.672 96.9125Z" fill="#F67D93"/>
<path d="M145.364 92.8365C145.364 93.3065 145.144 93.7165 144.814 93.9565L143.574 93.6465L142.964 93.4865C142.864 93.2865 142.804 93.0665 142.804 92.8265C142.804 92.5065 142.914 92.2065 143.084 91.9665C143.284 91.9265 143.494 91.8965 143.694 91.8965C143.954 91.8865 144.224 91.9165 144.484 91.9865C144.734 92.0565 144.974 92.1565 145.204 92.3165C145.234 92.3365 145.264 92.3565 145.294 92.3765C145.344 92.5365 145.364 92.6865 145.364 92.8365Z" fill="#18325C"/>
<path d="M153.054 93.1965C153.054 93.4065 153.004 93.5965 152.914 93.7665L152.104 93.9265H152.084L151.174 94.1065L150.814 94.1765C150.524 93.9365 150.344 93.5865 150.344 93.1965C150.344 93.0065 150.394 92.8165 150.474 92.6565C150.684 92.4765 150.934 92.3365 151.204 92.2465C151.504 92.1465 151.844 92.1165 152.234 92.1765C152.284 92.1865 152.334 92.1965 152.394 92.2065C152.484 92.2265 152.584 92.2565 152.674 92.2865C152.904 92.5265 153.054 92.8465 153.054 93.1965Z" fill="#18325C"/>
<path d="M156.484 174.166C159.274 178.406 171.134 179.236 171.134 179.236C171.244 178.826 171.354 178.407 171.464 177.967C174.244 167.347 178.934 151.117 179.084 150.247C179.094 150.217 172.924 113.116 168.644 115.316C158.864 120.366 166.744 148.366 166.744 148.366C164.584 152.236 156.484 174.166 156.484 174.166Z" fill="#EDF5FD"/>
<path d="M168.644 115.326C168.644 115.326 162.634 116.806 163.824 131.146C164.924 144.367 165.894 148.506 165.894 148.506L156.474 174.166C156.474 174.166 167.924 149.546 167.954 149.696C167.984 149.856 173.254 150.437 173.254 150.437C173.254 150.437 169.364 149.606 168.344 148.566C168.344 148.566 170.754 149.456 172.734 148.636C172.734 148.636 168.824 149.127 167.144 145.997C165.464 142.867 160.304 119.196 168.644 115.326Z" fill="#D2D9E0"/>
<path d="M156.484 174.166C159.274 178.406 171.134 179.236 171.134 179.236C171.244 178.826 171.354 178.407 171.464 177.967C171.494 177.997 159.324 177.636 156.484 174.166Z" fill="#D2D9E0"/>
<path d="M146.244 149.236C146.973 149.236 147.564 148.699 147.564 148.036C147.564 147.374 146.973 146.837 146.244 146.837C145.515 146.837 144.924 147.374 144.924 148.036C144.924 148.699 145.515 149.236 146.244 149.236Z" fill="#00D5DF"/>
<path d="M145.894 156.687C146.623 156.687 147.214 156.149 147.214 155.486C147.214 154.824 146.623 154.286 145.894 154.286C145.165 154.286 144.574 154.824 144.574 155.486C144.574 156.149 145.165 156.687 145.894 156.687Z" fill="#00D5DF"/>
<path d="M145.744 164.136C146.473 164.136 147.064 163.599 147.064 162.937C147.064 162.274 146.473 161.736 145.744 161.736C145.015 161.736 144.424 162.274 144.424 162.937C144.424 163.599 145.015 164.136 145.744 164.136Z" fill="#00D5DF"/>
<path d="M148.994 82.3965C148.684 82.6965 144.555 92.9365 139.535 89.6865C134.515 86.4365 149.574 82.3965 149.574 82.3965" fill="#85483C"/>
<path d="M22.5845 200.087L21.8544 200.986L3.23444 185.087L22.5845 200.087Z" fill="#DBEFFF"/>
<path d="M29.2245 202.906C30.1945 203.766 30.4945 205.096 30.4945 205.096C30.4945 205.096 29.8545 205.016 28.7245 206.476C27.4145 207.776 27.5645 208.396 27.5645 208.396C27.5645 208.396 24.6645 208.096 24.3345 205.716C23.9945 203.336 21.2245 201.876 20.7645 200.656C20.5545 200.106 20.5745 199.686 20.7745 199.416C20.8045 199.386 20.8345 199.366 20.8745 199.336C21.1245 199.166 21.5045 199.126 22.0045 199.256C23.2745 199.566 25.0545 202.146 27.4545 202.196C28.2045 202.226 28.7845 202.516 29.2245 202.906Z" fill="#D6351C"/>
<path d="M29.2245 202.906C30.1945 203.766 30.4945 205.096 30.4945 205.096C30.4945 205.096 29.8545 205.016 28.7245 206.476C27.4145 207.776 27.5645 208.396 27.5645 208.396C27.5645 208.396 24.6645 208.097 24.3345 205.717C23.9945 203.337 21.2245 201.876 20.7645 200.656C20.5545 200.106 20.5745 199.686 20.7745 199.416C20.8045 199.386 20.8345 199.367 20.8745 199.337C20.8745 199.777 20.9745 200.367 21.4745 200.807C22.3045 201.577 27.3245 207.486 29.2245 202.906Z" fill="#C9321A"/>
<path opacity="0.31" d="M22.3544 199.437L3.24445 183.937C3.24445 183.937 2.01446 182.907 1.44446 183.607C1.09446 184.027 2.21448 185.077 2.21448 185.077L20.9244 200.967C20.9744 200.967 21.7045 201.007 22.1245 200.417C22.4345 199.997 22.3744 199.537 22.3544 199.437Z" fill="#89C0ED"/>
<path d="M35.1244 203.296L58.9444 222.807L51.3844 232.106L27.5245 212.566C25.9845 211.306 25.6044 209.206 26.6944 207.886L30.3744 203.397C31.4544 202.077 33.5844 202.026 35.1244 203.296Z" fill="#D9EEFF"/>
<path d="M51.5945 230.927L39.1445 220.887L28.1945 212.066C26.9545 211.046 26.6745 209.327 27.5845 208.227L30.6545 204.477C31.5545 203.377 33.2945 203.296 34.5445 204.316L36.5445 205.947L57.8245 223.277L51.5945 230.927Z" fill="url(#paint3_linear_108_543)"/>
<path d="M49.1445 233.486L53.8445 227.717L54.9545 226.356L59.8145 220.386C59.9745 220.516 60.1144 220.657 60.2344 220.807C60.4844 221.117 60.6645 221.466 60.7745 221.826C60.8545 222.106 60.8945 222.396 60.8945 222.676C60.8845 223.306 60.6744 223.956 60.2344 224.476L57.2045 228.196L56.0945 229.546L53.2344 233.057C52.7644 233.627 52.1245 233.986 51.4545 234.096C50.8245 234.196 50.1545 234.097 49.5745 233.777C49.4345 233.697 49.2845 233.596 49.1445 233.486Z" fill="#3B92DB"/>
<path d="M53.7745 230.896L58.2344 225.497L64.1744 232.176L65.3145 233.446L62.8845 236.437L61.4045 235.536L53.7745 230.896Z" fill="#3B92DB"/>
<path d="M64.0045 235.986L63.5544 235.617L64.6644 234.256L65.1044 234.626L64.0045 235.986Z" fill="#5CA1DB"/>
<path d="M61.8845 239.516C61.5945 239.276 61.4545 238.946 61.4545 238.596C61.4545 238.346 61.5445 238.096 61.7145 237.876L63.5544 235.606L64.6644 234.247L66.5045 231.986C66.9145 231.486 67.6445 231.406 68.1345 231.816C68.4245 232.056 68.5645 232.386 68.5645 232.736C68.5645 232.986 68.4744 233.246 68.3044 233.456L63.5245 239.326C63.1145 239.846 62.3745 239.916 61.8845 239.516Z" fill="#5CA1DB"/>
<path d="M54.0848 227.349L54.5735 226.754L29.3262 206.018L28.8375 206.614L54.0848 227.349Z" fill="#5CA1DB"/>
<path d="M49.1675 225.589L52.0237 222.111L51.7532 221.889L48.897 225.366L49.1675 225.589Z" fill="#5CA1DB"/>
<path d="M45.5863 222.639L48.4424 219.161L48.172 218.939L45.3158 222.417L45.5863 222.639Z" fill="#5CA1DB"/>
<path d="M41.9546 219.758L44.8107 216.28L44.5403 216.058L41.6841 219.536L41.9546 219.758Z" fill="#5CA1DB"/>
<path d="M38.3811 216.814L41.2372 213.337L40.9668 213.115L38.1106 216.592L38.3811 216.814Z" fill="#5CA1DB"/>
<path d="M34.7934 213.873L37.6496 210.395L37.3791 210.173L34.523 213.65L34.7934 213.873Z" fill="#5CA1DB"/>
<path d="M31.1681 210.984L34.0242 207.506L33.7538 207.284L30.8976 210.761L31.1681 210.984Z" fill="#5CA1DB"/>
<path opacity="0.24" d="M55.7355 224.356C56.2157 223.772 54.9512 221.939 52.911 220.264C50.8709 218.588 48.8277 217.704 48.3475 218.289C47.8673 218.873 49.1318 220.706 51.1719 222.381C53.2121 224.057 55.2552 224.941 55.7355 224.356Z" fill="white"/>
<path opacity="0.24" d="M47.2631 217.397C47.5225 217.081 46.5529 215.856 45.0975 214.661C43.6421 213.466 42.252 212.753 41.9926 213.068C41.7332 213.384 42.7027 214.609 44.1581 215.805C45.6135 217 47.0037 217.713 47.2631 217.397Z" fill="white"/>
<path opacity="0.24" d="M60.0448 223.723C60.3362 223.694 60.5285 223.226 60.4746 222.676C60.4206 222.126 60.1408 221.704 59.8494 221.733C59.5581 221.761 59.3657 222.23 59.4197 222.78C59.4736 223.329 59.7535 223.752 60.0448 223.723Z" fill="white"/>
<path d="M49.1445 233.486L53.8445 227.717L54.9545 226.356L59.8145 220.386C59.9745 220.516 60.1144 220.657 60.2344 220.807L49.5745 233.786C49.4345 233.696 49.2845 233.596 49.1445 233.486Z" fill="white"/>
<path d="M61.4045 235.536L64.1744 232.176L65.3145 233.446L62.8845 236.437L61.4045 235.536Z" fill="#3583C4"/>
<path d="M83.4545 31.4365H77.3044V25.7065H72.3845V31.4365H66.2344V36.0165H72.3845V41.7365H77.3044V36.0165H83.4545V31.4365Z" fill="#8EB9F5"/>
<path d="M58.8845 20.9565H53.7344V16.1565H49.6144V20.9565H44.4545V24.7965H49.6144V29.5965H53.7344V24.7965H58.8845V20.9565Z" fill="#8EB9F5"/>
<path d="M68.7845 9.18649H65.4944V6.1265H62.8644V9.18649H59.5845V11.6365H62.8644V14.6965H65.4944V11.6365H68.7845V9.18649Z" fill="#8EB9F5"/>
<defs>
<linearGradient id="paint0_linear_108_543" x1="123.891" y1="240.037" x2="117.386" y2="215.643" gradientUnits="userSpaceOnUse">
<stop offset="0.00534759" stop-color="#3A5A92"/>
<stop offset="0.3012" stop-color="#334A7D"/>
<stop offset="0.7388" stop-color="#293663"/>
<stop offset="1" stop-color="#262F59"/>
</linearGradient>
<linearGradient id="paint1_linear_108_543" x1="96.3197" y1="240.34" x2="92.7287" y2="208.589" gradientUnits="userSpaceOnUse">
<stop offset="0.00534759" stop-color="#3A5A92"/>
<stop offset="0.3012" stop-color="#334A7D"/>
<stop offset="0.7388" stop-color="#293663"/>
<stop offset="1" stop-color="#262F59"/>
</linearGradient>
<linearGradient id="paint2_linear_108_543" x1="151.875" y1="268.324" x2="146.136" y2="163.757" gradientUnits="userSpaceOnUse">
<stop offset="0.00534759" stop-color="#3A5A92"/>
<stop offset="0.3012" stop-color="#334A7D"/>
<stop offset="0.7388" stop-color="#293663"/>
<stop offset="1" stop-color="#262F59"/>
</linearGradient>
<linearGradient id="paint3_linear_108_543" x1="48.3674" y1="232.016" x2="37.4335" y2="200.629" gradientUnits="userSpaceOnUse">
<stop offset="0.2858" stop-color="#90D0EC"/>
<stop offset="1" stop-color="#13ACED"/>
</linearGradient>
</defs>
</svg>
