<svg width="38" height="38" viewBox="0 0 38 38" fill="none" xmlns="http://www.w3.org/2000/svg">
<rect width="38" height="38" rx="10" fill="#8EC5CE" fill-opacity="0.34"/>
<path d="M19.9375 20.9167C19.9375 21.7106 19.2939 22.3542 18.5 22.3542C17.7061 22.3542 17.0625 21.7106 17.0625 20.9167C17.0625 20.1228 17.7061 19.4792 18.5 19.4792C19.2939 19.4792 19.9375 20.1228 19.9375 20.9167ZM18.5 9.41667C16.3829 9.41667 14.6666 11.1329 14.6666 13.25V14.2083H13.9479C12.2278 14.2083 10.8333 15.6028 10.8333 17.3229V24.5104C10.8333 26.2305 12.2278 27.625 13.9479 27.625H17.5416V27.5428C17.5416 27.0345 17.7436 26.547 18.103 26.1875H13.9479C13.0217 26.1875 12.2708 25.4366 12.2708 24.5104V17.3229C12.2708 16.3967 13.0217 15.6458 13.9479 15.6458H23.0521C23.9783 15.6458 24.7291 16.3967 24.7291 17.3229V18.1485C25.0373 18.0786 25.3581 18.0417 25.6875 18.0417C25.8494 18.0417 26.0093 18.0506 26.1666 18.068V17.3229C26.1666 15.6028 24.7722 14.2083 23.0521 14.2083H22.3333V13.25C22.3333 11.1329 20.617 9.41667 18.5 9.41667ZM16.1041 13.25C16.1041 11.9268 17.1768 10.8542 18.5 10.8542C19.8231 10.8542 20.8958 11.9268 20.8958 13.25V14.2083H16.1041V13.25ZM25.6875 25.7083C27.5399 25.7083 29.0416 24.2066 29.0416 22.3542C29.0416 20.5017 27.5399 19 25.6875 19C23.835 19 22.3333 20.5017 22.3333 22.3542C22.3333 22.6478 22.3711 22.9325 22.4419 23.2039L18.7807 26.8651C18.601 27.0448 18.5 27.2886 18.5 27.5428V29.0625C18.5 29.3271 18.7146 29.5417 18.9791 29.5417H20.8958C21.1604 29.5417 21.375 29.3271 21.375 29.0625V28.5833H22.3333C22.5979 28.5833 22.8125 28.3688 22.8125 28.1042V27.1458H23.7708C24.0354 27.1458 24.25 26.9313 24.25 26.6667V25.7083H25.6875ZM26.1666 20.9167C26.6959 20.9167 27.125 21.3457 27.125 21.875C27.125 22.4043 26.6959 22.8333 26.1666 22.8333C25.6374 22.8333 25.2083 22.4043 25.2083 21.875C25.2083 21.3457 25.6374 20.9167 26.1666 20.9167Z" fill="#3A3A3A"/>
</svg>
