<svg width="18" height="18" viewBox="0 0 18 18" fill="none" xmlns="http://www.w3.org/2000/svg">
<path d="M9.52775 0.606934C10.6783 0.606934 11.6111 1.47666 11.6111 2.54953L11.6117 7.53026C11.1307 7.56437 10.6655 7.65114 10.2227 7.78444L10.2222 2.54953C10.2222 2.19191 9.91127 1.902 9.52775 1.902H2.58334C2.19981 1.902 1.8889 2.19191 1.8889 2.54953V15.9319C1.8889 16.2895 2.19981 16.5794 2.58334 16.5794L7.33035 16.5802C7.75785 17.0898 8.27776 17.5289 8.86664 17.8754L2.58334 17.8745C1.43275 17.8745 0.500015 17.0047 0.500015 15.9319V2.54953C0.500015 1.47666 1.43275 0.606934 2.58334 0.606934H9.52775ZM12.074 8.37732C14.8866 8.37732 17.1666 10.5033 17.1666 13.1259C17.1666 15.7485 14.8866 17.8745 12.074 17.8745C9.26146 17.8745 6.98147 15.7485 6.98147 13.1259C6.98147 10.5033 9.26146 8.37732 12.074 8.37732ZM12.2738 10.6123L12.2096 10.6622L12.1561 10.722C12.0467 10.8692 12.0467 11.0657 12.1561 11.2129L12.2096 11.2727L13.733 12.6933L9.29044 12.6942L9.2072 12.7012C9.01822 12.7331 8.86924 12.8721 8.83498 13.0483L8.82748 13.1259L8.83498 13.2035C8.86924 13.3797 9.01822 13.5186 9.2072 13.5506L9.29044 13.5576L13.7349 13.5567L12.2096 14.979L12.1561 15.0389C12.0311 15.2072 12.0489 15.4397 12.2096 15.5896C12.3703 15.7394 12.6198 15.7561 12.8002 15.6395L12.8644 15.5896L15.2066 13.4032L15.2409 13.36L15.2798 13.2908L15.3038 13.2194L15.313 13.1642V13.0876L15.3039 13.0326L15.2799 12.9613L15.2412 12.8922L15.2066 12.8486L12.8644 10.6622L12.8002 10.6123C12.665 10.5248 12.4908 10.5124 12.3443 10.5748L12.2738 10.6123ZM6.12656 13.9909C6.20147 14.4422 6.33406 14.8758 6.51702 15.2849L4.89919 15.2876C4.51566 15.2881 4.20428 14.9986 4.2037 14.641C4.20313 14.2834 4.51357 13.9931 4.8971 13.9926L6.12656 13.9909Z" fill="#EF6269"/>
</svg>
