<svg width="38" height="38" viewBox="0 0 38 38" fill="none" xmlns="http://www.w3.org/2000/svg">
<rect width="38" height="38" rx="10" fill="#8EC5CE" fill-opacity="0.34"/>
<path d="M13.487 8.92846L14.6339 8.58277C15.9336 8.191 17.3222 8.82412 17.8788 10.0622L18.765 12.0334C19.2393 13.0887 18.9893 14.3289 18.1432 15.118L16.6746 16.4875C16.6317 16.5275 16.6045 16.5816 16.598 16.6399C16.5543 17.0302 16.819 17.7902 17.4285 18.846C17.8718 19.6139 18.273 20.1522 18.6145 20.4551C18.8524 20.6661 18.9834 20.7117 19.0392 20.6951L21.0149 20.0911C22.1211 19.7529 23.3199 20.1561 23.9967 21.0942L25.2553 22.8386C26.0475 23.9365 25.905 25.4512 24.922 26.3822L24.0509 27.2071C23.111 28.0973 21.7729 28.429 20.5261 28.081C17.8194 27.3256 15.3927 25.0414 13.219 21.2765C11.0422 17.5062 10.2784 14.2587 10.9825 11.5347C11.3047 10.2881 12.2542 9.30006 13.487 8.92846ZM13.9124 10.3399C13.1728 10.5628 12.6031 11.1557 12.4097 11.9036C11.8175 14.1949 12.4945 17.0733 14.4956 20.5394C16.4941 24.0008 18.6453 26.0256 20.9223 26.6611C21.6705 26.87 22.4733 26.6709 23.0373 26.1368L23.9083 25.3119C24.3552 24.8887 24.42 24.2002 24.0599 23.7011L22.8012 21.9568C22.4935 21.5304 21.9486 21.347 21.4458 21.5009L19.4653 22.1063C18.3157 22.449 17.2723 21.5238 16.1519 19.5831C15.3968 18.2753 15.0449 17.2644 15.133 16.4763C15.1786 16.068 15.3688 15.6895 15.6692 15.4094L17.1378 14.0399C17.5225 13.6812 17.6361 13.1175 17.4204 12.6378L16.5343 10.6667C16.2813 10.1039 15.6501 9.8161 15.0593 9.99417L13.9124 10.3399Z" fill="#3A3A3A"/>
</svg>
