<svg width="57" height="56" viewBox="0 0 57 56" fill="none" xmlns="http://www.w3.org/2000/svg">
<rect width="56.7273" height="56" rx="20" fill="#D6F6FF"/>
<g clip-path="url(#clip0_31_1018)">
<path d="M27.5196 19.805H23.8773V17.9838H24.4844C25.1521 17.9838 25.6985 17.4375 25.6985 16.7698C25.6985 16.102 25.1521 15.5557 24.4844 15.5557H20.8421C20.1743 15.5557 19.628 16.102 19.628 16.7698C19.628 17.4375 20.1743 17.9838 20.8421 17.9838H21.4491V19.805H17.8069C17.1391 19.805 16.5928 20.3513 16.5928 21.0191C16.5928 21.6868 17.1391 22.2332 17.8069 22.2332V31.3389C17.8069 32.6744 18.8995 33.767 20.235 33.767H21.4491V38.6234L23.8773 40.4446V33.767H25.0914C26.4269 33.767 27.5196 32.6744 27.5196 31.3389V22.2332C28.1874 22.2332 28.7337 21.6868 28.7337 21.0191C28.7337 20.3513 28.1874 19.805 27.5196 19.805ZM25.0914 24.0543H22.9668C22.469 24.0543 22.0562 24.4671 22.0562 24.9649C22.0562 25.4627 22.469 25.8754 22.9668 25.8754H25.0914V27.6966H22.9668C22.469 27.6966 22.0562 28.1094 22.0562 28.6072C22.0562 29.1049 22.469 29.5177 22.9668 29.5177H25.0914V31.3389H20.235V22.2332H25.0914V24.0543ZM37.8394 25.8754V25.2684C38.5071 25.2684 39.0535 24.7221 39.0535 24.0543C39.0535 23.3866 38.5071 22.8402 37.8394 22.8402H31.7689C31.1012 22.8402 30.5548 23.3866 30.5548 24.0543C30.5548 24.7221 31.1012 25.2684 31.7689 25.2684V25.8754C31.7689 26.4825 29.9478 27.2838 29.9478 29.5177V37.4093C29.9478 38.7448 31.0405 39.8375 32.376 39.8375H37.2323C38.5678 39.8375 39.6605 38.7448 39.6605 37.4093V29.5177C39.6605 27.2838 37.8394 26.4825 37.8394 25.8754ZM34.1971 25.8754V25.2684H35.4112V25.8754C35.4112 27.818 37.2323 28.3036 37.2323 29.5177V30.1248H32.376C32.376 29.8698 32.376 29.6513 32.376 29.5177C32.376 28.3036 34.1971 27.818 34.1971 25.8754ZM32.376 37.4093C32.376 37.4093 32.376 36.6444 32.376 35.5882H37.2323V37.4093H32.376Z" fill="#009DC7"/>
</g>
<defs>
<clipPath id="clip0_31_1018">
<rect width="24.8889" height="24.8889" fill="white" transform="translate(15.5557 15.5557)"/>
</clipPath>
</defs>
</svg>
