<svg width="15" height="16" viewBox="0 0 15 16" fill="none" xmlns="http://www.w3.org/2000/svg">
<path d="M0.164753 0.664758C-0.0349497 0.864461 -0.0530998 1.17696 0.110288 1.39716L0.164753 1.46025L3.19068 4.48618C1.74919 5.49828 0.671828 7.00993 0.22416 8.79831C0.148725 9.09966 0.331875 9.40513 0.633233 9.48058C0.934598 9.55596 1.24005 9.37288 1.31549 9.07146C1.7126 7.48513 2.69334 6.15461 4.00062 5.2959L5.35784 6.65323C4.82721 7.19436 4.5 7.93573 4.5 8.75346C4.5 10.4104 5.84314 11.7535 7.5 11.7535C8.3178 11.7535 9.0591 11.4262 9.6003 10.8956L14.0398 15.3352C14.2594 15.5549 14.6156 15.5549 14.8352 15.3352C15.035 15.1356 15.0531 14.8231 14.8897 14.6029L14.8352 14.5398L10.2501 9.95413L10.251 9.95301L9.35093 9.05458L7.1985 6.90261L7.2 6.90201L5.03908 4.74337L5.04 4.74201L4.19004 3.89412L0.960248 0.664758C0.74058 0.445091 0.38442 0.445091 0.164753 0.664758ZM6.15307 7.44913L8.8044 10.1005C8.4669 10.4273 8.00692 10.6285 7.5 10.6285C6.46448 10.6285 5.625 9.78898 5.625 8.75346C5.625 8.24653 5.82618 7.78656 6.15307 7.44913ZM7.5 3.12501C6.74977 3.12501 6.02183 3.23606 5.33332 3.44376L6.26108 4.3709C6.66292 4.2915 7.0773 4.25001 7.5 4.25001C10.4423 4.25001 12.9824 6.2602 13.6853 9.07491C13.7606 9.37626 14.0659 9.55956 14.3674 9.48433C14.6688 9.40903 14.8521 9.10371 14.7768 8.80228C13.9495 5.48955 10.9616 3.12501 7.5 3.12501ZM7.64603 5.75697L10.497 8.60751C10.4207 7.06483 9.1854 5.83074 7.64603 5.75697Z" fill="#9E9CA0"/>
</svg>
