<svg width="245" height="308" viewBox="0 0 245 308" fill="none" xmlns="http://www.w3.org/2000/svg">
<path d="M282.877 42.1373C305.714 87.7752 320.923 131.806 327.061 166.092C330.13 183.239 330.925 197.919 329.288 209.133C327.647 220.365 323.589 227.996 317.074 231.256C310.559 234.516 302.018 233.19 292.045 227.769C282.088 222.357 270.815 212.92 258.931 200.184C235.169 174.717 209.046 136.147 186.209 90.5094C163.372 44.8714 148.162 0.840433 142.025 -33.4457C138.955 -50.5921 138.16 -65.2722 139.798 -76.4865C141.438 -87.7182 145.496 -95.3493 152.011 -98.6094C158.526 -101.869 167.067 -100.543 177.04 -95.1223C186.997 -89.71 198.27 -80.273 210.154 -67.5371C233.916 -42.0704 260.04 -3.5007 282.877 42.1373Z" stroke="#6C92BE"/>
<path d="M252.126 15.2304C300.546 31.3531 342.435 51.7329 371.019 71.637C385.313 81.5909 396.256 91.4092 403.028 100.497C409.81 109.599 412.336 117.864 410.035 124.776C407.733 131.688 400.756 136.79 389.871 140.008C379.003 143.222 364.359 144.521 346.95 143.918C312.14 142.713 266.395 133.912 217.976 117.789C169.557 101.666 127.668 81.2866 99.0838 61.3826C84.7891 51.4286 73.8464 41.6104 67.0747 32.5228C60.2923 23.421 57.7661 15.1553 60.0677 8.24328C62.3692 1.33127 69.3465 -3.76996 80.2313 -6.98883C91.0993 -10.2027 105.744 -11.501 123.152 -10.8983C157.962 -9.69323 203.707 -0.892339 252.126 15.2304Z" stroke="#6C92BE"/>
<path d="M285.635 83.9071C269.513 132.326 249.133 174.216 229.229 202.799C219.275 217.094 209.457 228.037 200.369 234.809C191.267 241.591 183.002 244.117 176.09 241.816C169.178 239.514 164.076 232.537 160.857 221.652C157.644 210.784 156.345 196.14 156.948 178.731C158.153 143.921 166.954 98.1759 183.077 49.7568C199.199 1.33771 219.579 -40.5517 239.483 -69.1355C249.437 -83.4302 259.256 -94.3729 268.343 -101.145C277.445 -107.927 285.711 -110.453 292.623 -108.152C299.535 -105.85 304.636 -98.8728 307.855 -87.988C311.069 -77.12 312.367 -62.4757 311.764 -45.0672C310.559 -10.257 301.758 35.488 285.635 83.9071Z" stroke="#6C92BE"/>
</svg>
