<svg width="57" height="56" viewBox="0 0 57 56" fill="none" xmlns="http://www.w3.org/2000/svg">
<rect width="56.7273" height="56" rx="20" fill="#FAF0DB"/>
<g clip-path="url(#clip0_31_1009)">
<path d="M27.7112 17.6299H38.7694V21.4117H27.7112V17.6299Z" fill="#E09F1F"/>
<path d="M16.7009 30.6506C15.3127 32.0389 15.169 34.2889 16.3658 35.8208L21.8711 30.3155C20.3391 29.1187 18.0892 29.2624 16.7009 30.6506L16.7009 30.6506Z" fill="#E09F1F"/>
<path d="M17.0837 36.539C18.6156 37.7358 20.8177 37.5921 22.2539 36.2039C23.6421 34.8157 23.7857 32.5656 22.589 31.0337L17.0837 36.539Z" fill="#E09F1F"/>
<path d="M21.8708 19.7364C20.339 18.5396 18.0892 18.6833 16.7011 20.0715C15.3129 21.4597 15.1693 23.7098 16.366 25.2417L21.8708 19.7364Z" fill="#E09F1F"/>
<path d="M17.0837 25.9594C18.6156 27.1561 20.8177 27.0125 22.2539 25.6243C23.6421 24.236 23.7857 21.986 22.589 20.4541L17.0837 25.9594Z" fill="#E09F1F"/>
<path d="M33.9343 30.1722V28.1616H32.594V30.2201C32.594 30.5073 32.3547 30.7468 32.0673 30.7468H30.0088V32.0871H32.0673C32.3545 32.0871 32.594 32.3264 32.594 32.6138V34.6723H33.9343V32.6138C33.9343 32.3266 34.1736 32.0871 34.461 32.0871H36.5195V30.7468H34.461C34.1736 30.6989 33.9343 30.4594 33.9343 30.1722V30.1722Z" fill="#E09F1F"/>
<path d="M39.6307 25.0977C38.7212 24.4754 38.0989 23.5659 37.8594 22.4648H28.6682C28.4289 23.5179 27.7587 24.4754 26.8969 25.0977C26.3702 25.4328 26.083 26.0072 26.083 26.6296V36.8259C26.083 37.879 26.9446 38.6928 27.95 38.6928H38.5775C39.6306 38.6928 40.4444 37.8312 40.4444 36.8259V26.6296C40.4444 26.0072 40.1572 25.4328 39.6306 25.0977H39.6307ZM37.5245 32.5656C37.5245 32.8528 37.2852 33.0922 36.9978 33.0922H34.9393V35.1508C34.9393 35.438 34.7 35.6774 34.4127 35.6774H32.019C31.7318 35.6774 31.4924 35.4381 31.4924 35.1508V33.0922H29.4339C29.1467 33.0922 28.9072 32.853 28.9072 32.5656V30.172C28.9072 29.8848 29.1465 29.6453 29.4339 29.6453H31.4924V27.5868C31.4924 27.2996 31.7316 27.0601 32.019 27.0601H34.4127C34.6999 27.0601 34.9393 27.2994 34.9393 27.5868V29.6453H36.9978C37.285 29.6453 37.5245 29.8846 37.5245 30.172V32.5656Z" fill="#E09F1F"/>
</g>
<defs>
<clipPath id="clip0_31_1009">
<rect width="24.8889" height="24.8889" fill="white" transform="translate(15.5557 15.5557)"/>
</clipPath>
</defs>
</svg>
