<svg width="50" height="50" viewBox="0 0 14 14" fill="none" xmlns="http://www.w3.org/2000/svg">
<path d="M2.35 2.95C2.35 2.61863 2.61863 2.35 2.95 2.35H4.6C5.01421 2.35 5.35 2.01421 5.35 1.6C5.35 1.18579 5.01421 0.85 4.6 0.85H2.95C1.7902 0.85 0.85 1.7902 0.85 2.95V4.6C0.85 5.01421 1.18579 5.35 1.6 5.35C2.01421 5.35 2.35 5.01421 2.35 4.6V2.95ZM2.95 11.65C2.61862 11.65 2.35 11.3814 2.35 11.05V9.4C2.35 8.98578 2.01421 8.65 1.6 8.65C1.18579 8.65 0.85 8.98578 0.85 9.4V11.05C0.85 12.2098 1.7902 13.15 2.95 13.15H4.6C5.01421 13.15 5.35 12.8142 5.35 12.4C5.35 11.9858 5.01421 11.65 4.6 11.65H2.95ZM11.05 2.35C11.3814 2.35 11.65 2.61862 11.65 2.95V4.6C11.65 5.01421 11.9858 5.35 12.4 5.35C12.8142 5.35 13.15 5.01421 13.15 4.6V2.95C13.15 1.7902 12.2098 0.85 11.05 0.85H9.4C8.98578 0.85 8.65 1.18579 8.65 1.6C8.65 2.01421 8.98578 2.35 9.4 2.35H11.05ZM11.65 11.05C11.65 11.3814 11.3814 11.65 11.05 11.65H9.4C8.98578 11.65 8.65 11.9858 8.65 12.4C8.65 12.8142 8.98578 13.15 9.4 13.15H11.05C12.2098 13.15 13.15 12.2098 13.15 11.05V9.4C13.15 8.98578 12.8142 8.65 12.4 8.65C11.9858 8.65 11.65 8.98578 11.65 9.4V11.05ZM4.6 6.25C4.18579 6.25 3.85 6.58578 3.85 7C3.85 7.41423 4.18579 7.75 4.6 7.75H9.4C9.81422 7.75 10.15 7.41422 10.15 7C10.15 6.58578 9.81422 6.25 9.4 6.25H4.6Z" fill="white" stroke="#F7F6FF" stroke-width="0.3"/>
</svg>
