<svg width="80" height="80" viewBox="0 0 80 80" fill="none" xmlns="http://www.w3.org/2000/svg">
<path d="M30 18V30H18V18H30ZM36 12H12V36H36V12ZM30 50V62H18V50H30ZM36 44H12V68H36V44ZM62 18V30H50V18H62ZM68 12H44V36H68V12ZM44 44H50V50H44V44ZM50 50H56V56H50V50ZM56 44H62V50H56V44ZM44 56H50V62H44V56ZM50 62H56V68H50V62ZM56 56H62V62H56V56ZM62 50H68V56H62V50ZM62 62H68V68H62V62ZM80 20H72V8H60V0H80V20ZM80 80V60H72V72H60V80H80ZM0 80H20V72H8V60H0V80ZM0 0V20H8V8H20V0H0Z" fill="url(#paint0_linear_932_2260)"/>
<defs>
<linearGradient id="paint0_linear_932_2260" x1="0" y1="40" x2="80" y2="40" gradientUnits="userSpaceOnUse">
<stop stop-color="#6BB5BE"/>
<stop offset="1" stop-color="#74B192"/>
</linearGradient>
</defs>
</svg>
