<svg width="21" height="20" viewBox="0 0 21 20" fill="none" xmlns="http://www.w3.org/2000/svg">
<path d="M10.9139 0.25C11.6936 0.25846 12.4701 0.34326 13.231 0.50304C13.5632 0.57279 13.8116 0.83351 13.8493 1.15196L14.0301 2.67881C14.112 3.37986 14.7407 3.91084 15.4901 3.91158C15.6916 3.91188 15.8909 3.87238 16.0771 3.79483L17.5647 3.17956C17.8742 3.05159 18.2357 3.12136 18.4666 3.35362C19.5417 4.43464 20.3424 5.73115 20.8085 7.14558C20.9089 7.45058 20.7933 7.78203 20.5203 7.9715L19.2016 8.8866C18.8254 9.1468 18.6033 9.56 18.6033 9.9995C18.6033 10.4389 18.8254 10.8521 19.2025 11.1129L20.5222 12.0283C20.7953 12.2177 20.9111 12.5492 20.8106 12.8543C20.3447 14.2685 19.5445 15.5649 18.47 16.6461C18.2393 16.8783 17.8781 16.9483 17.5687 16.8206L16.075 16.2045C15.6476 16.0284 15.1568 16.0542 14.7529 16.274C14.3491 16.4937 14.0803 16.8812 14.029 17.3177L13.8494 18.8444C13.8124 19.1592 13.5693 19.4182 13.242 19.4915C11.7036 19.8361 10.1007 19.8361 8.56215 19.4915C8.23488 19.4182 7.9918 19.1592 7.95476 18.8444L7.77545 17.32C7.72277 16.8843 7.45359 16.498 7.05006 16.279C6.64653 16.06 6.15655 16.0343 5.73063 16.2094L4.23656 16.8256C3.92711 16.9533 3.56577 16.8833 3.33502 16.6509C2.25994 15.5685 1.45968 14.2705 0.99447 12.8548C0.894266 12.5499 1.01004 12.2186 1.283 12.0293L2.60362 11.1133C2.97977 10.8531 3.20192 10.4399 3.20192 10.0005C3.20192 9.561 2.97977 9.1478 2.60312 8.8873L1.28333 7.97285C1.00998 7.78345 0.894096 7.45178 0.994651 7.14658C1.46067 5.73215 2.26135 4.43564 3.33645 3.35462C3.56743 3.12236 3.92893 3.05259 4.23834 3.18056L5.72576 3.79572C6.15375 3.97256 6.64578 3.94585 7.05149 3.72269C7.45545 3.50209 7.72439 3.11422 7.77631 2.67764L7.95695 1.15196C7.99468 0.83335 8.24333 0.57254 8.57572 0.50294C9.3376 0.34342 10.115 0.25865 10.9139 0.25ZM10.9007 6.99995C9.14078 6.99995 7.7142 8.3431 7.7142 10C7.7142 11.6568 9.14078 13 10.9007 13C12.6605 13 14.0871 11.6568 14.0871 10C14.0871 8.3431 12.6605 6.99995 10.9007 6.99995Z" fill="#B0B0B0"/>
</svg>
