<svg width="129" height="165" viewBox="0 0 129 165" fill="none" xmlns="http://www.w3.org/2000/svg">
<path d="M79.1057 112.69L18.3156 69.5443C18.1474 69.4248 17.9499 69.3546 17.7448 69.3412C17.5397 69.3279 17.335 69.372 17.153 69.4686C16.9711 69.5653 16.8189 69.7108 16.7133 69.8892C16.6077 70.0677 16.5527 70.272 16.5543 70.48L16.5173 110.66C16.518 110.984 16.4552 111.306 16.3328 111.606C16.2103 111.906 16.0306 112.178 15.8038 112.408C15.577 112.637 15.3077 112.819 15.0113 112.943C14.7149 113.067 14.3972 113.13 14.0765 113.13H2.44085C1.79307 113.129 1.17224 112.867 0.714627 112.403C0.257011 111.939 -1.1574e-06 111.31 0 110.655L0.0323631 40.9442C0.0331509 40.4881 0.158448 40.0411 0.394438 39.6526C0.630428 39.264 0.967936 38.949 1.36968 38.7423C1.77142 38.5356 2.22177 38.4453 2.67103 38.4814C3.12029 38.5174 3.55097 38.6783 3.91553 38.9465L98.577 108.685C98.993 108.993 99.3022 109.426 99.4606 109.922C99.6189 110.418 99.6184 110.953 99.459 111.449C99.2996 111.944 98.9895 112.377 98.5729 112.684C98.1563 112.991 97.6546 113.157 97.1393 113.158H80.4972C79.9971 113.149 79.5117 112.985 79.1057 112.69Z" fill="url(#paint0_linear_213_446)"/>
<path d="M123.939 110.444L1.01025 21.7562C0.697227 21.5311 0.442176 21.2337 0.266426 20.889C0.0906749 20.5443 -0.000681091 20.1621 3.82293e-06 19.7745V5.57612C0.000777652 5.13023 0.122843 4.69312 0.352917 4.3123C0.582991 3.93149 0.91226 3.62156 1.3049 3.41628C1.69753 3.211 2.1385 3.1182 2.57981 3.148C3.02112 3.17781 3.44587 3.32909 3.80784 3.58533L111.044 79.6788C111.201 79.7904 111.386 79.8564 111.577 79.8694C111.769 79.8823 111.961 79.8419 112.131 79.7524C112.301 79.6629 112.444 79.5279 112.543 79.3621C112.643 79.1963 112.695 79.0061 112.694 78.8124V2.43785C112.694 1.79129 112.949 1.17122 113.403 0.714039C113.856 0.256857 114.471 9.39341e-09 115.112 9.39341e-09H126.586C126.906 -2.83133e-05 127.222 0.0639909 127.517 0.188284C127.812 0.312577 128.08 0.494679 128.304 0.724052C128.529 0.953425 128.706 1.2255 128.825 1.52444C128.945 1.82339 129.004 2.14323 129 2.46547L127.752 108.495C127.746 108.939 127.619 109.372 127.386 109.749C127.154 110.126 126.823 110.431 126.43 110.632C126.038 110.832 125.598 110.921 125.159 110.888C124.72 110.855 124.298 110.702 123.939 110.444Z" fill="url(#paint1_linear_213_446)"/>
<path d="M82.9354 2.42475V20.8408C82.9357 21.0357 82.8815 21.227 82.7785 21.3938C82.6755 21.5605 82.5278 21.6964 82.3515 21.7864C82.1751 21.8764 81.977 21.9171 81.7787 21.9042C81.5803 21.8912 81.3894 21.8251 81.2268 21.713L50.4583 0.456634C50.0516 0.167514 49.564 0.00809629 49.0617 3.14075e-10H29.6155C29.0945 0.00108517 28.5872 0.164226 28.1667 0.465943C27.7462 0.767659 27.434 1.19245 27.2752 1.67915C27.1163 2.16586 27.1189 2.68943 27.2826 3.17459C27.4463 3.65974 27.7627 4.0815 28.1862 4.37916L95.6637 51.6042C96.0314 51.8612 96.4641 52.0142 96.9145 52.0463C97.3649 52.0784 97.8156 51.9884 98.2173 51.7862C98.6191 51.584 98.9564 51.2773 99.1925 50.8997C99.4285 50.5222 99.5542 50.0882 99.5557 49.6453L99.579 2.41561C99.579 1.77496 99.3195 1.16054 98.8576 0.707526C98.3958 0.254514 97.7693 3.14075e-10 97.1162 3.14075e-10H85.3935C85.0695 -5.12913e-06 84.7488 0.0628174 84.4496 0.184839C84.1505 0.30686 83.8789 0.4857 83.6504 0.711038C83.422 0.936375 83.2412 1.20378 83.1185 1.49788C82.9958 1.79199 82.9336 2.10698 82.9354 2.42475Z" fill="url(#paint2_linear_213_446)"/>
<path d="M30.4668 154C29.9785 154 29.7344 153.756 29.7344 153.268V141.915C29.7344 141.427 29.9785 141.183 30.4668 141.183H32.3955C32.8838 141.183 33.1279 141.427 33.1279 141.915V142.623H33.1768C33.5511 141.98 34.0272 141.541 34.605 141.305C35.1828 141.061 35.8786 140.938 36.6924 140.938C37.9619 140.938 39.0117 141.337 39.8418 142.135C40.6719 142.932 41.0869 144.389 41.0869 146.505V153.268C41.0869 153.756 40.8428 154 40.3545 154H38.4014C37.9131 154 37.6689 153.756 37.6689 153.268V147.384C37.6689 145.61 37.5469 144.491 37.3027 144.027C37.0586 143.563 36.5337 143.331 35.728 143.331C34.8735 143.331 34.2306 143.665 33.7993 144.332C33.368 144.991 33.1523 146.367 33.1523 148.458V153.268C33.1523 153.756 32.9082 154 32.4199 154H30.4668ZM46.3652 154C45.877 154 45.6328 153.756 45.6328 153.268V141.915C45.6328 141.427 45.877 141.183 46.3652 141.183H48.3184C48.8066 141.183 49.0508 141.427 49.0508 141.915V153.268C49.0508 153.756 48.8066 154 48.3184 154H46.3652ZM46.3652 139.303C45.877 139.303 45.6328 139.059 45.6328 138.57V137.008C45.6328 136.52 45.877 136.275 46.3652 136.275H48.3184C48.8066 136.275 49.0508 136.52 49.0508 137.008V138.57C49.0508 139.059 48.8066 139.303 48.3184 139.303H46.3652ZM54.3535 154C53.8652 154 53.6211 153.756 53.6211 153.268V141.915C53.6211 141.427 53.8652 141.183 54.3535 141.183H56.2822C56.7705 141.183 57.0146 141.427 57.0146 141.915V142.916H57.0635C57.2751 142.395 57.6291 141.935 58.1255 141.537C58.6219 141.138 59.2078 140.938 59.8833 140.938C60.3472 140.938 60.7297 140.995 61.0308 141.109C61.3156 141.215 61.4255 141.41 61.3604 141.695L61.0186 143.148C60.9453 143.473 60.7256 143.571 60.3594 143.441C60.1478 143.368 59.9443 143.331 59.749 143.331C58.9678 143.331 58.3208 143.799 57.8081 144.735C57.2954 145.671 57.0391 147.034 57.0391 148.824V153.268C57.0391 153.756 56.7949 154 56.3066 154H54.3535ZM63.6235 142.135C63.4201 141.5 63.5544 141.183 64.0264 141.183H66.2114C66.5939 141.183 66.8381 141.39 66.9438 141.805L68.8359 148.958C68.9417 149.357 69.0272 149.752 69.0923 150.143C69.1655 150.533 69.2103 150.851 69.2266 151.095H69.2998C69.3161 150.851 69.3568 150.533 69.4219 150.143C69.4951 149.752 69.5846 149.357 69.6904 148.958L71.5825 141.805C71.6883 141.39 71.9325 141.183 72.3149 141.183H74.5C74.972 141.183 75.1063 141.5 74.9028 142.135L71.3628 153.182C71.1919 153.727 70.8949 154 70.4717 154H68.0547C67.6315 154 67.3345 153.727 67.1636 153.182L63.6235 142.135ZM77.3369 150.582C77.3369 148.954 78.1141 147.774 79.6685 147.042C81.2228 146.31 82.9969 145.919 84.9907 145.87V145.382C84.9907 144.633 84.8035 144.104 84.4292 143.795C84.0549 143.486 83.534 143.331 82.8667 143.331C82.3947 143.331 81.9756 143.4 81.6094 143.539C81.2513 143.669 80.938 143.823 80.6694 144.002C80.409 144.173 80.173 144.348 79.9614 144.527C79.5871 144.853 79.2778 144.869 79.0337 144.576L78.0205 143.331C77.7682 143.022 77.8293 142.704 78.2036 142.379C78.4884 142.127 78.818 141.907 79.1924 141.72C79.5749 141.533 80.0794 141.358 80.7061 141.195C81.3327 141.024 82.1465 140.938 83.1475 140.938C84.8402 140.938 86.1382 141.329 87.0415 142.11C87.953 142.892 88.4087 144.043 88.4087 145.565V153.268C88.4087 153.756 88.1646 154 87.6763 154H85.6743C85.2349 154 85.0151 153.756 85.0151 153.268V152.901H84.9907C84.5106 153.365 83.9328 153.707 83.2573 153.927C82.59 154.138 81.9756 154.244 81.4141 154.244C80.0794 154.244 79.0662 153.919 78.3745 153.268C77.6828 152.608 77.3369 151.713 77.3369 150.582ZM80.9502 150.509C80.9502 150.794 81.0072 151.042 81.1211 151.253C81.235 151.457 81.4141 151.607 81.6582 151.705C81.9023 151.803 82.175 151.852 82.4761 151.852C82.8911 151.852 83.2939 151.795 83.6846 151.681C84.0752 151.567 84.5106 151.298 84.9907 150.875V148.226C83.6235 148.381 82.708 148.58 82.2441 148.824C81.7803 149.068 81.4466 149.321 81.2432 149.581C81.0479 149.841 80.9502 150.151 80.9502 150.509ZM93.7236 154C93.2354 154 92.9912 153.756 92.9912 153.268V141.915C92.9912 141.427 93.2354 141.183 93.7236 141.183H95.6523C96.1406 141.183 96.3848 141.427 96.3848 141.915V142.916H96.4336C96.6452 142.395 96.9992 141.935 97.4956 141.537C97.992 141.138 98.578 140.938 99.2534 140.938C99.7173 140.938 100.1 140.995 100.401 141.109C100.686 141.215 100.796 141.41 100.73 141.695L100.389 143.148C100.315 143.473 100.096 143.571 99.7295 143.441C99.5179 143.368 99.3145 143.331 99.1191 143.331C98.3379 143.331 97.6909 143.799 97.1782 144.735C96.6655 145.671 96.4092 147.034 96.4092 148.824V153.268C96.4092 153.756 96.165 154 95.6768 154H93.7236Z" fill="url(#paint3_linear_213_446)"/>
<defs>
<linearGradient id="paint0_linear_213_446" x1="0" y1="75.7949" x2="99.5848" y2="75.7949" gradientUnits="userSpaceOnUse">
<stop stop-color="#12BCCA"/>
<stop offset="1" stop-color="#41BA95"/>
</linearGradient>
<linearGradient id="paint1_linear_213_446" x1="3.82318e-06" y1="55.4526" x2="129.009" y2="55.4526" gradientUnits="userSpaceOnUse">
<stop stop-color="#12BCCA"/>
<stop offset="1" stop-color="#41BA95"/>
</linearGradient>
<linearGradient id="paint2_linear_213_446" x1="27.1527" y1="26.0418" x2="99.579" y2="26.0418" gradientUnits="userSpaceOnUse">
<stop stop-color="#12BCCA"/>
<stop offset="1" stop-color="#41BA95"/>
</linearGradient>
<linearGradient id="paint3_linear_213_446" x1="27.9947" y1="147.011" x2="101" y2="147.011" gradientUnits="userSpaceOnUse">
<stop stop-color="#12BCCA"/>
<stop offset="1" stop-color="#41BA95"/>
</linearGradient>
</defs>
</svg>
