<svg width="36" height="32" viewBox="0 0 36 32" fill="none" xmlns="http://www.w3.org/2000/svg">
<path fill-rule="evenodd" clip-rule="evenodd" d="M11.1118 0.981636C11.3442 0.594379 11.7627 0.357422 12.2143 0.357422H23.7857C24.2373 0.357422 24.6558 0.594379 24.8882 0.981636L28.3708 6.78599H32.1429C33.1658 6.78599 34.147 7.19238 34.8704 7.91572C35.5937 8.63907 36 9.62014 36 10.6431V27.3574C36 28.3803 35.5937 29.3616 34.8704 30.0849C34.147 30.8083 33.1658 31.2146 32.1429 31.2146H3.85714C2.83415 31.2146 1.85308 30.8083 1.12973 30.0849C0.406376 29.3616 0 28.3803 0 27.3574V10.6431C0 9.62017 0.406376 8.63907 1.12973 7.91572C1.85308 7.19238 2.83415 6.78599 3.85714 6.78599H7.62917L11.1118 0.981636ZM10.9286 17.7949C10.9286 13.8895 14.0946 10.7235 18 10.7235C21.9054 10.7235 25.0714 13.8895 25.0714 17.7949C25.0714 21.7004 21.9054 24.8662 18 24.8662C14.0946 24.8662 10.9286 21.7004 10.9286 17.7949Z" fill="url(#paint0_linear_1729_871)"/>
<defs>
<linearGradient id="paint0_linear_1729_871" x1="5.88462" y1="6.29149" x2="32.6875" y2="23.6171" gradientUnits="userSpaceOnUse">
<stop stop-color="#6BB5BE"/>
<stop offset="1" stop-color="#74B192"/>
</linearGradient>
</defs>
</svg>
