<svg width="326" height="39" viewBox="0 0 326 39" fill="none" xmlns="http://www.w3.org/2000/svg">
<path d="M95.2841 11.4347H92.0966C92.0057 10.9119 91.8381 10.4489 91.5938 10.0455C91.3495 9.63636 91.0455 9.28977 90.6818 9.00568C90.3182 8.72159 89.9034 8.50852 89.4375 8.36648C88.9773 8.21875 88.4801 8.14489 87.946 8.14489C86.9972 8.14489 86.1563 8.38352 85.4233 8.86079C84.6904 9.33239 84.1165 10.0256 83.7017 10.9403C83.287 11.8494 83.0796 12.9602 83.0796 14.2727C83.0796 15.608 83.287 16.733 83.7017 17.6477C84.1222 18.5568 84.696 19.2443 85.4233 19.7102C86.1563 20.1705 86.9943 20.4006 87.9375 20.4006C88.4603 20.4006 88.9489 20.3324 89.4034 20.196C89.8637 20.054 90.2756 19.8466 90.6392 19.5739C91.0085 19.3011 91.3182 18.9659 91.5682 18.5682C91.8239 18.1705 92 17.7159 92.0966 17.2045L95.2841 17.2216C95.1648 18.0511 94.9063 18.8295 94.5085 19.5568C94.1165 20.2841 93.6023 20.9261 92.9659 21.483C92.3296 22.0341 91.5853 22.4659 90.733 22.7784C89.8807 23.0852 88.9347 23.2386 87.8949 23.2386C86.3608 23.2386 84.9915 22.8835 83.787 22.1733C82.5824 21.4631 81.6335 20.4375 80.9404 19.0966C80.2472 17.7557 79.9006 16.1477 79.9006 14.2727C79.9006 12.392 80.25 10.7841 80.9489 9.44886C81.6478 8.10795 82.5995 7.08239 83.804 6.37216C85.0085 5.66193 86.3722 5.30682 87.8949 5.30682C88.8665 5.30682 89.7699 5.44318 90.6051 5.71591C91.4404 5.98864 92.1847 6.3892 92.8381 6.91761C93.4915 7.44034 94.0284 8.08239 94.4489 8.84375C94.875 9.59943 95.1534 10.4631 95.2841 11.4347ZM104.319 23.2557C103.006 23.2557 101.873 22.983 100.918 22.4375C99.9694 21.8864 99.2393 21.108 98.7279 20.1023C98.2165 19.0909 97.9609 17.9006 97.9609 16.5312C97.9609 15.1847 98.2165 14.0028 98.7279 12.9858C99.2449 11.9631 99.9665 11.1676 100.893 10.5994C101.819 10.0256 102.907 9.73864 104.157 9.73864C104.964 9.73864 105.725 9.86932 106.441 10.1307C107.163 10.3864 107.799 10.7841 108.35 11.3239C108.907 11.8636 109.344 12.5511 109.663 13.3864C109.981 14.2159 110.14 15.2045 110.14 16.3523V17.2983H99.4097V15.2188H107.182C107.177 14.6278 107.049 14.1023 106.799 13.642C106.549 13.1761 106.199 12.8097 105.751 12.5426C105.307 12.2756 104.79 12.142 104.199 12.142C103.569 12.142 103.015 12.2955 102.538 12.6023C102.06 12.9034 101.688 13.3011 101.421 13.7955C101.16 14.2841 101.026 14.821 101.021 15.4062V17.2216C101.021 17.983 101.16 18.6364 101.438 19.1818C101.717 19.7216 102.106 20.1364 102.606 20.4261C103.106 20.7102 103.691 20.8523 104.361 20.8523C104.81 20.8523 105.217 20.7898 105.58 20.6648C105.944 20.5341 106.259 20.3438 106.526 20.0938C106.793 19.8438 106.995 19.5341 107.131 19.1648L110.012 19.4886C109.83 20.25 109.484 20.9148 108.972 21.483C108.467 22.0455 107.819 22.483 107.029 22.7955C106.239 23.1023 105.336 23.2557 104.319 23.2557ZM116.315 5.54545V23H113.23V5.54545H116.315ZM125.763 23.2557C124.451 23.2557 123.317 22.983 122.363 22.4375C121.414 21.8864 120.684 21.108 120.172 20.1023C119.661 19.0909 119.405 17.9006 119.405 16.5312C119.405 15.1847 119.661 14.0028 120.172 12.9858C120.689 11.9631 121.411 11.1676 122.337 10.5994C123.263 10.0256 124.351 9.73864 125.601 9.73864C126.408 9.73864 127.169 9.86932 127.885 10.1307C128.607 10.3864 129.243 10.7841 129.794 11.3239C130.351 11.8636 130.789 12.5511 131.107 13.3864C131.425 14.2159 131.584 15.2045 131.584 16.3523V17.2983H120.854V15.2188H128.627C128.621 14.6278 128.493 14.1023 128.243 13.642C127.993 13.1761 127.644 12.8097 127.195 12.5426C126.752 12.2756 126.235 12.142 125.644 12.142C125.013 12.142 124.459 12.2955 123.982 12.6023C123.505 12.9034 123.132 13.3011 122.865 13.7955C122.604 14.2841 122.471 14.821 122.465 15.4062V17.2216C122.465 17.983 122.604 18.6364 122.882 19.1818C123.161 19.7216 123.55 20.1364 124.05 20.4261C124.55 20.7102 125.135 20.8523 125.806 20.8523C126.255 20.8523 126.661 20.7898 127.025 20.6648C127.388 20.5341 127.704 20.3438 127.971 20.0938C128.238 19.8438 128.439 19.5341 128.576 19.1648L131.456 19.4886C131.275 20.25 130.928 20.9148 130.417 21.483C129.911 22.0455 129.263 22.483 128.473 22.7955C127.684 23.1023 126.78 23.2557 125.763 23.2557ZM134.811 23V5.54545H137.896V12.0739H138.024C138.183 11.7557 138.407 11.4176 138.697 11.0597C138.987 10.696 139.379 10.3864 139.873 10.1307C140.367 9.86932 140.998 9.73864 141.765 9.73864C142.777 9.73864 143.688 9.99716 144.501 10.5142C145.319 11.0256 145.967 11.7841 146.444 12.7898C146.927 13.7898 147.169 15.017 147.169 16.4716C147.169 17.9091 146.933 19.1307 146.461 20.1364C145.99 21.142 145.348 21.9091 144.535 22.4375C143.723 22.9659 142.802 23.2301 141.774 23.2301C141.024 23.2301 140.402 23.1051 139.907 22.8551C139.413 22.6051 139.015 22.304 138.714 21.9517C138.419 21.5937 138.188 21.2557 138.024 20.9375H137.845V23H134.811ZM137.836 16.4545C137.836 17.3011 137.956 18.0426 138.194 18.679C138.438 19.3153 138.788 19.8125 139.242 20.1705C139.703 20.5227 140.26 20.6989 140.913 20.6989C141.595 20.6989 142.166 20.517 142.626 20.1534C143.086 19.7841 143.433 19.2812 143.666 18.6449C143.904 18.0028 144.024 17.2727 144.024 16.4545C144.024 15.642 143.907 14.9205 143.674 14.2898C143.441 13.6591 143.095 13.1648 142.635 12.8068C142.174 12.4489 141.6 12.2699 140.913 12.2699C140.254 12.2699 139.694 12.4432 139.234 12.7898C138.774 13.1364 138.424 13.6222 138.186 14.2472C137.953 14.8722 137.836 15.608 137.836 16.4545ZM150.271 23V9.90909H153.263V12.0909H153.399C153.638 11.3352 154.047 10.7528 154.627 10.3438C155.212 9.92898 155.879 9.72159 156.629 9.72159C156.8 9.72159 156.99 9.73011 157.2 9.74716C157.416 9.75852 157.595 9.77841 157.737 9.80682V12.6449C157.607 12.5994 157.399 12.5597 157.115 12.5256C156.837 12.4858 156.567 12.4659 156.306 12.4659C155.743 12.4659 155.237 12.5881 154.789 12.8324C154.345 13.071 153.996 13.4034 153.74 13.8295C153.485 14.2557 153.357 14.7472 153.357 15.304V23H150.271ZM163.8 23.2642C162.97 23.2642 162.223 23.1165 161.558 22.821C160.899 22.5199 160.376 22.0767 159.99 21.4915C159.609 20.9062 159.419 20.1847 159.419 19.3267C159.419 18.5881 159.555 17.9773 159.828 17.4943C160.101 17.0114 160.473 16.625 160.945 16.3352C161.416 16.0455 161.947 15.8267 162.538 15.679C163.135 15.5256 163.751 15.4148 164.388 15.3466C165.155 15.267 165.777 15.196 166.254 15.1335C166.732 15.0653 167.078 14.9631 167.294 14.8267C167.516 14.6847 167.626 14.4659 167.626 14.1705V14.1193C167.626 13.4773 167.436 12.9801 167.055 12.6278C166.675 12.2756 166.126 12.0994 165.411 12.0994C164.655 12.0994 164.055 12.2642 163.612 12.5938C163.175 12.9233 162.879 13.3125 162.726 13.7614L159.845 13.3523C160.072 12.5568 160.447 11.892 160.97 11.358C161.493 10.8182 162.132 10.4148 162.888 10.1477C163.644 9.875 164.479 9.73864 165.394 9.73864C166.024 9.73864 166.652 9.8125 167.277 9.96023C167.902 10.108 168.473 10.3523 168.99 10.6932C169.507 11.0284 169.922 11.4858 170.234 12.0653C170.553 12.6449 170.712 13.3693 170.712 14.2386V23H167.746V21.2017H167.644C167.456 21.5653 167.192 21.9062 166.851 22.2244C166.516 22.5369 166.092 22.7898 165.581 22.983C165.075 23.1705 164.482 23.2642 163.8 23.2642ZM164.601 20.9972C165.22 20.9972 165.757 20.875 166.212 20.6307C166.666 20.3807 167.016 20.0511 167.26 19.642C167.51 19.233 167.635 18.7869 167.635 18.304V16.7614C167.538 16.8409 167.374 16.9148 167.141 16.983C166.913 17.0511 166.658 17.1108 166.374 17.1619C166.09 17.2131 165.808 17.2585 165.53 17.2983C165.251 17.3381 165.01 17.3722 164.805 17.4006C164.345 17.4631 163.933 17.5653 163.57 17.7074C163.206 17.8494 162.919 18.0483 162.709 18.304C162.499 18.554 162.394 18.8778 162.394 19.2756C162.394 19.8438 162.601 20.2727 163.016 20.5625C163.43 20.8523 163.959 20.9972 164.601 20.9972ZM180.831 9.90909V12.2955H173.305V9.90909H180.831ZM175.163 6.77273H178.249V19.0625C178.249 19.4773 178.311 19.7955 178.436 20.017C178.567 20.233 178.737 20.3807 178.947 20.4602C179.158 20.5398 179.391 20.5795 179.646 20.5795C179.839 20.5795 180.016 20.5653 180.175 20.5369C180.339 20.5085 180.464 20.483 180.55 20.4602L181.07 22.8722C180.905 22.929 180.669 22.9915 180.362 23.0597C180.061 23.1278 179.692 23.1676 179.254 23.179C178.481 23.2017 177.785 23.0852 177.166 22.8295C176.547 22.5682 176.055 22.1648 175.692 21.6193C175.334 21.0739 175.158 20.392 175.163 19.5739V6.77273ZM189.546 23.2557C188.233 23.2557 187.1 22.983 186.145 22.4375C185.197 21.8864 184.466 21.108 183.955 20.1023C183.444 19.0909 183.188 17.9006 183.188 16.5312C183.188 15.1847 183.444 14.0028 183.955 12.9858C184.472 11.9631 185.194 11.1676 186.12 10.5994C187.046 10.0256 188.134 9.73864 189.384 9.73864C190.191 9.73864 190.952 9.86932 191.668 10.1307C192.39 10.3864 193.026 10.7841 193.577 11.3239C194.134 11.8636 194.572 12.5511 194.89 13.3864C195.208 14.2159 195.367 15.2045 195.367 16.3523V17.2983H184.637V15.2188H192.41C192.404 14.6278 192.276 14.1023 192.026 13.642C191.776 13.1761 191.427 12.8097 190.978 12.5426C190.535 12.2756 190.018 12.142 189.427 12.142C188.796 12.142 188.242 12.2955 187.765 12.6023C187.287 12.9034 186.915 13.3011 186.648 13.7955C186.387 14.2841 186.253 14.821 186.248 15.4062V17.2216C186.248 17.983 186.387 18.6364 186.665 19.1818C186.944 19.7216 187.333 20.1364 187.833 20.4261C188.333 20.7102 188.918 20.8523 189.589 20.8523C190.037 20.8523 190.444 20.7898 190.807 20.6648C191.171 20.5341 191.486 20.3438 191.753 20.0938C192.02 19.8438 192.222 19.5341 192.358 19.1648L195.239 19.4886C195.057 20.25 194.711 20.9148 194.199 21.483C193.694 22.0455 193.046 22.483 192.256 22.7955C191.466 23.1023 190.563 23.2557 189.546 23.2557Z" fill="url(#paint0_linear_213_856)"/>
<path d="M205.027 23V5.54545H208.189V20.3494H215.876V23H205.027ZM218.964 23V9.90909H222.049V23H218.964ZM220.515 8.05114C220.026 8.05114 219.606 7.8892 219.254 7.56534C218.901 7.23579 218.725 6.84091 218.725 6.38068C218.725 5.91477 218.901 5.51989 219.254 5.19602C219.606 4.86648 220.026 4.7017 220.515 4.7017C221.009 4.7017 221.43 4.86648 221.776 5.19602C222.129 5.51989 222.305 5.91477 222.305 6.38068C222.305 6.84091 222.129 7.23579 221.776 7.56534C221.43 7.8892 221.009 8.05114 220.515 8.05114ZM232.332 9.90909V12.2955H224.594V9.90909H232.332ZM226.528 23V8.67329C226.528 7.79261 226.71 7.05966 227.074 6.47443C227.443 5.8892 227.938 5.4517 228.557 5.16193C229.176 4.87216 229.864 4.72727 230.619 4.72727C231.153 4.72727 231.628 4.76989 232.043 4.85511C232.457 4.94034 232.764 5.01705 232.963 5.08523L232.35 7.47159C232.219 7.43182 232.054 7.39204 231.855 7.35227C231.656 7.30682 231.435 7.28409 231.19 7.28409C230.617 7.28409 230.21 7.4233 229.972 7.7017C229.739 7.97443 229.622 8.36648 229.622 8.87784V23H226.528ZM240.532 23.2557C239.219 23.2557 238.086 22.983 237.131 22.4375C236.182 21.8864 235.452 21.108 234.941 20.1023C234.43 19.0909 234.174 17.9006 234.174 16.5312C234.174 15.1847 234.43 14.0028 234.941 12.9858C235.458 11.9631 236.18 11.1676 237.106 10.5994C238.032 10.0256 239.12 9.73864 240.37 9.73864C241.177 9.73864 241.938 9.86932 242.654 10.1307C243.376 10.3864 244.012 10.7841 244.563 11.3239C245.12 11.8636 245.557 12.5511 245.876 13.3864C246.194 14.2159 246.353 15.2045 246.353 16.3523V17.2983H235.623V15.2188H243.396C243.39 14.6278 243.262 14.1023 243.012 13.642C242.762 13.1761 242.413 12.8097 241.964 12.5426C241.521 12.2756 241.004 12.142 240.413 12.142C239.782 12.142 239.228 12.2955 238.751 12.6023C238.273 12.9034 237.901 13.3011 237.634 13.7955C237.373 14.2841 237.239 14.821 237.234 15.4062V17.2216C237.234 17.983 237.373 18.6364 237.651 19.1818C237.93 19.7216 238.319 20.1364 238.819 20.4261C239.319 20.7102 239.904 20.8523 240.575 20.8523C241.023 20.8523 241.43 20.7898 241.793 20.6648C242.157 20.5341 242.472 20.3438 242.739 20.0938C243.006 19.8438 243.208 19.5341 243.344 19.1648L246.225 19.4886C246.043 20.25 245.697 20.9148 245.185 21.483C244.68 22.0455 244.032 22.483 243.242 22.7955C242.452 23.1023 241.549 23.2557 240.532 23.2557Z" fill="url(#paint1_linear_213_856)"/>
<mask id="mask0_213_856" style="mask-type:alpha" maskUnits="userSpaceOnUse" x="73" y="29" width="233" height="10">
<rect width="231.935" height="7.81549" transform="matrix(0.999971 -0.00763942 0.00929191 0.999957 73 30.7795)" fill="#C4C4C4"/>
</mask>
<g mask="url(#mask0_213_856)">
<path d="M107.821 28.8593L108.387 28.7519L107.282 28.6127L107.81 28.5005C108.34 28.4975 109.029 28.6542 109.402 28.5652C109.447 28.4816 108.869 28.4592 108.721 28.394C108.59 28.3269 108.483 28.2601 108.401 28.1944C108.69 28.1929 109.008 28.2065 109.335 28.2344C109.776 28.2808 110.208 28.3016 110.584 28.2947C111.352 28.3022 112.095 28.2831 112.93 28.2797L112.65 28.0813L113.727 28.1199C113.841 28.1343 113.977 28.1087 114.089 28.1267C115.024 28.2795 115.418 28.1893 115.865 28.1136C115.957 28.0942 116.067 28.0794 116.194 28.0696C117.439 28.0984 118.563 28.3139 119.685 28.4204C119.897 28.4482 120.099 28.4843 120.279 28.5263C120.67 28.6077 121.104 28.6732 121.542 28.7169C121.98 28.7606 122.409 28.7811 122.788 28.7765C123.626 28.7683 124.573 28.8168 125.538 28.9174C125.825 28.9508 126.112 28.972 126.381 28.9798C126.65 28.9876 126.894 28.9818 127.099 28.9627L127.752 29.0722C128.034 29.0236 128.392 28.9954 128.804 28.9892C129.217 28.9831 129.674 28.9992 130.15 29.0365C130.657 29.0771 131.171 29.1031 131.697 29.1461C132.783 29.2277 133.84 29.2745 134.835 29.2853C136.316 29.3283 137.763 29.3592 139.258 29.4155C140.193 29.4411 141.103 29.4521 141.984 29.4485C143.04 29.4532 144.182 29.5064 145.356 29.6056C145.302 29.7074 144.787 29.6814 144.442 29.6806C143.328 29.6723 142.188 29.6374 141.042 29.6133C140.526 29.6045 140.024 29.6035 139.539 29.6103C138.729 29.6123 137.874 29.5919 136.99 29.5492C135.594 29.5056 134.242 29.4898 132.949 29.5021C132.848 29.5069 132.755 29.5147 132.673 29.5255C132.655 29.5344 132.652 29.5454 132.663 29.5576C132.674 29.5698 132.699 29.5827 132.735 29.595C132.771 29.6074 132.818 29.6188 132.87 29.6282C132.922 29.6376 132.978 29.6447 133.033 29.6487C133.548 29.7135 134.1 29.7831 134.584 29.7898C134.603 29.7904 134.623 29.792 134.643 29.7945C134.662 29.797 134.681 29.8003 134.698 29.8042C135.784 29.941 136.675 29.9096 137.52 29.9267C138.922 29.9798 140.274 29.9993 141.554 29.9848C141.748 29.9836 141.957 29.9903 142.174 30.0046C143.516 30.0591 144.77 30.0567 145.878 29.9976C146.334 29.9813 146.758 29.9493 147.248 29.945C147.55 29.9407 147.812 29.9203 148.02 29.8851C148.227 29.8498 148.376 29.8004 148.456 29.7399C148.663 29.7699 148.873 29.7964 149.084 29.8191C149.21 29.8321 149.331 29.8348 149.422 29.8269C149.513 29.8189 149.568 29.8007 149.575 29.7761C149.612 29.7069 149.324 29.6746 149.075 29.647C149.225 29.6311 149.394 29.6211 149.579 29.6173C150.617 29.5936 151.731 29.6036 152.897 29.6471C153.802 29.703 154.524 29.6463 155.476 29.7276C155.59 29.742 155.684 29.7188 155.789 29.7126C156.063 29.6822 156.404 29.6732 156.783 29.6865C157.162 29.6997 157.567 29.7348 157.964 29.7887C158.456 29.6293 159.524 29.7989 160.312 29.8089C160.555 29.8861 160.277 29.8744 160.265 29.8962C160.253 29.918 160.265 29.8962 160.17 29.8842C159.385 30.0023 158.308 30.035 157.09 29.9777C156.865 29.9797 156.651 29.9864 156.449 29.9979C156.144 30.0142 155.799 30.0154 155.431 30.0016C155.028 29.9924 154.658 30.001 154.34 30.0271C154.156 30.0282 154.001 30.0412 153.888 30.0651C153.776 30.089 153.71 30.1229 153.697 30.1637C153.82 30.1941 153.956 30.2218 154.1 30.2456C154.853 30.3382 155.603 30.3732 156.203 30.3436C157.247 30.2926 158.49 30.325 159.6 30.3018C160.35 30.2901 161.149 30.3009 161.982 30.334C161.982 30.334 161.96 30.3741 161.958 30.3777C162.057 30.3942 162.16 30.4073 162.263 30.4161C162.263 30.4161 162.263 30.4161 162.273 30.3979C162.227 30.3809 162.165 30.365 162.094 30.3521L161.846 30.3209C162.014 30.311 162.171 30.2841 162.346 30.2984C162.716 30.3247 163.068 30.3343 163.383 30.3266C163.699 30.3189 163.969 30.2942 164.18 30.2537C164.553 30.2012 165.017 30.175 165.542 30.1769C165.945 30.1684 166.333 30.1537 166.704 30.133C166.704 30.133 166.728 30.0894 166.904 30.0649C166.737 30.0377 166.563 30.0158 166.389 30.0001C165.637 29.9635 164.882 29.9305 164.142 29.9071C163.87 29.9061 163.614 29.9129 163.379 29.9275C162.729 29.9474 161.997 29.9318 161.228 29.8817C161.228 29.8817 161.076 29.8625 161 29.8529C161.215 29.7556 161.959 29.8456 162.259 29.7786C162.442 29.7783 162.765 29.784 162.753 29.7671C162.728 29.7445 162.725 29.7234 162.744 29.7053C162.763 29.6871 162.804 29.6724 162.864 29.6621C162.924 29.6519 163.001 29.6463 163.091 29.6459C163.18 29.6454 163.279 29.6501 163.38 29.6596C164.227 29.7087 165.025 29.718 165.724 29.687C165.989 29.6855 166.286 29.6997 166.55 29.7018C166.711 29.7055 166.858 29.7016 166.983 29.6903C167.618 29.6094 168.473 29.5973 169.42 29.6558C169.878 29.6759 170.306 29.6758 170.681 29.6554C170.948 29.6503 171.062 29.7034 171.252 29.7274L172.06 29.7749L171.024 29.8501C171.247 30.0026 171.424 30.0521 171.786 30.0589C172.315 30.0693 172.829 30.0719 173.327 30.0667C173.695 30.0626 173.999 30.0271 174.498 30.0822C174.586 30.0911 174.671 30.0936 174.738 30.0892C175.321 30.0324 176.024 30.0149 176.798 30.0381C177.198 29.937 177.882 30.0271 178.514 30.0991C178.717 30.0237 178.348 29.9926 178.127 29.9492C178.655 29.9498 179.187 29.9431 179.733 29.9497C179.897 29.9445 180.084 29.9498 180.281 29.9651C180.477 29.9804 180.677 30.0053 180.864 30.038C180.956 30.0593 181.066 30.075 181.172 30.0818C181.278 30.0887 181.372 30.0862 181.434 30.0748C181.717 30.0405 182.171 30.0666 182.404 30.0106C182.487 29.9975 182.606 29.9948 182.739 30.0031C182.873 30.0114 183.012 30.0301 183.132 30.0558C183.001 30.0651 182.884 30.0791 182.784 30.0974C182.427 30.1572 182.559 30.2516 183.015 30.3868C183.713 30.3738 184.427 30.3705 185.074 30.3394C185.434 30.3132 185.876 30.3171 186.35 30.3508C186.824 30.3845 187.311 30.4465 187.757 30.53C187.918 30.5622 188.101 30.5839 188.271 30.5909C188.44 30.5979 188.583 30.5896 188.672 30.5677C188.726 30.5427 188.743 30.5115 188.72 30.4767L188.263 30.4191C188.263 30.4191 188.281 30.3863 188.285 30.3791L188.941 30.3686C189.288 30.3657 189.65 30.3725 189.979 30.3673C190.46 30.3454 191.011 30.3513 191.596 30.3847C192.135 30.4194 192.665 30.4446 193.181 30.4603C193.681 30.4766 194.042 30.4095 194.517 30.3956C194.876 30.3851 195.272 30.3903 195.688 30.4111C196.407 30.4481 197.067 30.4431 197.607 30.3966C198.239 30.6201 198.546 30.6548 199.13 30.5887L199.405 30.5689L199.481 30.6173L199.691 30.6049C200.084 30.5923 200.477 30.5797 200.887 30.5732C201.457 30.59 202.074 30.6423 202.676 30.7249C202.79 30.7393 202.946 30.79 203.047 30.8299C203.147 30.8698 203.367 30.9907 203.528 31.0693C203.354 31.1289 203.16 31.1861 203.022 31.2541C203.008 31.2657 203.01 31.2793 203.026 31.2939C203.043 31.3086 203.075 31.3238 203.118 31.3383C203.162 31.3529 203.216 31.3664 203.277 31.3778C203.339 31.3892 203.405 31.3981 203.47 31.4039C203.598 31.4164 203.725 31.4244 203.844 31.4276C204.432 31.4303 204.994 31.4206 205.526 31.3989C205.721 31.3725 205.987 31.3681 206.282 31.3864C206.578 31.4047 206.887 31.4446 207.16 31.4999C207.856 31.4601 208.665 31.4641 209.532 31.5115C210.448 31.4716 211.555 31.5296 212.411 31.451C212.391 31.4874 212.48 31.5491 212.603 31.5841C212.799 31.6372 213.02 31.6861 213.258 31.7287L215.069 31.8016C215.137 31.8457 215.222 31.8903 215.323 31.9346C215.392 31.9698 215.512 32.0037 215.657 32.0293C215.803 32.055 215.963 32.0702 216.103 32.0718C216.463 32.0823 216.765 32.0504 217.195 32.1202C216.534 32.1943 215.642 32.192 214.678 32.1136C213.772 32.0553 212.9 32.0294 212.096 32.0368C211.831 32.0383 211.482 32.0448 211.399 32.0849C211.217 32.1979 210.736 32.1839 210.176 32.1676C209.736 32.1485 209.334 32.1541 209.003 32.184C208.672 32.2139 208.423 32.2673 208.274 32.3397C208.237 32.4088 208.328 32.4669 208.715 32.504L210.322 32.6523C210.559 32.6298 210.783 32.6036 210.995 32.5739C211.351 32.5338 211.791 32.5201 212.281 32.534C212.77 32.5479 213.297 32.589 213.818 32.654C214.085 32.6876 214.351 32.7212 214.544 32.7028C214.714 32.6821 214.869 32.6576 215.011 32.6295C215.039 32.6112 215.05 32.5903 215.044 32.5677C215.146 32.5774 215.249 32.5904 215.348 32.6061C216.143 32.7917 216.758 32.7837 217.315 32.7297C217.466 32.7137 217.581 32.6894 217.734 32.6698C217.886 32.6502 217.94 32.6259 218.079 32.6318C219.189 32.6862 219.506 32.4737 220.44 32.4749C220.486 32.4664 220.514 32.4539 220.522 32.4386C220.53 32.4234 220.518 32.4058 220.487 32.3876C220.421 32.3714 220.345 32.3577 220.265 32.3476C220.185 32.3376 220.104 32.3315 220.03 32.33C219.6 32.3063 219.22 32.3175 218.956 32.3616C218.769 32.3803 218.571 32.3955 218.362 32.4072L217.424 32.1102C218.331 32.1311 219.188 32.1244 219.976 32.0901C220.148 32.0729 220.439 32.098 220.681 32.1013L222.463 32.1161C222.829 32.1156 223.14 32.0656 223.652 32.1728C223.652 32.1728 223.989 32.1881 224.079 32.1723C224.169 32.1564 224.567 32.0589 224.804 31.9956C225.081 32.011 225.463 32.0554 225.635 32.0382C225.935 31.997 226.195 31.945 226.41 31.8833L227.486 31.9608C227.486 32.0369 227.447 32.1089 227.371 32.1755C227.288 32.2398 227.291 32.3162 227.381 32.3984C227.472 32.4807 227.646 32.5665 227.889 32.6487L228.956 33.0862C229.129 33.1147 229.314 33.1334 229.486 33.1397C229.657 33.1459 229.806 33.1396 229.913 33.1214C230.369 33.0662 230.881 33.022 231.338 32.9669C231.928 33.0413 231.777 33.17 232.207 33.2785L233.597 33.4537C233.81 33.6244 234.028 33.7877 233.384 33.8504C233.256 33.8614 233.343 33.9268 233.227 33.9548C233.729 34.0802 234.279 34.1147 234.788 34.1904C234.988 34.2462 235.156 34.3055 235.283 34.3656C235.423 34.4564 235.705 34.5481 236.069 34.6209C236.434 34.6937 236.85 34.7417 237.229 34.7546C237.865 34.7982 238.517 34.8658 239.155 34.9547C239.373 34.9856 239.597 35.0076 239.811 35.0193C240.026 35.0309 240.227 35.0319 240.399 35.0222C241.016 35.0027 241.537 34.948 241.929 34.8615C242.317 34.7878 242.841 34.7496 243.452 34.7506C244.5 34.8826 244.713 35.092 245.347 35.2731L244.254 35.3023C244.215 35.3751 244.288 35.4659 243.84 35.4676C243.392 35.4694 243.62 35.537 243.766 35.6059C243.817 35.6407 243.918 35.6762 244.05 35.7063C244.182 35.7364 244.338 35.7593 244.49 35.7711L245.422 35.8535C245.752 35.8851 246.072 35.8972 246.346 35.8885C246.619 35.8799 246.836 35.8507 246.973 35.8043C247.13 35.7601 247.348 35.7293 247.611 35.7139C247.947 35.6762 248.224 35.6218 248.43 35.5529L249.745 35.6409C249.8 35.5728 249.98 35.524 250.254 35.5026C250.529 35.4813 250.881 35.4888 251.251 35.5239L252.137 35.5774C253.122 35.6355 253.338 35.6122 253.625 35.4192L252.441 35.0873C252.611 34.9962 252.776 34.916 252.941 34.8358C252.646 34.7257 252.253 34.6225 251.801 34.5366C251.379 34.4438 250.946 34.3542 250.502 34.2679C250.02 34.1801 249.512 34.1043 248.914 34.0057C248.81 33.9731 248.658 33.9151 248.464 33.8596C248.27 33.8057 248.068 33.7529 247.858 33.7015C247.897 33.6288 247.932 33.5633 247.855 33.4797C248.223 33.5038 248.603 33.5478 248.961 33.6079C249.319 33.668 249.644 33.7422 249.907 33.8239C249.951 33.8384 250.005 33.8519 250.065 33.8635C250.126 33.8752 250.191 33.8846 250.257 33.8913C250.903 33.9378 251.212 34.0428 251.529 34.1721C251.742 34.2378 252.017 34.2955 252.315 34.3372C252.886 34.4092 253.445 34.5031 253.992 34.5836C254.159 34.6106 254.333 34.6325 254.506 34.6484C255.077 34.699 255.651 34.7714 256.201 34.8621C256.38 34.8848 256.552 34.9154 256.702 34.9513C256.853 34.9871 256.977 35.0272 257.066 35.0683C256.93 35.115 256.858 35.1732 256.852 35.2394C256.828 35.2831 257.23 35.3687 257.42 35.4314C257.61 35.4942 257.238 35.4668 257.112 35.4742C256.595 35.4906 256.499 35.5174 256.81 35.6576C256.914 35.7017 256.983 35.746 257.013 35.7879C257.043 35.8298 257.034 35.8683 256.985 35.901C256.913 36.0357 256.69 36.1475 256.538 36.2798C256.777 36.3643 257.176 36.4535 257.221 36.5601C257.242 36.5837 257.286 36.6085 257.35 36.6327C257.415 36.6569 257.497 36.68 257.593 36.7002C257.843 36.7436 258.072 36.796 258.259 36.8533C258.447 36.9107 258.59 36.9715 258.676 37.031C258.704 37.0557 258.772 37.0816 258.865 37.1035C258.959 37.1254 259.072 37.1417 259.181 37.1492C259.312 37.1583 259.429 37.1561 259.508 37.1429C259.587 37.1297 259.622 37.1066 259.606 37.0783C259.608 37.025 259.591 36.9695 259.552 36.9124C259.574 36.8723 259.595 36.8323 259.509 36.767C259.899 36.7881 260.308 36.8332 260.693 36.8975C261.078 36.9617 261.423 37.0427 261.691 37.1315C261.988 37.2233 262.261 37.3199 262.59 37.4274C262.524 37.5511 262.524 37.5511 263.223 37.7635L266.922 37.8414L267.681 37.9798C268.389 38.1001 268.557 38.0902 269 38.0218L269.298 37.9584C269.927 38.0376 270.65 38.1289 271.041 37.9684C271.17 38.07 271.253 38.1039 271.225 38.1197C271.039 38.2726 270.714 38.4036 270.264 38.5075C270.149 38.5319 270.069 38.5683 269.935 38.5903C269.504 38.7119 269.406 38.8954 269.66 39.1034C269.786 39.1953 269.968 39.289 270.202 39.3815C269.863 39.5149 269.413 39.6267 268.864 39.714C268.399 39.7818 268.016 39.8708 267.726 39.9784C267.466 40.0867 267.077 40.1695 266.579 40.2223C266.327 40.245 266.143 40.2874 266.045 40.3453C266.018 40.5003 266.086 40.6655 266.249 40.8372C266.28 40.8896 266.367 40.9458 266.503 41.0013C266.639 41.0569 266.82 41.1103 267.033 41.1574C267.033 41.1574 267.135 41.1936 267.184 41.2154C267.227 41.4025 267.075 41.5688 266.74 41.7032C266.685 41.741 266.572 41.7689 266.414 41.7838C266.255 41.7988 266.057 41.8002 265.84 41.7879C265.383 41.7691 264.956 41.7696 264.513 41.7605C264.037 41.7464 263.617 41.7636 263.299 41.8103C262.98 41.857 262.775 41.9314 262.704 42.0257C262.699 42.0524 262.686 42.0779 262.663 42.1022C262.65 42.1147 262.642 42.1281 262.641 42.1422L263.66 42.4415L262.512 42.5726C262.446 42.6963 262.998 42.766 263.275 42.8553L263.105 42.9076C262.885 42.9382 262.588 42.8852 262.32 42.8553L262.053 42.8217L262.022 42.8799C261.857 42.9601 261.251 42.876 261.016 42.9357C260.781 42.9953 260.95 43.0594 261.304 43.1195C261.55 43.1644 261.814 43.1996 262.076 43.2226C262.339 43.2456 262.592 43.2557 262.818 43.2522C262.953 43.245 263.065 43.23 263.147 43.2082C263.623 43.1142 264.149 43.0326 264.721 42.9638C265.16 42.9026 265.71 42.8738 266.332 42.8794C266.515 42.8736 266.735 42.8856 266.954 42.9133C267.174 42.941 267.378 42.9825 267.532 43.0306L267.854 43.0363C267.854 43.0363 268.031 43.0858 268.006 43.0943C267.885 43.2458 268.029 43.4288 268.417 43.6162L268.081 43.636C267.601 43.622 267.906 43.7344 267.835 43.7914C267.494 43.7834 267.05 43.7391 266.889 43.812L266.647 43.8087L266.742 43.8207L266.857 43.7963L267.309 43.9C267.095 43.9196 266.941 43.9428 266.752 43.954C266.647 43.9632 266.564 43.9787 266.508 43.9996C266.451 44.0205 266.422 44.0464 266.422 44.0756C266.423 44.1205 266.367 44.1588 266.259 44.1867C266.152 44.2146 265.996 44.2313 265.808 44.2351C265.583 44.2378 265.454 44.2877 265.322 44.306L265.899 44.5962C265.899 44.5962 265.613 44.5602 265.769 44.6109L265.788 44.5745L266.136 44.6456C266.387 44.7083 266.563 44.7226 266.71 44.6752C266.858 44.6277 266.824 44.6896 266.895 44.6713C266.87 44.7186 266.709 44.7528 266.571 44.782C266.412 44.8054 266.232 44.8231 266.035 44.8348C266.393 45.0392 266.41 45.0452 265.89 45.1041C265.371 45.1629 265.551 45.2439 265.116 45.259C264.681 45.274 265.177 45.4104 265.469 45.4355C265.685 45.4518 265.905 45.4781 266.115 45.5126C266.324 45.547 266.518 45.5889 266.683 45.6352L266.597 45.7953C266.469 45.7831 266.34 45.7669 266.216 45.7473C265.794 45.6629 265.409 45.5834 265.035 45.6372L265.215 45.757L263.905 45.6968C263.94 45.7873 264.14 45.8892 264.464 45.9809C264.416 46.0331 264.387 46.0878 264.376 46.1447C264.355 46.1847 264.225 46.1606 264.142 46.1656C263.842 46.1745 263.596 46.2034 263.426 46.2497C263.256 46.296 263.166 46.3582 263.166 46.431C263.132 46.4928 263.594 46.6171 263.882 46.6107C264.602 46.6175 265.38 46.6589 266.175 46.7327C266.659 46.7394 266.726 46.5769 267.524 46.6813C267.541 46.756 267.439 46.8173 267.235 46.8561C267.031 46.8948 266.735 46.9089 266.392 46.8961C266.589 47.0607 267.668 47.0957 267.717 47.269C267.448 47.2588 267.161 47.2321 266.883 47.1916C266.605 47.1512 266.347 47.0983 266.133 47.0382C266.087 47.0234 266.029 47.0098 265.965 46.9987C265.901 46.9877 265.832 46.9795 265.766 46.975C265.699 46.9705 265.637 46.9698 265.584 46.9729C265.532 46.9761 265.491 46.983 265.466 46.993C265.616 47.0546 265.781 47.1259 265.969 47.1923C266.157 47.2588 266.202 47.2878 266.338 47.301C267.347 47.4282 267.828 47.6676 268.702 47.8204C268.93 47.8492 268.96 47.9462 268.761 47.9367C268.573 47.9272 268.402 47.9299 268.269 47.9446C268.135 47.9594 268.044 47.9855 268.005 48.0201C267.859 48.0612 267.677 48.0944 267.464 48.1189C268.361 48.3615 269.429 48.5737 270.569 48.7356C270.785 48.7677 271.01 48.7866 271.211 48.7894C271.846 48.7848 272.521 48.7994 273.221 48.833C273.469 48.8417 273.698 48.8389 273.896 48.8249C274.545 48.7901 275.061 48.8513 275.533 49.0313L276.316 49.3164C276.29 49.3637 276.16 49.4172 276.06 49.49L276.67 49.6408L281.313 49.2472L282.249 49.5866L283.587 49.5571C283.689 49.5663 283.792 49.5793 283.891 49.5955C284.163 49.6957 284.375 49.7924 284.67 49.8878C284.964 49.9832 285.488 49.9911 285.855 50.1033C286.222 50.2156 286.588 50.2151 287.041 50.28C287.084 50.3688 287.041 50.4493 286.914 50.5165C286.873 50.5929 286.644 50.6417 286.604 50.7145C286.61 50.7877 286.525 50.8505 286.358 50.8973C286.19 50.9441 285.946 50.9733 285.648 50.9823C284.812 51.1447 283.803 51.2635 282.653 51.3351C282.552 51.3404 282.468 51.3516 282.407 51.3679C282.345 51.3843 282.308 51.4054 282.297 51.4301C282.299 51.5011 282.223 51.5632 282.074 51.6116C281.925 51.66 281.706 51.6936 281.435 51.7099C281.363 51.7133 281.308 51.7227 281.278 51.7368C281.175 51.7465 281.101 51.7642 281.061 51.7882C281.021 51.8121 281.018 51.8416 281.052 51.8736C281.086 51.9056 281.156 51.9391 281.255 51.9709C281.353 52.0027 281.478 52.0317 281.616 52.0551C281.816 52.093 282.02 52.1292 282.228 52.1635C282.217 52.1853 282.011 52.1904 282.041 52.2097C282.123 52.2716 282.142 52.3301 282.098 52.3804C282.053 52.4307 281.945 52.4716 281.784 52.4997L282.899 52.9977C283.574 53.0627 284.236 53.1766 284.76 53.3178C284.761 53.3416 284.731 53.3618 284.673 53.3763C284.616 53.3909 284.532 53.3993 284.431 53.4007C284.16 53.4131 283.904 53.4352 283.612 53.4489C283.434 53.4589 283.285 53.4788 283.176 53.5077C283.066 53.5365 282.997 53.5737 282.973 53.617L283.627 53.8004C283.418 53.8479 283.264 53.8712 283.126 53.9004C283.205 53.959 283.34 54.0193 283.52 54.0764C283.701 54.1336 283.923 54.1861 284.169 54.23C284.235 54.239 284.302 54.2453 284.366 54.2488C284.431 54.2523 284.491 54.2527 284.544 54.2502C285.049 54.1817 285.64 54.2912 286.215 54.3948C286.79 54.4983 287.102 54.5609 287.526 54.6416L288.337 54.6467C288.542 54.6848 288.725 54.7302 288.872 54.779C289.019 54.8279 289.125 54.8789 289.182 54.928C289.139 55.0081 288.754 54.9673 288.525 54.9773C287.982 55.0311 287.267 55.026 286.5 54.9629C286.309 54.9389 286.115 54.9609 285.929 54.9648C285.53 54.9778 285.147 54.9968 284.781 55.022C284.54 55.0446 284.314 55.072 284.106 55.104C284.052 55.2059 284.928 55.2775 284.432 55.3315C284.603 55.3531 284.667 55.3845 284.755 55.3723C285.32 55.4338 285.875 55.4621 286.358 55.4539C287.285 55.4328 288.337 55.471 289.429 55.5653C290.608 55.6626 291.739 55.6986 292.727 55.6703C293.104 55.6662 293.525 55.6847 293.959 55.7245C294.471 55.7803 294.979 55.8139 295.451 55.8233C295.607 55.8225 295.781 55.8313 295.959 55.849C296.136 55.8667 296.313 55.8927 296.474 55.925C296.46 55.9505 296.307 55.9701 296.341 55.9821C296.831 56.1682 297.031 56.3643 297.784 56.5524C298.298 56.6173 298.888 56.6917 299.223 56.5979C299.558 56.5042 299.437 56.4268 298.767 56.1985C298.912 56.1941 299.086 56.2036 299.26 56.2256C299.434 56.2475 299.596 56.2804 299.719 56.3186L300.298 56.4887L300.821 56.6517C300.776 56.7354 300.74 56.8009 300.703 56.87C300.644 56.9436 300.711 57.0321 300.893 57.1231C301.003 57.1727 301.098 57.2224 301.179 57.2718C301.506 57.4694 301.603 57.6577 301.456 57.8157C301.176 58.0435 300.784 58.254 300.285 58.445C299.758 58.6311 299.471 58.863 299.038 59.0647C298.816 59.1567 298.547 59.2398 298.234 59.313C297.638 59.4749 296.986 59.6296 296.389 59.7952C295.792 59.9608 295.117 60.0816 294.454 60.2194C293.465 60.3845 292.397 60.5287 291.254 60.6512C290.547 60.7563 289.821 60.859 289.167 60.9786C288.395 61.1137 287.487 61.2134 286.466 61.2753C285.565 61.3469 284.76 61.4487 284.067 61.5788C283.994 61.5929 283.937 61.6105 283.897 61.6312C283.773 61.7594 283.423 61.8518 282.902 61.8942C282.934 61.9312 282.975 61.9688 283.024 62.0068C283.097 62.0519 283.113 62.0946 283.069 62.1292C283.025 62.1638 282.923 62.1888 282.778 62.201C282.36 62.2357 282.014 62.2919 281.753 62.3671C281.658 62.3862 281.598 62.4134 281.581 62.4463C281.563 62.4793 281.587 62.517 281.652 62.5563C281.709 62.5968 281.713 62.6344 281.665 62.6643C281.616 62.6942 281.517 62.715 281.379 62.7239C281.026 62.7654 280.648 62.7994 280.247 62.8259C279.394 62.8841 278.401 62.8911 277.328 62.8465C277.214 62.8321 277.1 62.8565 276.966 62.8397C276.208 62.7863 275.503 62.7826 274.939 62.8288C274.277 62.8503 273.585 62.8523 272.886 62.8653C271.878 62.8679 270.947 62.9062 270.122 62.979C269.176 62.922 268.646 63.0378 267.849 63.0461C267.113 63.0632 266.416 63.0961 265.763 63.1444C264.712 63.21 263.664 63.2682 262.627 63.3434C261.655 63.383 260.759 63.4511 259.957 63.5467C259.649 63.5895 259.091 63.5308 258.882 63.6172C258.673 63.7035 258.25 63.6967 257.908 63.7274L256.83 63.8051C256.644 63.8231 256.44 63.8351 256.221 63.841C255.217 63.8544 254.524 63.9728 253.593 64.0031L253.497 63.9911C251.845 64.1719 249.954 64.2787 247.879 64.3083C246.667 64.3692 245.341 64.3769 244.055 64.4245C243.749 64.5025 243.023 64.4149 242.639 64.4869C242.255 64.5589 241.626 64.5184 241.13 64.5336C240.634 64.5488 240.149 64.5809 239.619 64.584C239.158 64.5878 238.77 64.6216 238.489 64.6823C237.846 64.784 237.063 64.8469 236.173 64.8682C234.996 64.9024 233.883 64.968 232.685 64.9646C232.703 65.035 232.63 65.0956 232.474 65.1401C232.318 65.1846 232.084 65.2114 231.797 65.2178C230.517 65.2546 229.357 65.3336 228.059 65.3643L227.712 65.3671L223.832 65.4374C222.787 65.4532 221.779 65.4739 220.713 65.4909C220.313 65.4405 220.304 65.5326 220.028 65.5172C219.95 65.4725 219.859 65.4532 219.723 65.4788L219.694 65.5334L215.266 65.6395C213.533 65.7055 211.709 65.7353 209.811 65.7286C209.36 65.7374 208.94 65.7587 208.557 65.792C208.201 65.8058 207.831 65.8136 207.447 65.8152C206.927 65.8055 206.42 65.8025 205.927 65.8062C204.629 65.8369 203.268 65.8361 201.847 65.8318C200.426 65.8275 199.35 65.8628 198.085 65.8704C197.229 65.8751 196.377 65.8725 195.49 65.8579C195.067 65.8511 194.545 65.8009 194.106 65.7844C193.668 65.768 193.525 65.7694 193.467 65.801C193.277 65.8897 192.797 65.837 192.414 65.8314C191.666 65.8226 191.56 65.7936 191.355 65.5697L192.271 65.491C192.496 65.4661 192.779 65.4599 193.092 65.4729C193.406 65.4858 193.739 65.5176 194.061 65.5651C194.188 65.5856 194.32 65.6015 194.451 65.6119C194.581 65.6224 194.707 65.6271 194.821 65.626C195.747 65.6067 196.659 65.574 197.548 65.5463L197.678 65.5315L197.684 65.3303C197.566 65.3115 197.444 65.2961 197.322 65.2847L192.861 65.1884C191.837 65.1642 190.773 65.1001 189.769 65.0783C188.764 65.0565 188.222 65.0427 187.443 65.0182C187.113 65.0033 186.778 64.9831 186.438 64.9576C186.458 64.9381 186.469 64.9174 186.471 64.8957C186.489 64.863 186.512 64.8193 186.368 64.7856C186.21 64.7376 186 64.6971 185.778 64.6724C185.57 64.6565 185.369 64.6481 185.181 64.6477C184.277 64.6377 183.242 64.5394 182.299 64.3737L181.972 64.4916C180.557 64.4376 179.122 64.3849 177.644 64.3346C177.349 64.32 177.038 64.2902 176.736 64.2472C176.412 64.2064 176.114 64.1183 175.773 64.0715C175.436 64.0384 175.102 64.0132 174.776 63.9963C174.864 63.9659 174.98 63.9413 175.121 63.9232C175.259 63.9161 175.36 63.8968 175.408 63.868C175.456 63.8392 175.45 63.8023 175.39 63.7629C175.284 63.6951 175.237 63.6309 175.466 63.621C175.677 63.6037 175.828 63.5687 175.901 63.5201C175.974 63.4714 175.966 63.4112 175.877 63.3465C175.838 63.3086 175.811 63.2714 175.795 63.2351L175.7 63.2231C175.385 63.0902 174.758 63.0461 174.307 62.9388C174.095 62.9083 173.875 62.8915 173.682 62.8911C173.185 62.8711 172.7 62.8644 172.186 62.8384C171.94 62.8265 171.683 62.8033 171.429 62.7702C171.068 62.7246 171.03 62.7198 170.818 62.5455C171.144 62.5461 171.402 62.5179 171.549 62.4656C171.695 62.4132 171.722 62.3401 171.623 62.2585C171.352 62.0807 171.067 61.8932 169.849 61.7747C170.246 61.7653 170.628 61.7499 170.992 61.7284C171.099 61.7236 171.178 61.7097 171.22 61.6888C171.262 61.6678 171.265 61.6407 171.227 61.6111C171.19 61.5815 171.115 61.5508 171.012 61.5231C170.909 61.4954 170.783 61.472 170.651 61.4561C170.008 61.3593 169.338 61.2963 168.715 61.2743C168.191 61.2664 167.718 61.2767 167.105 61.2811L166.382 61.1899C166.394 61.1681 166.287 61.1391 166.314 61.127C166.497 61.014 166.698 60.9035 166.906 60.782C166.572 60.7198 166.283 60.6439 166.071 60.5629C165.859 60.482 165.733 60.3992 165.708 60.3241C165.69 60.3016 165.694 60.2808 165.721 60.2634C165.748 60.246 165.797 60.2323 165.864 60.2233C166.054 60.2073 166.201 60.1784 166.292 60.1388C166.384 60.0991 166.419 60.0499 166.393 59.9948L165.829 59.7955C164.136 59.6632 162.473 59.5722 160.872 59.5241L159.427 59.4895C159.252 59.4364 159.306 59.4121 159.47 59.4095C159.634 59.4068 160.095 59.4184 160.417 59.424C160.696 59.4326 160.943 59.4237 161.135 59.3982C161.326 59.3727 161.456 59.3314 161.512 59.2785L161.025 59.05C161.048 59.0063 161.081 58.9445 161.345 58.9466C161.524 58.9401 161.657 58.9172 161.72 58.8815C161.783 58.8458 161.774 58.7994 161.694 58.7498C161.682 58.7135 161.7 58.6803 161.747 58.6515C162.136 58.6462 162.523 58.6445 162.876 58.6307C163.041 58.6258 163.179 58.6113 163.283 58.5881C163.387 58.565 163.453 58.5338 163.477 58.4967C163.489 58.4605 163.458 58.4197 163.385 58.3774C163.312 58.3352 163.2 58.2928 163.058 58.2536C162.504 58.208 161.998 58.2112 161.651 58.2626C161.527 58.3017 161.328 58.3241 161.08 58.3268C160.831 58.3295 160.546 58.3123 160.26 58.2776C159.933 58.2376 159.607 58.2214 159.341 58.232C159.074 58.2425 158.885 58.2791 158.806 58.3352C158.471 58.3162 158.173 58.302 157.88 58.2806C157.534 58.2533 157.207 58.247 156.934 58.2624C156.498 58.2751 156.028 58.2732 155.534 58.2568C154.112 58.2174 152.688 58.1816 151.311 58.1711C150.947 58.168 150.632 58.1865 150.272 58.1761C149.911 58.1656 149.627 58.2035 149.175 58.135C149.09 58.1245 149.003 58.1179 148.923 58.1159C148.843 58.1139 148.771 58.1165 148.714 58.1234C147.924 58.1864 146.996 58.2016 145.986 58.168C144.604 58.1685 143.17 58.1509 141.785 58.155C141.379 58.1637 140.995 58.1817 140.638 58.2086C140.366 58.2253 140.081 58.2374 139.785 58.2448C139.558 58.2511 139.341 58.2393 139.38 58.318C139.419 58.3967 139.078 58.3499 138.882 58.3368C138.208 58.3037 137.518 58.2571 136.822 58.1975C136.136 58.1323 135.463 58.0965 134.845 58.0921C134.399 58.0902 133.939 58.1138 133.365 58.0103C133.386 57.9703 133.408 57.9303 133.532 57.8877C133.063 57.7768 132.528 57.6823 131.972 57.6122C131.416 57.5421 130.854 57.4983 130.333 57.4844L129.613 57.2732C129.436 57.2491 129.255 57.2319 129.082 57.2228C128.908 57.2136 128.746 57.2126 128.605 57.2199C128.495 57.2239 128.362 57.2168 128.229 57.2001C128.096 57.1833 127.973 57.158 127.881 57.1287C127.744 57.0915 127.577 57.0599 127.401 57.0377C127.225 57.0155 127.048 57.0037 126.891 57.0038C126.397 56.984 125.87 56.9337 125.363 56.8578C125.231 56.8121 125.149 56.7645 125.125 56.7208C125.102 56.6771 125.138 56.6393 125.231 56.612C125.38 56.5639 125.463 56.5034 125.476 56.4342C125.489 56.365 125.43 56.2886 125.305 56.2095C125.24 56.1608 125.218 56.1145 125.24 56.0732C125.263 56.0319 125.328 55.9966 125.433 55.9693C125.826 55.844 125.72 55.7763 125.074 55.5783C124.969 55.5453 124.843 55.5146 124.703 55.4883C124.563 55.462 124.413 55.4405 124.262 55.4254C123.907 55.395 123.557 55.3731 123.219 55.36C123.029 55.336 122.834 55.358 122.615 55.3498C121.519 55.3088 121.357 55.2302 121.001 55.0609L120.741 54.9388C120.261 54.842 119.735 54.7625 119.203 54.7062C118.671 54.6499 118.145 54.618 117.663 54.613C117.472 54.6138 117.252 54.5983 117.037 54.5689C116.336 54.4793 115.627 54.419 114.956 54.3921C114.538 54.3772 114.087 54.3339 113.658 54.2673C113.228 54.2008 112.838 54.1138 112.535 54.0169C112.262 53.9296 111.906 53.8521 111.515 53.7952C111.058 53.7375 111.015 53.6661 111.27 53.6088C111.524 53.5515 111.95 53.4771 112.329 53.416C112.46 53.3952 112.542 53.3624 112.564 53.3213C112.586 53.2802 112.548 53.2324 112.454 53.1831C112.393 53.0981 112.382 53.0171 112.421 52.942C112.441 52.9107 112.426 52.8752 112.377 52.8378C112.327 52.8004 112.244 52.7619 112.133 52.7251C112.021 52.6883 111.885 52.6538 111.732 52.6242C111.579 52.5945 111.414 52.5703 111.247 52.5531C110.542 52.4643 109.857 52.3779 109.139 52.3145C108.837 52.2844 108.537 52.2465 108.244 52.2017C107.643 52.0901 107.001 51.9986 106.355 51.9325C106.048 51.9032 105.748 51.85 105.52 51.7845C104.799 51.6089 104.135 51.4236 103.539 51.2318C103.396 51.172 103.208 51.1141 102.987 51.0616C102.767 51.0091 102.519 50.9632 102.26 50.9268C102.05 50.9004 101.879 50.84 101.718 50.8002C101.6 50.706 101.586 50.6182 101.679 50.545C101.772 50.4717 101.967 50.4154 102.247 50.3814C102.513 50.341 102.761 50.2947 102.991 50.2459C103.268 50.2058 103.597 50.1804 103.966 50.1708C104.404 50.147 104.727 50.0862 104.894 49.9963C103.694 49.8451 102.552 49.6234 101.503 49.6854L100.703 49.5457C100.735 49.4875 100.762 49.4366 100.787 49.3893C100.976 49.3021 101.035 49.1935 100.957 49.0727C100.894 49.0145 100.899 48.961 100.972 48.9177C101.045 48.8744 101.184 48.8428 101.374 48.8262C102.5 48.6611 103.802 48.5456 104.857 48.3601C105.188 48.3242 105.576 48.3061 106.004 48.3065C106.418 48.2927 106.4 48.2127 105.922 48.1175C105.654 48.068 105.381 48.0206 105.104 47.9755C103.883 47.977 103.388 48.2176 101.995 48.1624L101.346 47.8553C101.172 47.8519 101.002 47.8513 100.839 47.8535L98.5048 47.9982C98.3103 48.0061 98.1591 48.0289 98.0683 48.0642C97.9775 48.0994 97.9508 48.1457 97.9911 48.1977C98.0075 48.2615 97.9759 48.3204 97.8974 48.3723C97.8468 48.4086 97.8798 48.456 97.9892 48.5043C98.2358 48.6131 97.9209 48.6317 97.7222 48.661C97.6713 48.6641 97.6127 48.6643 97.5496 48.6615C97.4866 48.6587 97.4203 48.653 97.3548 48.6447C97.2893 48.6365 97.2257 48.6258 97.1678 48.6133C97.11 48.6009 97.0589 48.5869 97.0176 48.5722C96.6661 48.4696 96.3585 48.3609 96.0128 48.2474C96.2564 48.1343 95.9669 47.9541 96.3477 47.8506C96.3902 47.8302 96.4071 47.8056 96.3972 47.7783C96.3874 47.751 96.3511 47.7216 96.2905 47.6919C96.1344 47.6152 96.0596 47.5399 96.0739 47.4735C96.0881 47.4071 96.1908 47.3519 96.3716 47.3136L96.3931 47.2736C95.9141 47.1433 96.0396 47.0232 95.8506 46.8828L95.3902 46.7937C94.2447 46.5793 94.2428 46.583 93.2585 46.5987C93.0593 46.5154 93.3113 46.5005 93.5002 46.4894L95.0826 46.382C96.1172 46.3104 97.182 46.2582 98.3382 46.2252C99.4944 46.1923 100.783 46.1022 101.978 46.0353C102.038 46.0303 102.084 46.0211 102.112 46.0084C102.14 45.9958 102.149 45.98 102.139 45.9623C102.091 45.9436 102.029 45.9256 101.956 45.9098C101.884 45.8939 101.803 45.8806 101.72 45.8707C101.339 45.8227 100.949 45.7929 100.543 45.7534L99.7868 45.6853L99.5534 45.5898C99.4016 45.5318 99.2975 45.4604 99.0959 45.4195C98.9297 45.389 98.7495 45.3664 98.5739 45.3538C98.3982 45.3412 98.2337 45.3392 98.0974 45.348C97.7195 45.3703 97.3778 45.401 97.0169 45.4293C96.6561 45.4576 96.4574 45.487 96.1444 45.5019C95.5084 45.5125 94.8938 45.5323 94.3033 45.5612C93.8063 45.6226 93.3467 45.6944 92.9274 45.7762C92.6657 45.8092 92.4211 45.8483 91.9734 45.8113C91.7608 45.7762 91.5773 45.7295 91.4554 45.6792C91.3335 45.629 91.2811 45.5786 91.3074 45.537C91.3311 45.5043 91.3988 45.4781 91.5042 45.4608C91.6095 45.4435 91.7489 45.4356 91.9094 45.4381C92.3584 45.4286 92.7734 45.4054 93.1462 45.3687C93.6649 45.3034 94.2967 45.2721 95.0049 45.2767C95.2451 45.2836 95.4057 45.2495 95.6157 45.2371C95.8256 45.2247 96.0033 45.1966 96.2377 45.2145C96.9657 45.2597 97.3138 45.1793 97.7493 45.1254C97.8967 45.1019 97.9878 45.065 98.0126 45.0187C98.0374 44.9725 97.9949 44.9188 97.8899 44.8634C97.6876 44.7531 97.4404 44.6425 97.1522 44.5334C97.0038 44.4799 96.8139 44.4293 96.5974 44.3859C96.3809 44.3424 96.1436 44.3071 95.9042 44.2829C95.7604 44.2155 95.6834 44.1487 95.6801 44.0886C95.6769 44.0285 95.7475 43.977 95.8856 43.9387C96.2376 43.851 96.5496 43.7621 97.3406 43.8036C97.7124 43.8188 98.0622 43.8196 98.3761 43.8059C99.0724 43.785 99.8761 43.8128 100.711 43.8867C100.928 43.9055 101.14 43.9179 101.342 43.9234C102.786 43.9617 104.16 43.9757 105.539 43.9825C106.27 43.9852 107.006 43.977 107.769 43.9955C109.557 44.0345 111.184 43.9949 112.91 43.9988C113.814 44.0007 114.623 43.959 115.294 43.8759C115.424 43.8487 115.537 43.8174 115.629 43.7821C115.183 43.695 114.693 43.627 114.207 43.5847C113.72 43.5425 113.254 43.5273 112.851 43.5407C112.63 43.5678 112.344 43.5746 112.025 43.5605C111.706 43.5463 111.366 43.5117 111.044 43.4606L111.979 43.423C112.599 43.4041 113.234 43.3948 113.837 43.3698C114.795 43.3274 115.683 43.2645 116.675 43.2342C117.476 43.2072 118.192 43.1483 118.802 43.0595C119.242 42.9947 119.745 42.9473 120.301 42.9182C120.696 42.902 120.696 42.902 120.947 42.7744C120.746 42.6947 120.487 42.6853 120.243 42.6856C118.779 42.6457 117.386 42.6474 116.093 42.6907C115.44 42.6987 114.861 42.7376 114.384 42.8056C114.268 42.8336 113.968 42.823 113.728 42.8161C112.975 42.8084 112.256 42.8178 111.578 42.8442C110.642 42.8866 109.598 42.8863 108.489 42.8431C108.278 42.7816 108.52 42.7849 108.532 42.7631C109.39 42.716 110.232 42.6628 111.108 42.6217C111.347 42.6077 111.603 42.5996 111.873 42.5978C112.88 42.6113 113.719 42.5459 114.271 42.4106C114.298 42.3596 114.662 42.3628 114.823 42.3287C114.902 42.2996 114.954 42.2657 114.979 42.2279C114.743 42.1361 114.478 42.1376 114.274 42.1391C113.682 42.154 113.113 42.1782 112.568 42.2115C112.062 42.243 111.502 42.2547 110.903 42.2463C110.461 42.2371 110.083 42.2594 109.636 42.2575C109.394 42.2482 109.144 42.2323 108.889 42.21C109.172 42.1425 109.556 42.0995 110.014 42.0837C110.362 42.0421 110.797 42.027 110.852 41.9251C110.687 41.8538 110.504 41.854 110.357 41.8627C110.051 41.8648 109.755 41.8716 109.471 41.8832C108.87 41.9084 108.219 41.9137 107.532 41.8989C107.17 41.8942 106.826 41.8991 106.507 41.9135C105.784 41.935 105.091 41.9759 104.429 41.9973C103.073 42.0244 101.836 42.0938 100.533 42.1355C100.243 42.1455 99.9833 42.1749 99.6005 42.1305C99.2178 42.0862 99.2007 42.0801 99.1553 42.0511C99.0478 42.0029 99.015 41.9556 99.0635 41.9191C99.139 41.8848 99.2866 41.8648 99.4799 41.8628C100.645 41.8002 101.749 41.7162 102.786 41.6115C103.243 41.5886 103.643 41.546 103.972 41.4852C104.233 41.443 104.543 41.4141 104.893 41.3992C105.4 41.3663 105.93 41.3409 106.478 41.3233C106.734 41.3141 106.951 41.291 107.117 41.2551C107.283 41.2193 107.394 41.1716 107.444 41.1148L106.769 40.9327C106.664 40.9247 106.559 40.918 106.455 40.9124L100.87 41.0902L100.317 41.0982C99.7109 41.0917 99.5624 41.0652 98.9853 40.8526C100.297 40.7915 101.328 40.6347 101.974 40.398C101.818 40.3743 101.658 40.3541 101.498 40.338C100.448 40.2912 99.4567 40.2843 98.561 40.3174C98.0288 40.3241 97.4815 40.3212 96.9322 40.3218C97.0919 40.2138 97.7075 40.2409 98.1084 40.2137C99.0663 40.1687 99.913 40.0843 100.621 39.9633C100.866 39.9164 101.171 39.8853 101.525 39.8713C101.878 39.8647 102.173 39.8352 102.384 39.7853C102.595 39.7354 102.716 39.6666 102.735 39.585C102.768 39.511 102.839 39.4418 102.948 39.3787C102.754 39.2917 102.446 39.2094 102.083 39.1472C101.72 39.0849 101.325 39.047 100.974 39.0405C100.225 39.0099 99.447 38.9562 98.661 38.881C98.2695 38.843 97.8857 38.8224 97.5346 38.8206C97.225 38.8194 96.8729 38.7925 96.5319 38.7439C96.1909 38.6953 95.8798 38.6277 95.6461 38.5514C95.3307 38.4573 95.0362 38.3619 94.7418 38.2665C94.4474 38.1711 94.1056 38.0503 93.7619 37.9332C93.4596 37.9167 93.1654 37.907 92.8831 37.9039C92.6635 37.91 92.4071 37.8989 92.1442 37.872C91.8813 37.845 91.6228 37.8033 91.3992 37.7518C91.5296 37.6984 91.6771 37.6509 91.8323 37.5889C91.6177 37.5102 91.4619 37.4295 91.3743 37.3517C91.2868 37.2739 91.2693 37.2006 91.3231 37.1362C91.3543 37.078 91.1209 36.9825 91.0399 36.9063C90.9358 36.8408 90.9158 36.7791 90.9825 36.7293C91.0491 36.6794 91.1993 36.6438 91.4134 36.627C91.6788 36.5971 91.8946 36.5534 92.052 36.4978C92.1041 36.4833 92.1305 36.4637 92.1288 36.4409C92.1271 36.4181 92.0974 36.3928 92.0423 36.3673C91.9872 36.3418 91.9085 36.317 91.8135 36.295C91.7185 36.273 91.6101 36.2546 91.4983 36.2415C91.1558 36.2045 90.8159 36.1815 90.4979 36.1737C89.9501 36.159 89.4257 36.1511 88.9247 36.1502C88.3707 36.1471 87.754 36.1069 87.1373 36.0336C86.5851 35.964 86.09 35.9015 85.819 35.7625C85.548 35.6234 85.1169 35.6313 84.7844 35.5311C84.9697 35.437 85.3002 35.3701 85.7423 35.3372C86.0317 35.3244 86.2731 35.2948 86.451 35.2503C86.6289 35.2059 86.7394 35.1475 86.7754 35.0789L85.7662 34.8002C84.9611 34.6715 84.5173 34.7787 83.6482 34.7313L84.5422 34.6187C84.5601 34.6081 84.5667 34.5958 84.5617 34.5823C84.4728 34.3691 84.3342 34.3244 83.4182 34.2128L82.9041 34.148L82.0907 34.0727C81.9601 34.0298 81.8697 33.9848 81.8284 33.9421C81.7871 33.8994 81.7963 33.8605 81.8553 33.8293C81.9739 33.7767 82.0095 33.7104 81.9588 33.6365C81.8795 33.5879 81.8726 33.5425 81.9392 33.5083C82.0059 33.4742 82.1418 33.4533 82.3235 33.4494C82.4685 33.4444 82.4788 33.3874 82.5574 33.3545C82.6354 33.3095 82.7693 33.2744 82.9499 33.2516C83.1305 33.2288 83.3536 33.2188 83.6041 33.2223C84.3426 33.2211 85.0361 33.1991 85.6723 33.1568L85.5581 33.1424C86.2219 33.1702 86.8423 33.1694 87.389 33.1401C87.9368 33.1043 88.6404 33.1192 89.2224 33.0954C89.6964 33.0962 90.0568 33.0497 90.2272 32.9657C90.3922 32.8855 90.9947 32.8993 91.4561 32.9108C91.7294 32.9185 91.9935 32.9206 92.2456 32.9171C92.5838 32.8967 93.0071 32.9103 93.4448 32.9556C93.5761 32.9696 93.7054 32.9766 93.8202 32.9758C94.932 32.9877 96.0417 33.0033 97.1383 33.0056C97.3914 32.9975 97.6883 33.0093 97.9942 33.0397C98.1228 33.0529 98.2479 33.0578 98.3526 33.0538C100.085 33.008 102.041 33.0759 103.739 33.0181C103.945 33.0059 104.173 33.0019 104.416 33.0063C104.964 33.0284 105.439 33.0079 105.769 32.9477C105.947 32.9156 106.176 32.897 106.441 32.8929C106.706 32.8888 107 32.8994 107.307 32.924C107.816 32.9557 108.286 32.9559 108.668 32.9247C109.413 32.8928 110.197 32.8761 111.013 32.8745C111.263 32.8772 111.483 32.8653 111.655 32.8399C111.827 32.8145 111.947 32.7761 112.006 32.7278C111.805 32.6481 111.586 32.6399 111.378 32.6486C110.571 32.6363 109.767 32.6203 108.975 32.6177C108.267 32.5982 107.587 32.5958 106.946 32.6105C106.628 32.624 106.231 32.6018 105.841 32.5488C105.363 32.4816 104.871 32.4501 104.465 32.4608C104.164 32.465 103.846 32.4614 103.515 32.4499C103.304 32.4346 103.087 32.4073 102.887 32.3707C102.808 32.3547 102.721 32.3414 102.633 32.3317C102.546 32.322 102.458 32.316 102.377 32.3142C102.296 32.3123 102.222 32.3147 102.161 32.321C102.1 32.3274 102.053 32.3377 102.023 32.3511C101.719 32.4642 101.034 32.413 100.449 32.4052C99.5702 32.2245 98.9185 32.3404 98.0977 32.2408C98.0328 32.2343 97.9689 32.2306 97.9099 32.2298C97.8509 32.229 97.798 32.2313 97.7544 32.2364C96.1686 32.3123 94.3192 32.2734 92.6538 32.3082C92.4701 32.3128 92.2568 32.3034 92.0381 32.2811C90.6087 32.133 89.2355 32.0984 88.1868 32.184C88.0592 32.192 87.9139 32.1934 87.7576 32.1882C87.0396 32.1305 86.3532 32.1106 85.7558 32.1301C84.8194 32.1324 83.9191 32.1432 82.9675 32.1359C82.3114 32.1202 81.7362 32.1468 81.2996 32.2131C81.2859 32.2386 80.9944 32.2135 80.7713 32.2126C80.6424 32.1497 80.5306 32.0929 80.3978 32.0373C80.2789 31.9682 80.1011 31.8987 79.8765 31.8335C79.6519 31.7683 79.3858 31.709 79.0961 31.6595C78.6011 31.5971 78.5507 31.5014 78.8964 31.4634C79.7871 31.3396 80.9081 31.2832 82.1769 31.2982C83.2374 31.292 84.3169 31.2882 85.3925 31.2918C86.0199 31.297 86.6814 31.3144 87.2918 31.3136C87.4978 31.3207 87.7094 31.3318 87.9245 31.3468C88.1885 31.3689 88.4447 31.3801 88.6794 31.3798C89.4326 31.3537 90.2735 31.365 91.1621 31.4131C91.4875 31.4226 91.7999 31.4242 92.0947 31.418C92.7919 31.3977 93.548 31.4029 94.343 31.4334C94.8371 31.4502 95.3161 31.4574 95.7751 31.4547C95.9372 31.4557 96.069 31.4373 96.2252 31.4493C97.6006 31.576 98.5727 31.4694 99.8099 31.5127C100.411 31.5228 100.985 31.5184 101.525 31.4997C102.577 31.4923 103.659 31.4991 104.767 31.5199C106.231 31.5569 107.587 31.5297 108.985 31.5389C109.261 31.541 109.527 31.5382 109.782 31.5307C111.022 31.4841 112.37 31.4816 113.791 31.5233C114.114 31.5284 114.404 31.5169 114.642 31.4895C114.881 31.4621 115.063 31.4194 115.178 31.364C115.226 31.3262 115.194 31.2779 115.088 31.2284C114.912 31.1654 114.713 31.1039 114.495 31.0449L106.582 30.9019C106.25 30.8938 105.926 30.8906 105.612 30.8922C104.688 30.8975 103.735 30.889 102.759 30.8667C101.794 30.846 100.873 30.8581 99.9383 30.8568C99.663 30.8561 99.3804 30.8516 99.0917 30.8433C97.1399 30.7753 95.2369 30.7391 93.3963 30.7352C92.6219 30.7386 91.7851 30.7069 90.9956 30.7006C90.2061 30.6943 89.1265 30.6981 88.1901 30.7005L85.2909 30.7234C84.7206 30.7254 84.1655 30.7369 83.6123 30.7449C82.9385 30.4851 82.7066 30.4248 81.8097 30.3156C81.5028 30.2752 81.1909 30.252 80.9104 30.2489C80.0213 30.2766 78.9046 30.198 78.0614 30.216C77.5525 30.2143 77.121 30.247 76.8111 30.3109C76.5419 30.3613 76.2341 30.4019 75.8922 30.432C74.9528 30.2126 74.8688 30.0661 75.5733 30.0034C75.7642 29.9886 76.0274 29.9907 76.1651 29.9614C76.2441 29.9437 76.3521 29.933 76.4806 29.9303C76.609 29.9276 76.7544 29.933 76.9052 29.946C77.3812 29.9794 77.8271 29.9847 78.1981 29.9613C78.5473 29.9315 78.9755 29.9293 79.4417 29.955C79.7844 29.9982 80.0847 29.9311 80.3806 29.9102C80.6765 29.8892 80.9191 29.8537 81.382 29.9004C81.4667 29.9098 81.5508 29.9151 81.6279 29.9161C81.7049 29.9171 81.7727 29.9136 81.8263 29.9059C82.3226 29.8698 82.9153 29.8686 83.5561 29.9026C84.5388 29.9333 85.4606 29.9277 86.2893 29.8859C86.7853 29.8511 87.208 29.7928 87.5407 29.7134C87.6313 29.687 87.7662 29.6706 87.9323 29.6657C88.7666 29.6753 89.6729 29.7287 90.5927 29.8224C90.9393 29.8601 91.2853 29.8894 91.6234 29.9096C92.3184 29.9549 92.9903 29.9782 93.6194 29.9786C94.5334 29.9724 95.4852 29.9846 96.4663 30.0151C97.0718 30.0316 97.6551 30.0349 98.2093 30.0251C98.779 30.018 99.3874 30.0295 100.021 30.0592C100.651 30.0825 101.205 30.062 101.618 30.0002C101.754 29.9676 101.863 29.9293 101.943 29.8859C101.02 29.7539 100.066 29.6906 99.2737 29.7086C98.9725 29.7017 98.7225 29.7129 98.4046 29.6612L98.3949 29.6794C98.3318 29.6916 98.2366 29.6951 98.1273 29.6892C98.018 29.6833 97.9022 29.6685 97.8021 29.6474C97.8393 29.5783 97.8744 29.5128 97.8998 29.4655C98.504 29.4692 99.0906 29.464 99.6565 29.45C100.134 29.4324 100.782 29.5492 101.195 29.5002C102.001 29.5513 102.513 29.4683 103.236 29.4855C103.958 29.5028 104.755 29.5721 105.477 29.5894C106.108 29.5971 106.72 29.5952 107.31 29.5835C107.514 29.572 107.749 29.5725 108.001 29.5851C108.355 29.6096 108.684 29.6117 108.95 29.591C109.216 29.5703 109.409 29.5277 109.507 29.4681C109.414 29.4137 109.289 29.3435 109.145 29.271C109.408 29.2084 109.809 29.1799 110.287 29.1896L110.962 29.1815C111.141 29.1817 111.277 29.1643 111.343 29.1328C111.41 29.1014 111.4 29.0583 111.317 29.0125C110.034 28.7887 109.987 28.7633 109.048 28.9208L107.8 28.8605L107.821 28.8593ZM124.704 29.3717L124.609 29.3597L124.704 29.3717ZM280.436 53.0408L280.415 53.0808L280.438 53.0371L280.648 53.0635L280.661 53.0381L280.436 53.0408ZM249.901 35.8044C249.605 35.7631 249.306 35.7255 249.006 35.6915C248.927 35.6865 248.854 35.6858 248.792 35.6895C248.73 35.6931 248.681 35.7011 248.649 35.7126C248.625 35.7562 248.793 35.7851 248.945 35.8043C249.137 35.8303 249.334 35.8462 249.514 35.8504C249.694 35.8547 249.851 35.8471 249.969 35.8285L250.141 35.8113L249.901 35.8044ZM97.6977 47.5702C97.8924 47.576 98.077 47.5758 98.247 47.5695C99.0008 47.5286 99.7224 47.4719 100.495 47.4334C101.47 47.3432 102.591 47.3009 103.815 47.3081C104.294 47.3125 104.698 47.2826 104.98 47.2218C105.149 47.189 105.367 47.169 105.621 47.1628L108.857 47.0425C109.057 47.0211 109.23 46.992 109.372 46.9558C109.086 46.9198 108.896 46.8958 108.781 46.8814C108.545 46.8789 108.341 46.8921 108.192 46.9197C108.031 46.9657 107.759 46.9855 107.43 46.9751C107.097 46.967 106.773 46.9638 106.459 46.9654C105.866 46.9722 105.269 46.9863 104.674 46.9967C104.443 47.1231 103.759 47.0718 103.174 47.064L102.722 47.0731C101.244 47.149 99.8332 47.2487 98.4954 47.3716C98.2369 47.3927 98.0142 47.4248 97.8344 47.467C97.7668 47.4993 97.7454 47.5392 97.7719 47.5834L97.6767 47.5714L97.6977 47.5702ZM163.81 58.9738C164.169 58.9795 164.542 58.9941 164.925 59.0173C165.22 59.0417 165.508 59.0556 165.777 59.0586C167.285 59.075 168.857 59.1274 170.471 59.2152C170.682 59.2288 170.885 59.2347 171.071 59.2327L172.392 59.1971C172.808 59.1796 172.815 59.1651 172.511 58.9752C172.259 58.9398 172.004 58.9077 171.749 58.8791C171.597 58.8599 171.349 58.8287 171.292 58.8603C170.94 58.948 170.296 58.8979 169.754 58.884C168.187 58.8496 166.57 58.7934 164.988 58.7493C164.653 58.7382 164.329 58.7337 164.019 58.736C163.827 58.7346 163.651 58.7414 163.5 58.756C163.456 58.7577 163.419 58.7621 163.392 58.7687C163.364 58.7753 163.347 58.784 163.342 58.7943C163.336 58.8047 163.342 58.8163 163.36 58.8285C163.377 58.8408 163.405 58.8532 163.442 58.8652C163.571 58.907 163.721 58.9468 163.886 58.9834L163.81 58.9738ZM175.03 30.9845L176.573 30.9499C176.758 30.946 176.915 30.9192 177.113 30.9286C178.171 30.9553 179.149 30.9381 180.007 30.8778C180.299 30.8536 180.641 30.8466 181.014 30.8571C182.157 30.8881 183.234 30.8814 184.217 30.8374C184.852 30.8252 185.447 30.7961 185.992 30.7504C186.033 30.7404 186.06 30.7271 186.068 30.7114C186.076 30.6957 186.067 30.678 186.04 30.6594C186.033 30.6476 186.015 30.635 185.985 30.6224C185.956 30.6098 185.917 30.5976 185.871 30.5866C185.824 30.5756 185.772 30.5661 185.717 30.5587C185.663 30.5513 185.607 30.5461 185.554 30.5436C184.864 30.4928 184.21 30.4782 183.645 30.5012C183.121 30.5275 182.557 30.5383 181.961 30.5336C181.39 30.5355 181.004 30.6111 180.299 30.5611C180.001 30.5451 179.738 30.5531 179.555 30.5838C179.186 30.6351 178.671 30.6418 178.102 30.6026C177.761 30.5831 177.435 30.5761 177.137 30.5819C176.414 30.6034 175.723 30.6407 175.053 30.6766C174.842 30.6854 174.616 30.6881 174.378 30.6847L171.021 30.6501C170.215 30.6378 169.41 30.6218 168.619 30.6191C167.971 30.6052 167.369 30.6157 166.833 30.6504C166.262 30.687 165.639 30.7049 164.975 30.7036C163.945 30.7292 162.92 30.7438 161.799 30.75C161.084 30.7569 160.351 30.7578 159.604 30.7491C159.226 30.7333 158.905 30.751 158.703 30.7987C158.581 30.8376 158.291 30.8089 158.051 30.8019C156.769 30.7267 155.568 30.7158 154.531 30.7699C154.398 30.7784 154.253 30.7823 154.097 30.7813C153.098 30.7874 152.062 30.7851 151.103 30.7923C150.85 30.7978 150.613 30.8095 150.393 30.8271C150.417 30.853 150.484 30.8807 150.581 30.9045C150.678 30.9283 150.797 30.9464 150.914 30.955C151.822 31.0207 152.699 31.0524 153.507 31.0487C154.852 31.0291 156.261 31.0392 157.719 31.0787C158.851 31.1211 159.883 31.1024 160.737 31.024C161.405 30.9653 162.275 30.9788 163.197 31.0622C163.592 31.1024 163.974 31.1167 164.293 31.1033C164.6 31.0865 164.952 31.0873 165.329 31.1056C166.123 31.1399 166.887 31.1528 167.605 31.144C168.307 31.1237 168.962 31.0781 169.683 31.0602C170.404 31.0424 171.503 31.041 172.392 31.0132C173.281 30.9855 174.16 30.9759 175.03 30.9845ZM111.051 29.3559C111.134 29.4673 111.423 29.5348 111.733 29.5623C112.804 29.6867 113.862 29.7351 114.73 29.6992C115.198 29.6548 115.823 29.6657 116.482 29.7297C117.249 29.7957 117.966 29.8021 118.505 29.7479C118.637 29.7381 118.739 29.7188 118.8 29.6917C118.811 29.6699 118.833 29.6299 118.837 29.6226C118.78 29.6047 118.71 29.5882 118.633 29.5744C118.556 29.5606 118.473 29.5499 118.391 29.5432L114.847 29.4421L114.23 29.4186C113.101 29.3533 112.026 29.3321 111.051 29.3559ZM118.037 31.0756C118.591 31.2543 118.593 31.2507 118.877 31.2903C120.245 31.4536 121.612 31.5368 122.814 31.5303C123.081 31.5277 123.308 31.5083 123.475 31.4737C123.561 31.4686 123.615 31.4538 123.627 31.4327C123.638 31.4115 123.605 31.3858 123.535 31.3609L123.094 31.2354C122.295 31.1858 121.508 31.1475 120.737 31.1208C119.839 31.0892 119.043 31.0938 118.113 31.0852L118.037 31.0756ZM163.736 58.1642C164.254 58.4121 164.256 58.4084 165.119 58.4668C165.721 58.5082 166.304 58.5307 166.852 58.5337C167.521 58.5365 168.208 58.5454 168.875 58.5518C169.038 58.5586 169.176 58.5509 169.263 58.5302C169.349 58.5094 169.377 58.4772 169.342 58.4397C169.254 58.3994 169.117 58.3608 168.952 58.3302C168.788 58.2996 168.606 58.2788 168.436 58.2712L168.072 58.268C167.63 58.2588 167.17 58.2436 166.743 58.2442C166.466 58.2567 166.145 58.2511 165.805 58.2278C165.464 58.2044 165.114 58.164 164.782 58.1096L163.736 58.1642ZM120.775 29.6105C120.913 29.6531 121.069 29.6936 121.238 29.7311C121.896 29.8337 122.591 29.8894 123.187 29.8875C123.47 29.892 123.727 29.8662 124.015 29.8986C124.531 29.9408 125.03 29.9616 125.487 29.9598C125.487 29.9598 125.615 29.9487 125.657 29.9463L125.742 29.7862C125.526 29.7509 125.3 29.7225 125.076 29.7021C124.323 29.6655 123.583 29.6422 122.846 29.6152C122.108 29.5883 121.851 29.5752 121.368 29.5649C121.153 29.5743 120.954 29.5895 120.775 29.6105ZM104.663 49.5554L105.65 49.8741C105.969 49.9001 106.267 49.9029 106.498 49.8823C106.73 49.8616 106.882 49.8186 106.931 49.7598C107.012 49.7319 107.02 49.6913 106.953 49.6467C106.886 49.602 106.75 49.5567 106.572 49.5203C106.401 49.4768 106.206 49.4382 105.999 49.4067C105.792 49.3753 105.578 49.3518 105.369 49.3376L104.663 49.5554ZM112.846 47.8678C112.202 47.8174 111.586 47.7995 111.045 47.8155C110.704 47.8505 110.243 47.8437 109.754 47.7965C108.865 47.7018 108.01 47.6802 107.367 47.7364C107.367 47.7364 107.343 47.78 107.235 47.7935C107.126 47.807 107.558 47.8343 107.653 47.8463C108.351 47.8721 109.053 47.8907 109.659 47.8972C110.036 47.8938 110.434 47.901 110.847 47.9187C111.416 47.9466 111.955 47.9529 112.443 47.9374C112.443 47.9374 112.632 47.9262 112.845 47.8714L112.846 47.8678ZM181.473 30.3439C181.165 30.2848 180.831 30.2374 180.496 30.2053C180.161 30.1731 179.834 30.1571 179.539 30.1584C179.314 30.1569 179.131 30.1745 179.021 30.2085C178.911 30.2424 178.879 30.2907 178.931 30.3458C179.159 30.3746 179.464 30.413 179.635 30.4346C180.228 30.4278 180.734 30.3945 181.473 30.3439ZM239.108 35.0808C238.86 35.0332 238.588 34.9975 238.322 34.9776C238.056 34.9578 237.806 34.9547 237.602 34.9687C237.497 34.9749 237.569 35.0306 237.552 35.0633C237.54 35.0708 237.54 35.08 237.552 35.0899C237.564 35.0999 237.588 35.1102 237.62 35.1198C237.652 35.1295 237.692 35.138 237.736 35.1447C237.779 35.1513 237.824 35.1557 237.867 35.1575C238.135 35.1767 238.388 35.1811 238.603 35.1703C238.818 35.1594 238.989 35.1337 239.1 35.0953L239.108 35.0808ZM242.973 35.7584C242.934 35.7295 242.853 35.6997 242.743 35.6744C242.633 35.6492 242.503 35.6302 242.375 35.621C242.151 35.6213 241.946 35.631 241.77 35.6496C241.58 35.6644 241.718 35.7478 241.977 35.796C242.086 35.8153 242.203 35.8301 242.318 35.8392C242.434 35.8484 242.544 35.8516 242.64 35.8486C242.736 35.8457 242.816 35.8367 242.873 35.8223C242.93 35.8079 242.963 35.7885 242.969 35.7657L242.973 35.7584ZM130.794 29.8442C130.217 29.7443 129.774 29.7739 129.287 29.7357C128.799 29.6975 128.679 29.6941 128.745 29.7606C128.811 29.8272 129.145 29.8111 129.354 29.8375C129.637 29.8725 129.922 29.8916 130.176 29.8928C130.43 29.894 130.644 29.8771 130.794 29.8442ZM250.912 46.5722C250.607 46.5511 250.308 46.5369 250.02 46.5297C249.982 46.5397 249.959 46.5525 249.951 46.5675C249.943 46.5825 249.95 46.5993 249.973 46.617C249.973 46.617 250.169 46.6689 250.283 46.6833C250.704 46.7325 250.724 46.6573 250.912 46.5722ZM294.097 55.9595C294.304 56.0283 294.401 56.0754 294.566 56.108C294.642 56.1191 294.721 56.127 294.796 56.1311C294.871 56.1352 294.941 56.1354 295.001 56.1317C295.073 56.1108 295.09 56.0797 295.048 56.0443C295.048 56.0443 294.837 55.9828 294.757 55.9805C294.528 55.9673 294.307 55.9603 294.097 55.9595ZM120.99 29.323C120.552 29.2678 120.133 29.215 119.831 29.2856C120.526 29.3539 120.526 29.3539 120.99 29.323ZM128.081 29.9372C127.638 29.8153 127.379 29.806 127.167 29.822C127.122 29.8259 127.092 29.8343 127.082 29.8456C127.072 29.857 127.082 29.8709 127.111 29.8851C127.141 29.8993 127.187 29.9131 127.243 29.9244C127.3 29.9357 127.363 29.9439 127.425 29.9477C127.655 29.9496 127.875 29.946 128.081 29.9372ZM150.814 29.8158C150.824 29.7976 150.835 29.7757 150.721 29.7613C150.691 29.7538 150.656 29.7474 150.619 29.7428C150.583 29.7381 150.545 29.7354 150.512 29.7349C150.512 29.7349 150.5 29.7568 150.492 29.7713L150.814 29.8158ZM166.878 59.7724L166.624 59.7909L166.739 59.8053L167.04 59.8122L166.878 59.7724ZM256.108 35.3749C256.013 35.3629 255.918 35.3509 255.904 35.3763C255.884 35.3804 255.872 35.3862 255.868 35.3932C255.864 35.4001 255.869 35.4081 255.883 35.4164C255.883 35.4164 256.016 35.4332 256.073 35.4404L256.108 35.3749ZM241.301 35.6914C241.238 35.6904 241.182 35.6925 241.135 35.6976L241.123 35.7195L241.314 35.7435L241.301 35.6914ZM112.289 41.8615C112.215 41.8489 112.137 41.8391 112.06 41.8327L111.965 41.8207C111.965 41.8207 112.067 41.857 112.125 41.8642C112.182 41.8714 112.228 41.8616 112.289 41.8615Z" fill="url(#paint2_linear_213_856)"/>
</g>
<defs>
<linearGradient id="paint0_linear_213_856" x1="0" y1="14.5" x2="326" y2="14.5" gradientUnits="userSpaceOnUse">
<stop stop-color="#BE746C" stop-opacity="0.84"/>
<stop offset="1" stop-color="#FFA89F"/>
</linearGradient>
<linearGradient id="paint1_linear_213_856" x1="-0.0235409" y1="14.5087" x2="326" y2="14.5087" gradientUnits="userSpaceOnUse">
<stop stop-color="#12BCCA"/>
<stop offset="1" stop-color="#41BA95"/>
</linearGradient>
<linearGradient id="paint2_linear_213_856" x1="74.3861" y1="31.4681" x2="261.665" y2="131.978" gradientUnits="userSpaceOnUse">
<stop stop-color="#6BB5BE"/>
<stop offset="1" stop-color="#74B192"/>
</linearGradient>
</defs>
</svg>
