<svg width="326" height="39" viewBox="0 0 326 39" fill="none" xmlns="http://www.w3.org/2000/svg">
<path d="M90.2216 11.4347H87.0341C86.9432 10.9119 86.7756 10.4489 86.5313 10.0455C86.287 9.63636 85.983 9.28977 85.6193 9.00568C85.2557 8.72159 84.8409 8.50852 84.375 8.36648C83.9148 8.21875 83.4176 8.14489 82.8835 8.14489C81.9347 8.14489 81.0938 8.38352 80.3608 8.86079C79.6279 9.33239 79.054 10.0256 78.6392 10.9403C78.2245 11.8494 78.0171 12.9602 78.0171 14.2727C78.0171 15.608 78.2245 16.733 78.6392 17.6477C79.0597 18.5568 79.6335 19.2443 80.3608 19.7102C81.0938 20.1705 81.9318 20.4006 82.875 20.4006C83.3978 20.4006 83.8864 20.3324 84.3409 20.196C84.8012 20.054 85.2131 19.8466 85.5767 19.5739C85.946 19.3011 86.2557 18.9659 86.5057 18.5682C86.7614 18.1705 86.9375 17.7159 87.0341 17.2045L90.2216 17.2216C90.1023 18.0511 89.8438 18.8295 89.446 19.5568C89.054 20.2841 88.5398 20.9261 87.9034 21.483C87.2671 22.0341 86.5228 22.4659 85.6705 22.7784C84.8182 23.0852 83.8722 23.2386 82.8324 23.2386C81.2983 23.2386 79.929 22.8835 78.7245 22.1733C77.5199 21.4631 76.571 20.4375 75.8779 19.0966C75.1847 17.7557 74.8381 16.1477 74.8381 14.2727C74.8381 12.392 75.1875 10.7841 75.8864 9.44886C76.5853 8.10795 77.537 7.08239 78.7415 6.37216C79.946 5.66193 81.3097 5.30682 82.8324 5.30682C83.804 5.30682 84.7074 5.44318 85.5426 5.71591C86.3779 5.98864 87.1222 6.3892 87.7756 6.91761C88.429 7.44034 88.9659 8.08239 89.3864 8.84375C89.8125 9.59943 90.0909 10.4631 90.2216 11.4347ZM96.5461 15.3295V23H93.4609V5.54545H96.4779V12.1335H96.6313C96.9381 11.3949 97.4126 10.8125 98.0546 10.3864C98.7023 9.95455 99.5262 9.73864 100.526 9.73864C101.435 9.73864 102.228 9.92898 102.904 10.3097C103.58 10.6903 104.103 11.2472 104.472 11.9801C104.847 12.7131 105.035 13.608 105.035 14.6648V23H101.949V15.142C101.949 14.2614 101.722 13.5767 101.268 13.0881C100.819 12.5937 100.188 12.3466 99.3756 12.3466C98.8302 12.3466 98.3415 12.4659 97.9097 12.7045C97.4836 12.9375 97.1484 13.2756 96.904 13.7188C96.6654 14.1619 96.5461 14.6989 96.5461 15.3295ZM114.455 23.2557C113.143 23.2557 112.009 22.983 111.054 22.4375C110.106 21.8864 109.376 21.108 108.864 20.1023C108.353 19.0909 108.097 17.9006 108.097 16.5312C108.097 15.1847 108.353 14.0028 108.864 12.9858C109.381 11.9631 110.103 11.1676 111.029 10.5994C111.955 10.0256 113.043 9.73864 114.293 9.73864C115.1 9.73864 115.861 9.86932 116.577 10.1307C117.299 10.3864 117.935 10.7841 118.486 11.3239C119.043 11.8636 119.481 12.5511 119.799 13.3864C120.117 14.2159 120.276 15.2045 120.276 16.3523V17.2983H109.546V15.2188H117.319C117.313 14.6278 117.185 14.1023 116.935 13.642C116.685 13.1761 116.336 12.8097 115.887 12.5426C115.444 12.2756 114.927 12.142 114.336 12.142C113.705 12.142 113.151 12.2955 112.674 12.6023C112.197 12.9034 111.824 13.3011 111.557 13.7955C111.296 14.2841 111.162 14.821 111.157 15.4062V17.2216C111.157 17.983 111.296 18.6364 111.574 19.1818C111.853 19.7216 112.242 20.1364 112.742 20.4261C113.242 20.7102 113.827 20.8523 114.498 20.8523C114.947 20.8523 115.353 20.7898 115.716 20.6648C116.08 20.5341 116.395 20.3438 116.662 20.0938C116.929 19.8438 117.131 19.5341 117.268 19.1648L120.148 19.4886C119.966 20.25 119.62 20.9148 119.108 21.483C118.603 22.0455 117.955 22.483 117.165 22.7955C116.376 23.1023 115.472 23.2557 114.455 23.2557ZM123.366 23V9.90909H126.358V12.0909H126.494C126.733 11.3352 127.142 10.7528 127.721 10.3438C128.306 9.92898 128.974 9.72159 129.724 9.72159C129.895 9.72159 130.085 9.73011 130.295 9.74716C130.511 9.75852 130.69 9.77841 130.832 9.80682V12.6449C130.701 12.5994 130.494 12.5597 130.21 12.5256C129.931 12.4858 129.662 12.4659 129.4 12.4659C128.838 12.4659 128.332 12.5881 127.883 12.8324C127.44 13.071 127.091 13.4034 126.835 13.8295C126.579 14.2557 126.451 14.7472 126.451 15.304V23H123.366ZM133.362 23V9.90909H136.447V23H133.362ZM134.913 8.05114C134.424 8.05114 134.004 7.8892 133.652 7.56534C133.299 7.23579 133.123 6.84091 133.123 6.38068C133.123 5.91477 133.299 5.51989 133.652 5.19602C134.004 4.86648 134.424 4.7017 134.913 4.7017C135.407 4.7017 135.828 4.86648 136.174 5.19602C136.527 5.51989 136.703 5.91477 136.703 6.38068C136.703 6.84091 136.527 7.23579 136.174 7.56534C135.828 7.8892 135.407 8.05114 134.913 8.05114ZM150.446 13.3693L147.634 13.6761C147.554 13.392 147.415 13.125 147.216 12.875C147.023 12.625 146.762 12.4233 146.432 12.2699C146.102 12.1165 145.699 12.0398 145.222 12.0398C144.58 12.0398 144.04 12.179 143.602 12.4574C143.171 12.7358 142.958 13.0966 142.963 13.5398C142.958 13.9205 143.097 14.2301 143.381 14.4688C143.671 14.7074 144.148 14.9034 144.813 15.0568L147.046 15.5341C148.284 15.8011 149.205 16.2244 149.807 16.804C150.415 17.3835 150.722 18.142 150.727 19.0795C150.722 19.9034 150.48 20.6307 150.003 21.2614C149.531 21.8864 148.875 22.375 148.034 22.7273C147.193 23.0795 146.227 23.2557 145.137 23.2557C143.534 23.2557 142.244 22.9205 141.267 22.25C140.29 21.5739 139.708 20.6335 139.52 19.429L142.529 19.1392C142.665 19.7301 142.955 20.1761 143.398 20.4773C143.841 20.7784 144.418 20.929 145.128 20.929C145.861 20.929 146.449 20.7784 146.892 20.4773C147.341 20.1761 147.566 19.804 147.566 19.3608C147.566 18.9858 147.421 18.6761 147.131 18.4318C146.847 18.1875 146.404 18 145.801 17.8693L143.568 17.4006C142.313 17.1392 141.384 16.6989 140.781 16.0795C140.179 15.4545 139.881 14.6648 139.887 13.7102C139.881 12.9034 140.1 12.2045 140.543 11.6136C140.992 11.017 141.614 10.5568 142.409 10.233C143.21 9.90341 144.134 9.73864 145.179 9.73864C146.713 9.73864 147.921 10.0653 148.801 10.7188C149.688 11.3722 150.236 12.2557 150.446 13.3693ZM156.837 15.3295V23H153.751V5.54545H156.769V12.1335H156.922C157.229 11.3949 157.703 10.8125 158.345 10.3864C158.993 9.95455 159.817 9.73864 160.817 9.73864C161.726 9.73864 162.519 9.92898 163.195 10.3097C163.871 10.6903 164.394 11.2472 164.763 11.9801C165.138 12.7131 165.325 13.608 165.325 14.6648V23H162.24V15.142C162.24 14.2614 162.013 13.5767 161.558 13.0881C161.109 12.5937 160.479 12.3466 159.666 12.3466C159.121 12.3466 158.632 12.4659 158.2 12.7045C157.774 12.9375 157.439 13.2756 157.195 13.7188C156.956 14.1619 156.837 14.6989 156.837 15.3295Z" fill="url(#paint0_linear_213_497)"/>
<path d="M175.52 23V5.54545H178.682V12.9347H186.77V5.54545H189.94V23H186.77V15.5852H178.682V23H175.52ZM199.518 23.2557C198.206 23.2557 197.072 22.983 196.118 22.4375C195.169 21.8864 194.439 21.108 193.927 20.1023C193.416 19.0909 193.16 17.9006 193.16 16.5312C193.16 15.1847 193.416 14.0028 193.927 12.9858C194.444 11.9631 195.166 11.1676 196.092 10.5994C197.018 10.0256 198.106 9.73864 199.356 9.73864C200.163 9.73864 200.924 9.86932 201.64 10.1307C202.362 10.3864 202.998 10.7841 203.549 11.3239C204.106 11.8636 204.544 12.5511 204.862 13.3864C205.18 14.2159 205.339 15.2045 205.339 16.3523V17.2983H194.609V15.2188H202.382C202.376 14.6278 202.248 14.1023 201.998 13.642C201.748 13.1761 201.399 12.8097 200.95 12.5426C200.507 12.2756 199.99 12.142 199.399 12.142C198.768 12.142 198.214 12.2955 197.737 12.6023C197.26 12.9034 196.887 13.3011 196.62 13.7955C196.359 14.2841 196.226 14.821 196.22 15.4062V17.2216C196.22 17.983 196.359 18.6364 196.637 19.1818C196.916 19.7216 197.305 20.1364 197.805 20.4261C198.305 20.7102 198.89 20.8523 199.561 20.8523C200.01 20.8523 200.416 20.7898 200.78 20.6648C201.143 20.5341 201.459 20.3438 201.726 20.0938C201.993 19.8438 202.194 19.5341 202.331 19.1648L205.211 19.4886C205.03 20.25 204.683 20.9148 204.172 21.483C203.666 22.0455 203.018 22.483 202.228 22.7955C201.439 23.1023 200.535 23.2557 199.518 23.2557ZM212.196 23.2642C211.367 23.2642 210.62 23.1165 209.955 22.821C209.296 22.5199 208.773 22.0767 208.387 21.4915C208.006 20.9062 207.816 20.1847 207.816 19.3267C207.816 18.5881 207.952 17.9773 208.225 17.4943C208.497 17.0114 208.87 16.625 209.341 16.3352C209.813 16.0455 210.344 15.8267 210.935 15.679C211.532 15.5256 212.148 15.4148 212.784 15.3466C213.551 15.267 214.174 15.196 214.651 15.1335C215.128 15.0653 215.475 14.9631 215.691 14.8267C215.912 14.6847 216.023 14.4659 216.023 14.1705V14.1193C216.023 13.4773 215.833 12.9801 215.452 12.6278C215.071 12.2756 214.523 12.0994 213.807 12.0994C213.051 12.0994 212.452 12.2642 212.009 12.5938C211.571 12.9233 211.276 13.3125 211.122 13.7614L208.242 13.3523C208.469 12.5568 208.844 11.892 209.367 11.358C209.89 10.8182 210.529 10.4148 211.284 10.1477C212.04 9.875 212.875 9.73864 213.79 9.73864C214.421 9.73864 215.049 9.8125 215.674 9.96023C216.299 10.108 216.87 10.3523 217.387 10.6932C217.904 11.0284 218.318 11.4858 218.631 12.0653C218.949 12.6449 219.108 13.3693 219.108 14.2386V23H216.142V21.2017H216.04C215.853 21.5653 215.588 21.9062 215.247 22.2244C214.912 22.5369 214.489 22.7898 213.978 22.983C213.472 23.1705 212.878 23.2642 212.196 23.2642ZM212.997 20.9972C213.617 20.9972 214.154 20.875 214.608 20.6307C215.063 20.3807 215.412 20.0511 215.657 19.642C215.907 19.233 216.032 18.7869 216.032 18.304V16.7614C215.935 16.8409 215.77 16.9148 215.537 16.983C215.31 17.0511 215.054 17.1108 214.77 17.1619C214.486 17.2131 214.205 17.2585 213.926 17.2983C213.648 17.3381 213.407 17.3722 213.202 17.4006C212.742 17.4631 212.33 17.5653 211.966 17.7074C211.603 17.8494 211.316 18.0483 211.105 18.304C210.895 18.554 210.79 18.8778 210.79 19.2756C210.79 19.8438 210.997 20.2727 211.412 20.5625C211.827 20.8523 212.355 20.9972 212.997 20.9972ZM225.776 5.54545V23H222.691V5.54545H225.776ZM235.965 9.90909V12.2955H228.44V9.90909H235.965ZM230.298 6.77273H233.383V19.0625C233.383 19.4773 233.445 19.7955 233.57 20.017C233.701 20.233 233.872 20.3807 234.082 20.4602C234.292 20.5398 234.525 20.5795 234.781 20.5795C234.974 20.5795 235.15 20.5653 235.309 20.5369C235.474 20.5085 235.599 20.483 235.684 20.4602L236.204 22.8722C236.039 22.929 235.803 22.9915 235.497 23.0597C235.195 23.1278 234.826 23.1676 234.389 23.179C233.616 23.2017 232.92 23.0852 232.3 22.8295C231.681 22.5682 231.19 22.1648 230.826 21.6193C230.468 21.0739 230.292 20.392 230.298 19.5739V6.77273ZM242.392 15.3295V23H239.307V5.54545H242.324V12.1335H242.477C242.784 11.3949 243.258 10.8125 243.901 10.3864C244.548 9.95455 245.372 9.73864 246.372 9.73864C247.281 9.73864 248.074 9.92898 248.75 10.3097C249.426 10.6903 249.949 11.2472 250.318 11.9801C250.693 12.7131 250.881 13.608 250.881 14.6648V23H247.795V15.142C247.795 14.2614 247.568 13.5767 247.114 13.0881C246.665 12.5937 246.034 12.3466 245.222 12.3466C244.676 12.3466 244.187 12.4659 243.756 12.7045C243.33 12.9375 242.994 13.2756 242.75 13.7188C242.511 14.1619 242.392 14.6989 242.392 15.3295Z" fill="url(#paint1_linear_213_497)"/>
<mask id="mask0_213_497" style="mask-type:alpha" maskUnits="userSpaceOnUse" x="71" y="28" width="239" height="11">
<rect x="71.1156" y="30.9414" width="238.823" height="7.81599" transform="rotate(-0.482737 71.1156 30.9414)" fill="#C4C4C4"/>
</mask>
<g mask="url(#mask0_213_497)">
<path d="M106.972 28.986L107.555 28.8781L106.418 28.74L106.962 28.6273C107.508 28.6236 108.216 28.7797 108.601 28.6904C108.647 28.6066 108.052 28.5849 107.9 28.5198C107.765 28.4528 107.655 28.3861 107.571 28.3205C107.868 28.3187 108.195 28.332 108.532 28.3596C108.986 28.4055 109.431 28.4259 109.818 28.4186C110.609 28.4254 111.373 28.4055 112.234 28.4012L111.946 28.2031L113.055 28.2407C113.172 28.2549 113.312 28.2292 113.428 28.2471C114.39 28.399 114.796 28.3084 115.256 28.2322C115.351 28.2127 115.464 28.1978 115.595 28.1879C116.877 28.2154 118.034 28.4298 119.189 28.5352C119.407 28.5628 119.615 28.5987 119.801 28.6405C120.203 28.7215 120.65 28.7866 121.101 28.8299C121.552 28.8731 121.993 28.8932 122.383 28.8883C123.246 28.8791 124.222 28.9267 125.215 29.0264C125.511 29.0594 125.806 29.0804 126.083 29.088C126.36 29.0955 126.612 29.0894 126.823 29.0701L127.495 29.179C127.785 29.1301 128.154 29.1015 128.578 29.0949C129.003 29.0884 129.474 29.104 129.964 29.1409C130.486 29.1809 131.016 29.2065 131.557 29.2489C132.675 29.3294 133.763 29.3752 134.787 29.3849C136.313 29.4265 137.803 29.456 139.342 29.5108C140.304 29.5354 141.242 29.5455 142.149 29.541C143.236 29.5447 144.412 29.5967 145.621 29.6947C145.565 29.7966 145.035 29.7711 144.679 29.7707C143.533 29.7635 142.359 29.7297 141.179 29.7068C140.647 29.6985 140.131 29.698 139.631 29.7053C138.797 29.7081 137.917 29.6885 137.007 29.6468C135.569 29.6045 134.177 29.5901 132.846 29.6037C132.742 29.6086 132.646 29.6165 132.561 29.6274C132.543 29.6363 132.54 29.6473 132.551 29.6595C132.562 29.6717 132.588 29.6845 132.625 29.6968C132.662 29.7092 132.71 29.7206 132.764 29.7299C132.818 29.7392 132.876 29.7462 132.932 29.7502C133.462 29.8145 134.03 29.8836 134.529 29.8897C134.548 29.8904 134.569 29.892 134.589 29.8944C134.609 29.8969 134.629 29.9002 134.647 29.904C135.764 30.0398 136.682 30.0075 137.551 30.0238C138.995 30.0754 140.387 30.0935 141.706 30.0778C141.905 30.0764 142.12 30.0829 142.344 30.097C143.725 30.1501 145.017 30.1465 146.158 30.0863C146.627 30.0695 147.064 30.037 147.568 30.0323C147.879 30.0277 148.15 30.007 148.363 29.9716C148.577 29.9361 148.73 29.8866 148.812 29.8259C149.026 29.8557 149.242 29.882 149.459 29.9045C149.589 29.9174 149.713 29.92 149.807 29.9119C149.901 29.9039 149.957 29.8857 149.965 29.861C150.003 29.7918 149.707 29.7598 149.45 29.7324C149.605 29.7164 149.779 29.7062 149.969 29.7022C151.038 29.6775 152.185 29.6864 153.385 29.7287C154.317 29.7837 155.06 29.7263 156.041 29.8066C156.159 29.8209 156.255 29.7976 156.363 29.7913C156.645 29.7606 156.996 29.7513 157.387 29.7642C157.777 29.777 158.194 29.8117 158.603 29.8653C159.11 29.7054 160.209 29.8739 161.02 29.883C161.271 29.9601 160.984 29.9486 160.972 29.9704C160.96 29.9923 160.972 29.9704 160.874 29.9585C160.065 30.0774 158.957 30.1112 157.703 30.0551C157.471 30.0573 157.251 30.0643 157.043 30.0759C156.728 30.0926 156.374 30.0942 155.994 30.0806C155.58 30.0718 155.199 30.0809 154.871 30.1073C154.681 30.1085 154.522 30.1217 154.406 30.1457C154.29 30.1697 154.222 30.2037 154.209 30.2445C154.335 30.2748 154.476 30.3024 154.624 30.326C155.399 30.4179 156.171 30.4521 156.789 30.4219C157.864 30.3699 159.143 30.4011 160.287 30.3768C161.06 30.3643 161.882 30.3743 162.739 30.4066C162.739 30.4066 162.717 30.4466 162.715 30.4503C162.816 30.4667 162.923 30.4796 163.029 30.4884C163.029 30.4884 163.029 30.4884 163.039 30.4702C162.992 30.4532 162.928 30.4373 162.855 30.4245L162.6 30.3935C162.773 30.3835 162.934 30.3565 163.115 30.3706C163.495 30.3965 163.858 30.4058 164.183 30.3978C164.507 30.3898 164.786 30.3647 165.002 30.3241C165.387 30.2711 165.865 30.2445 166.406 30.2459C166.82 30.2369 167.22 30.2219 167.602 30.2008C167.602 30.2008 167.626 30.1572 167.807 30.1325C167.636 30.1055 167.456 30.0837 167.278 30.0682C166.503 30.0323 165.726 30.0001 164.964 29.9775C164.684 29.9767 164.42 29.9838 164.178 29.9986C163.509 30.0192 162.756 30.0043 161.964 29.9549C161.964 29.9549 161.807 29.9359 161.729 29.9263C161.95 29.8289 162.716 29.9181 163.026 29.8508C163.214 29.8504 163.546 29.8557 163.535 29.8388C163.508 29.8163 163.505 29.7952 163.525 29.777C163.545 29.7588 163.587 29.7441 163.649 29.7337C163.71 29.7234 163.79 29.7178 163.882 29.7172C163.974 29.7167 164.076 29.7213 164.18 29.7307C165.052 29.7789 165.873 29.7874 166.593 29.7558C166.866 29.754 167.172 29.7678 167.443 29.7697C167.609 29.7732 167.761 29.7692 167.889 29.7578C168.543 29.6762 169.424 29.6633 170.4 29.7208C170.871 29.7405 171.311 29.7399 171.698 29.7192C171.973 29.7138 172.09 29.7668 172.286 29.7906L173.118 29.8373L172.05 29.9136C172.28 30.0658 172.462 30.1151 172.835 30.1216C173.379 30.1315 173.909 30.1336 174.422 30.1278C174.801 30.1234 175.113 30.0875 175.627 30.1422C175.718 30.151 175.805 30.1534 175.874 30.1489C176.475 30.0915 177.199 30.0734 177.996 30.0958C178.408 29.9943 179.112 30.0837 179.763 30.155C179.972 30.0794 179.591 30.0487 179.364 30.0056C179.908 30.0056 180.456 29.9983 181.018 30.0044C181.186 29.999 181.379 30.0041 181.582 30.0193C181.784 30.0344 181.99 30.0591 182.183 30.0916C182.277 30.1128 182.391 30.1284 182.5 30.1351C182.609 30.1419 182.706 30.1393 182.769 30.1279C183.061 30.0933 183.528 30.1189 183.768 30.0626C183.853 30.0494 183.976 30.0467 184.113 30.0548C184.251 30.063 184.394 30.0815 184.518 30.1071C184.382 30.1165 184.262 30.1306 184.16 30.1491C183.791 30.2093 183.928 30.3035 184.397 30.4383C185.116 30.4246 185.85 30.4206 186.517 30.3888C186.888 30.3622 187.343 30.3657 187.831 30.3989C188.319 30.4321 188.82 30.4937 189.279 30.5767C189.445 30.6088 189.634 30.6303 189.808 30.6371C189.983 30.6439 190.13 30.6355 190.221 30.6135C190.277 30.5884 190.295 30.5572 190.271 30.5225L189.801 30.4653C189.801 30.4653 189.819 30.4325 189.823 30.4252L190.499 30.4141C190.856 30.4109 191.229 30.4173 191.567 30.4118C192.063 30.3894 192.63 30.3947 193.232 30.4275C193.788 30.4617 194.334 30.4864 194.865 30.5016C195.379 30.5174 195.751 30.4499 196.24 30.4355C196.61 30.4247 197.017 30.4295 197.446 30.4499C198.187 30.4862 198.866 30.4805 199.422 30.4335C200.073 30.6563 200.388 30.6908 200.99 30.624L201.273 30.604L201.351 30.6523L201.567 30.6397C201.972 30.6267 202.377 30.6137 202.799 30.6067C203.386 30.623 204.021 30.6746 204.641 30.7567C204.759 30.7709 204.919 30.8215 205.022 30.8613C205.126 30.9011 205.352 31.0218 205.518 31.1002C205.338 31.16 205.139 31.2174 204.997 31.2856C204.983 31.2972 204.984 31.3108 205.001 31.3254C205.018 31.34 205.051 31.3552 205.096 31.3697C205.141 31.3842 205.197 31.3977 205.26 31.409C205.323 31.4203 205.391 31.4292 205.458 31.4349C205.59 31.4473 205.72 31.4552 205.843 31.4583C206.448 31.4603 207.027 31.4502 207.575 31.4279C207.775 31.4013 208.049 31.3966 208.354 31.4146C208.658 31.4326 208.976 31.4722 209.257 31.5272C209.974 31.4868 210.807 31.4899 211.7 31.5365C212.643 31.4956 213.783 31.5526 214.664 31.4731C214.644 31.5095 214.735 31.5711 214.862 31.606C215.063 31.6589 215.291 31.7076 215.536 31.75L217.4 31.8211C217.47 31.8651 217.558 31.9095 217.662 31.9538C217.733 31.9889 217.856 32.0227 218.006 32.0482C218.156 32.0737 218.321 32.0888 218.465 32.0903C218.836 32.1004 219.147 32.0682 219.589 32.1375C218.909 32.2123 217.99 32.2109 216.997 32.1335C216.064 32.0761 215.167 32.051 214.339 32.0592C214.066 32.061 213.707 32.0679 213.622 32.1081C213.434 32.2212 212.939 32.2077 212.362 32.192C211.909 32.1733 211.495 32.1793 211.154 32.2096C210.814 32.2398 210.556 32.2934 210.404 32.366C210.365 32.4352 210.459 32.4931 210.857 32.5298L212.512 32.6766C212.756 32.6538 212.987 32.6275 213.205 32.5975C213.571 32.557 214.025 32.5429 214.529 32.5563C215.033 32.5697 215.575 32.6103 216.112 32.6748C216.386 32.7081 216.661 32.7415 216.859 32.7229C217.034 32.7019 217.194 32.6773 217.34 32.6491C217.369 32.6308 217.38 32.6099 217.374 32.5872C217.479 32.5969 217.585 32.6097 217.688 32.6253C218.506 32.8102 219.138 32.8015 219.712 32.747C219.868 32.7309 219.986 32.7064 220.143 32.6866C220.301 32.6669 220.356 32.6425 220.499 32.6483C221.642 32.7015 221.969 32.4887 222.931 32.489C222.978 32.4804 223.007 32.4679 223.015 32.4527C223.024 32.4374 223.011 32.4199 222.979 32.4017C222.911 32.3856 222.832 32.3719 222.75 32.3619C222.668 32.3519 222.585 32.3459 222.509 32.3445C222.066 32.3213 221.675 32.3328 221.403 32.3772C221.21 32.396 221.006 32.4114 220.791 32.4234L219.825 32.1273C220.759 32.1473 221.642 32.1397 222.453 32.1046C222.63 32.0873 222.93 32.1121 223.179 32.1152L225.013 32.1281C225.391 32.1273 225.711 32.0769 226.238 32.1837C226.238 32.1837 226.585 32.1987 226.678 32.1827C226.77 32.1667 227.18 32.0689 227.425 32.0053C227.709 32.0205 228.103 32.0644 228.28 32.0471C228.589 32.0055 228.857 31.9533 229.078 31.8914L230.186 31.9678C230.186 32.0439 230.146 32.1159 230.067 32.1826C229.982 32.247 229.985 32.3234 230.078 32.4056C230.171 32.4878 230.35 32.5734 230.601 32.6554L231.698 33.0918C231.877 33.1201 232.068 33.1386 232.244 33.1447C232.42 33.1509 232.574 33.1443 232.684 33.126C233.154 33.0705 233.681 33.0257 234.151 32.9701C234.759 33.0439 234.604 33.1728 235.046 33.2809L236.477 33.4547C236.697 33.6252 236.92 33.7883 236.257 33.8516C236.126 33.8628 236.215 33.9281 236.095 33.9562C236.612 34.0811 237.179 34.1151 237.702 34.1903C237.908 34.2458 238.081 34.305 238.212 34.3649C238.356 34.4556 238.647 34.5471 239.021 34.6195C239.396 34.692 239.825 34.7396 240.216 34.7521C240.871 34.795 241.541 34.862 242.198 34.9502C242.422 34.9809 242.653 35.0027 242.874 35.0142C243.095 35.0256 243.301 35.0264 243.48 35.0165C244.114 34.9964 244.651 34.9411 245.055 34.8543C245.454 34.7801 245.994 34.7415 246.623 34.7418C247.702 34.8728 247.921 35.082 248.574 35.2624L247.448 35.2927C247.408 35.3656 247.483 35.4563 247.022 35.4585C246.56 35.4607 246.795 35.5281 246.945 35.5969C246.998 35.6317 247.102 35.667 247.237 35.697C247.373 35.727 247.534 35.7497 247.691 35.7613L248.65 35.8429C248.99 35.8741 249.32 35.8859 249.601 35.877C249.883 35.868 250.107 35.8387 250.248 35.7921C250.409 35.7477 250.633 35.7167 250.905 35.701C251.251 35.663 251.535 35.6083 251.748 35.5392L253.101 35.6259C253.158 35.5577 253.344 35.5087 253.626 35.4871C253.909 35.4655 254.271 35.4727 254.652 35.5074L255.565 35.5599C256.579 35.6171 256.802 35.5936 257.097 35.4003L255.878 35.0696C256.054 34.9783 256.224 34.8979 256.394 34.8175C256.09 34.7077 255.685 34.6049 255.22 34.5195C254.786 34.4271 254.339 34.3378 253.883 34.2521C253.387 34.1647 252.864 34.0894 252.248 33.9914C252.141 33.9589 251.985 33.901 251.785 33.8457C251.585 33.792 251.377 33.7394 251.161 33.6883C251.201 33.6155 251.237 33.5499 251.158 33.4665C251.537 33.4901 251.928 33.5338 252.297 33.5935C252.665 33.6532 253 33.7271 253.27 33.8085C253.316 33.823 253.371 33.8365 253.433 33.848C253.496 33.8596 253.563 33.869 253.631 33.8756C254.296 33.9215 254.614 34.0262 254.94 34.1552C255.16 34.2207 255.442 34.2781 255.749 34.3195C256.337 34.391 256.913 34.4843 257.476 34.5643C257.648 34.591 257.827 34.6128 258.005 34.6286C258.593 34.6786 259.184 34.7504 259.75 34.8405C259.934 34.8631 260.111 34.8935 260.266 34.9292C260.421 34.9649 260.55 35.0049 260.64 35.0459C260.501 35.0927 260.426 35.151 260.42 35.2173C260.396 35.2609 260.809 35.3461 261.005 35.4087C261.2 35.4713 260.818 35.4443 260.688 35.4518C260.155 35.4687 260.057 35.4956 260.377 35.6355C260.484 35.6795 260.555 35.7238 260.586 35.7656C260.617 35.8074 260.607 35.846 260.556 35.8788C260.482 36.0135 260.252 36.1255 260.095 36.258C260.342 36.3423 260.753 36.4311 260.798 36.5377C260.82 36.5612 260.866 36.586 260.932 36.6101C260.998 36.6343 261.083 36.6573 261.181 36.6774C261.439 36.7205 261.674 36.7727 261.868 36.8299C262.061 36.887 262.207 36.9477 262.296 37.0072C262.325 37.0318 262.395 37.0576 262.491 37.0795C262.588 37.1013 262.704 37.1175 262.817 37.1248C262.951 37.1339 263.072 37.1315 263.153 37.1182C263.234 37.105 263.27 37.0818 263.254 37.0536C263.256 37.0002 263.238 36.9447 263.199 36.8876C263.221 36.8476 263.243 36.8075 263.154 36.7423C263.556 36.763 263.977 36.8077 264.374 36.8716C264.77 36.9355 265.125 37.0161 265.401 37.1046C265.706 37.1961 265.988 37.2925 266.326 37.3996C266.258 37.5234 266.258 37.5234 266.977 37.7352L270.786 37.8093L271.568 37.947C272.296 38.0666 272.469 38.0566 272.926 37.9877L273.233 37.924C273.88 38.0026 274.625 38.0931 275.028 37.9322C275.16 38.0337 275.246 38.0675 275.216 38.0833C275.025 38.2364 274.69 38.3678 274.227 38.4722C274.109 38.4967 274.026 38.5332 273.888 38.5553C273.444 38.6773 273.343 38.861 273.604 39.0687C273.734 39.1605 273.921 39.254 274.162 39.3462C273.812 39.48 273.349 39.5923 272.784 39.6802C272.305 39.7485 271.91 39.8378 271.612 39.9457C271.344 40.0543 270.943 40.1375 270.43 40.1907C270.17 40.2137 269.981 40.2564 269.881 40.3144C269.852 40.4694 269.922 40.6345 270.09 40.806C270.122 40.8584 270.211 40.9145 270.351 40.9699C270.491 41.0254 270.678 41.0786 270.897 41.1255C270.897 41.1255 271.002 41.1616 271.053 41.1834C271.097 41.3704 270.94 41.5369 270.594 41.6716C270.538 41.7095 270.422 41.7375 270.258 41.7526C270.095 41.7677 269.891 41.7693 269.668 41.7573C269.197 41.7389 268.757 41.7399 268.302 41.7312C267.811 41.7176 267.379 41.7352 267.051 41.7822C266.723 41.8292 266.511 41.9038 266.438 41.9983C266.434 42.0249 266.42 42.0504 266.396 42.0747C266.382 42.0873 266.375 42.1007 266.374 42.1148L267.422 42.4131L266.24 42.5454C266.172 42.6692 266.74 42.7382 267.026 42.8273L266.85 42.8798C266.624 42.9106 266.318 42.8579 266.042 42.8282L265.767 42.7949L265.735 42.8531C265.565 42.9335 264.942 42.85 264.699 42.9099C264.457 42.9699 264.631 43.0337 264.995 43.0935C265.249 43.1382 265.521 43.1731 265.791 43.1959C266.061 43.2186 266.322 43.2284 266.555 43.2247C266.694 43.2173 266.809 43.2022 266.893 43.1803C267.383 43.0859 267.925 43.0037 268.515 42.9344C268.966 42.8727 269.533 42.8434 270.173 42.8483C270.361 42.8424 270.588 42.8542 270.814 42.8816C271.04 42.9091 271.25 42.9504 271.408 42.9984L271.74 43.0037C271.74 43.0037 271.922 43.053 271.896 43.0616C271.771 43.2132 271.92 43.3961 272.319 43.5831L271.973 43.6032C271.479 43.5898 271.793 43.7018 271.72 43.7589C271.368 43.7512 270.911 43.7074 270.745 43.7805L270.496 43.7774L270.594 43.7893L270.712 43.7648L271.178 43.868C270.958 43.8879 270.799 43.9112 270.604 43.9226C270.497 43.9319 270.411 43.9475 270.353 43.9685C270.294 43.9894 270.264 44.0153 270.265 44.0445C270.265 44.0895 270.208 44.1278 270.097 44.1558C269.986 44.1839 269.826 44.2007 269.632 44.2047C269.4 44.2076 269.268 44.2576 269.132 44.2761L269.725 44.5657C269.725 44.5657 269.431 44.53 269.591 44.5806L269.611 44.5441L269.97 44.6149C270.228 44.6774 270.409 44.6915 270.561 44.6439C270.712 44.5963 270.678 44.6582 270.751 44.6399C270.725 44.6872 270.559 44.7215 270.418 44.7509C270.254 44.7744 270.068 44.7923 269.865 44.8042C270.233 45.0083 270.251 45.0143 269.716 45.0736C269.181 45.133 269.366 45.2138 268.919 45.2293C268.471 45.2448 268.981 45.3807 269.281 45.4055C269.504 45.4216 269.731 45.4477 269.946 45.4819C270.162 45.5162 270.362 45.5578 270.531 45.604L270.443 45.7642C270.311 45.7521 270.179 45.736 270.051 45.7166C269.616 45.6326 269.22 45.5535 268.835 45.6077L269.02 45.7273L267.671 45.6684C267.707 45.7589 267.913 45.8606 268.247 45.952C268.197 46.0042 268.167 46.0589 268.156 46.1158C268.134 46.1559 268.001 46.1319 267.914 46.137C267.605 46.1462 267.352 46.1754 267.177 46.2218C267.002 46.2683 266.91 46.3306 266.909 46.4034C266.875 46.4653 267.35 46.5891 267.647 46.5824C268.387 46.5885 269.189 46.6291 270.007 46.7021C270.506 46.7083 270.575 46.5457 271.397 46.6494C271.413 46.7241 271.309 46.7855 271.099 46.8244C270.888 46.8634 270.584 46.8777 270.231 46.8653C270.433 47.0297 271.544 47.0636 271.595 47.2369C271.318 47.2269 271.022 47.2006 270.736 47.1604C270.45 47.1202 270.184 47.0675 269.964 47.0077C269.916 46.9929 269.857 46.9794 269.791 46.9684C269.725 46.9574 269.654 46.9493 269.585 46.9449C269.517 46.9404 269.453 46.9398 269.399 46.943C269.345 46.9461 269.303 46.9531 269.277 46.9631C269.431 47.0246 269.601 47.0957 269.795 47.162C269.988 47.2282 270.035 47.2572 270.174 47.2703C271.213 47.3965 271.709 47.6354 272.608 47.7874C272.843 47.816 272.873 47.9129 272.669 47.9036C272.475 47.8943 272.299 47.8972 272.162 47.9121C272.024 47.9269 271.93 47.9531 271.89 47.9878C271.74 48.029 271.553 48.0624 271.333 48.0872C272.256 48.3288 273.356 48.54 274.529 48.7008C274.752 48.7327 274.983 48.7513 275.191 48.7539C275.845 48.7487 276.539 48.7626 277.26 48.7955C277.515 48.804 277.751 48.801 277.955 48.7867C278.623 48.7513 279.155 48.812 279.641 48.9915L280.446 49.2758C280.42 49.3232 280.286 49.3768 280.182 49.4498L280.811 49.5999L285.592 49.2016L286.556 49.5401L287.933 49.5093C288.038 49.5184 288.144 49.5313 288.246 49.5474C288.526 49.6474 288.744 49.7439 289.047 49.839C289.35 49.9341 289.89 49.9414 290.268 50.0533C290.645 50.1652 291.022 50.1644 291.489 50.2288C291.533 50.3175 291.489 50.3981 291.358 50.4655C291.315 50.5419 291.079 50.5909 291.039 50.6637C291.044 50.7369 290.957 50.7999 290.784 50.8468C290.612 50.8938 290.361 50.9232 290.053 50.9326C289.193 51.0958 288.154 51.2156 286.969 51.2884C286.865 51.2938 286.779 51.3051 286.716 51.3215C286.653 51.3379 286.614 51.3591 286.602 51.3837C286.605 51.4548 286.526 51.5169 286.373 51.5655C286.219 51.614 285.994 51.6478 285.715 51.6644C285.64 51.6679 285.584 51.6773 285.553 51.6915C285.447 51.7013 285.37 51.7191 285.33 51.7431C285.289 51.7671 285.286 51.7965 285.321 51.8285C285.355 51.8605 285.427 51.8939 285.529 51.9256C285.63 51.9573 285.758 51.9862 285.9 52.0095C286.107 52.0472 286.317 52.0831 286.531 52.1172C286.519 52.1391 286.307 52.1444 286.338 52.1637C286.422 52.2255 286.442 52.2839 286.396 52.3343C286.35 52.3847 286.24 52.4257 286.073 52.454L287.221 52.9509C287.915 53.0152 288.597 53.1285 289.137 53.2691C289.138 53.2929 289.107 53.3131 289.047 53.3277C288.988 53.3423 288.902 53.3508 288.798 53.3523C288.519 53.365 288.255 53.3874 287.955 53.4014C287.771 53.4115 287.618 53.4317 287.505 53.4606C287.392 53.4896 287.321 53.5268 287.296 53.5701L287.969 53.7529C287.755 53.8007 287.595 53.824 287.453 53.8534C287.534 53.912 287.673 53.9721 287.86 54.029C288.046 54.086 288.274 54.1384 288.527 54.182C288.595 54.1909 288.664 54.1972 288.73 54.2006C288.797 54.204 288.859 54.2044 288.914 54.2018C289.433 54.1328 290.042 54.2417 290.634 54.3447C291.225 54.4477 291.547 54.51 291.983 54.5903L292.818 54.5945C293.029 54.6325 293.218 54.6776 293.369 54.7263C293.52 54.775 293.629 54.826 293.688 54.875C293.644 54.9551 293.247 54.9148 293.012 54.925C292.453 54.9793 291.717 54.9749 290.926 54.9126C290.73 54.8888 290.53 54.911 290.339 54.9151C289.928 54.9284 289.533 54.9479 289.156 54.9734C288.908 54.9962 288.676 55.0239 288.462 55.0561C288.405 55.1581 289.308 55.2288 288.796 55.2833C288.973 55.3047 289.039 55.3361 289.13 55.3238C289.711 55.3848 290.283 55.4125 290.78 55.4038C291.734 55.3818 292.817 55.4189 293.942 55.5121C295.156 55.6082 296.32 55.6431 297.338 55.6138C297.726 55.6093 298.159 55.6274 298.606 55.6668C299.133 55.7221 299.657 55.7552 300.142 55.7641C300.303 55.7632 300.482 55.7718 300.665 55.7893C300.848 55.8068 301.03 55.8327 301.195 55.8648C301.181 55.8903 301.024 55.91 301.059 55.9221C301.563 56.1076 301.768 56.3036 302.543 56.491C303.073 56.5553 303.68 56.6291 304.025 56.535C304.37 56.4409 304.246 56.3636 303.556 56.136C303.705 56.1314 303.885 56.1408 304.064 56.1626C304.243 56.1843 304.41 56.2171 304.536 56.2551L305.133 56.4247L305.67 56.5872C305.624 56.6709 305.588 56.7365 305.549 56.8057C305.489 56.8793 305.557 56.9677 305.744 57.0586C305.857 57.1081 305.956 57.1577 306.039 57.207C306.376 57.4042 306.474 57.5925 306.324 57.7507C306.034 57.9787 305.631 58.1897 305.117 58.3812C304.574 58.5678 304.278 58.8 303.832 59.0022C303.604 59.0944 303.327 59.1778 303.004 59.2513C302.391 59.4138 301.719 59.5692 301.104 59.7354C300.489 59.9016 299.794 60.0231 299.11 60.1615C298.093 60.3276 296.992 60.4729 295.815 60.5966C295.087 60.7024 294.339 60.8059 293.666 60.9261C292.871 61.062 291.936 61.1626 290.885 61.2255C289.957 61.298 289.128 61.4007 288.414 61.5315C288.339 61.5456 288.28 61.5633 288.239 61.584C288.111 61.7124 287.751 61.8051 287.214 61.8481C287.247 61.8851 287.289 61.9226 287.34 61.9605C287.415 62.0056 287.431 62.0483 287.386 62.0829C287.34 62.1176 287.236 62.1427 287.086 62.155C286.656 62.1902 286.299 62.2467 286.031 62.3222C285.932 62.3414 285.871 62.3686 285.853 62.4016C285.835 62.4346 285.86 62.4723 285.926 62.5115C285.985 62.5519 285.99 62.5896 285.939 62.6195C285.889 62.6494 285.787 62.6703 285.645 62.6794C285.281 62.7212 284.892 62.7557 284.479 62.7825C283.601 62.8415 282.578 62.8495 281.474 62.806C281.357 62.7917 281.238 62.8163 281.101 62.7996C280.32 62.747 279.595 62.7439 279.014 62.7908C278.332 62.8129 277.619 62.8156 276.9 62.8293C275.861 62.833 274.903 62.8721 274.053 62.9458C273.08 62.8898 272.534 63.0061 271.713 63.0151C270.955 63.033 270.237 63.0666 269.565 63.1156C268.482 63.1822 267.404 63.2415 266.336 63.3178C265.335 63.3583 264.413 63.4273 263.586 63.5237C263.269 63.5669 262.695 63.5087 262.479 63.5953C262.264 63.6818 261.828 63.6755 261.476 63.7065L260.366 63.7853C260.175 63.8034 259.965 63.8157 259.739 63.8218C258.706 63.8362 257.991 63.9553 257.032 63.9865L256.934 63.9746C255.233 64.1571 253.285 64.2658 251.148 64.2975C249.901 64.3596 248.536 64.3686 247.211 64.4176C246.896 64.4958 246.149 64.409 245.753 64.4813C245.358 64.5537 244.71 64.5139 244.199 64.5296C243.688 64.5452 243.189 64.5778 242.643 64.5814C242.169 64.5858 241.769 64.62 241.479 64.681C240.818 64.7833 240.011 64.847 239.095 64.8692C237.883 64.9045 236.737 64.9713 235.504 64.9691C235.522 65.0395 235.447 65.1001 235.286 65.1448C235.125 65.1894 234.884 65.2165 234.589 65.2232C233.271 65.2612 232.075 65.3414 230.74 65.3734L230.382 65.3766L226.387 65.4508C225.31 65.4677 224.273 65.4893 223.175 65.5075C222.764 65.4574 222.754 65.5496 222.47 65.5344C222.39 65.4898 222.296 65.4706 222.156 65.4963L222.126 65.5509L217.567 65.6615C215.782 65.7292 213.904 65.7609 211.949 65.7561C211.485 65.7654 211.053 65.787 210.658 65.8207C210.292 65.8349 209.91 65.843 209.515 65.8451C208.98 65.8359 208.457 65.8334 207.95 65.8375C206.614 65.8695 205.212 65.8702 203.749 65.8673C202.286 65.8644 201.178 65.9008 199.875 65.9097C198.994 65.9152 198.116 65.9135 197.203 65.8997C196.767 65.8934 196.23 65.8436 195.778 65.8277C195.327 65.8117 195.18 65.8132 195.12 65.8448C194.924 65.9338 194.43 65.8815 194.036 65.8763C193.266 65.8683 193.156 65.8394 192.946 65.6156L193.889 65.536C194.12 65.5109 194.411 65.5044 194.734 65.5171C195.057 65.5297 195.401 65.5612 195.732 65.6084C195.863 65.6287 195.999 65.6444 196.133 65.6548C196.268 65.6651 196.397 65.6697 196.515 65.6685C197.468 65.6482 198.407 65.6147 199.322 65.586L199.456 65.5712L199.463 65.3699C199.341 65.3512 199.216 65.3359 199.09 65.3247L194.496 65.2329C193.442 65.2097 192.347 65.1466 191.313 65.1258C190.278 65.1051 189.72 65.0917 188.918 65.068C188.579 65.0535 188.233 65.0336 187.884 65.0084C187.904 64.9889 187.915 64.9682 187.918 64.9466C187.936 64.9138 187.96 64.8701 187.811 64.8365C187.649 64.7886 187.432 64.7484 187.204 64.7239C186.99 64.7082 186.783 64.7 186.59 64.6997C185.658 64.6907 184.593 64.5934 183.623 64.4286L183.285 64.5469C181.829 64.4943 180.351 64.443 178.829 64.3942C178.525 64.3799 178.205 64.3504 177.894 64.3077C177.561 64.2672 177.254 64.1794 176.903 64.1329C176.556 64.1002 176.212 64.0754 175.877 64.0588C175.967 64.0283 176.087 64.0035 176.231 63.9853C176.374 63.9781 176.477 63.9587 176.527 63.9298C176.577 63.9009 176.57 63.8641 176.508 63.8247C176.399 63.757 176.351 63.6929 176.587 63.6827C176.805 63.6652 176.96 63.6301 177.036 63.5814C177.111 63.5327 177.102 63.4724 177.011 63.4078C176.971 63.3699 176.943 63.3327 176.926 63.2965L176.828 63.2846C176.504 63.1519 175.859 63.1085 175.395 63.0016C175.176 62.9713 174.95 62.9548 174.751 62.9545C174.239 62.935 173.74 62.9289 173.21 62.9033C172.957 62.8917 172.693 62.8688 172.432 62.8359C172.059 62.7907 172.02 62.7859 171.803 62.6119C172.138 62.6121 172.404 62.5836 172.555 62.5311C172.706 62.4787 172.733 62.4055 172.631 62.324C172.353 62.1464 172.059 61.9592 170.806 61.8419C171.214 61.8321 171.607 61.8163 171.983 61.7945C172.092 61.7895 172.174 61.7756 172.217 61.7546C172.261 61.7336 172.263 61.7065 172.225 61.6769C172.187 61.6473 172.109 61.6167 172.003 61.5891C171.897 61.5615 171.767 61.5383 171.631 61.5225C170.969 61.4263 170.279 61.364 169.639 61.3426C169.099 61.3353 168.611 61.346 167.981 61.351L167.236 61.2605C167.248 61.2387 167.139 61.2098 167.166 61.1977C167.354 61.0845 167.562 60.9738 167.776 60.8521C167.432 60.7902 167.134 60.7146 166.916 60.6338C166.698 60.5531 166.569 60.4704 166.543 60.3954C166.524 60.3728 166.529 60.3521 166.557 60.3346C166.585 60.3172 166.635 60.3034 166.704 60.2944C166.899 60.2782 167.05 60.2491 167.145 60.2094C167.239 60.1697 167.275 60.1204 167.249 60.0653L166.668 59.8666C164.925 59.736 163.213 59.6466 161.564 59.6001L160.076 59.567C159.896 59.514 159.952 59.4897 160.121 59.4869C160.29 59.4841 160.765 59.4952 161.096 59.5005C161.383 59.5088 161.637 59.4996 161.835 59.4739C162.032 59.4482 162.166 59.4069 162.224 59.3538L161.722 59.1258C161.746 59.0821 161.781 59.0202 162.052 59.0221C162.237 59.0155 162.373 58.9924 162.438 58.9567C162.504 58.9209 162.494 58.8745 162.412 58.8249C162.399 58.7887 162.417 58.7554 162.466 58.7266C162.867 58.7209 163.266 58.7188 163.629 58.7047C163.798 58.6996 163.941 58.6849 164.048 58.6617C164.155 58.6384 164.223 58.6072 164.248 58.57C164.26 58.5338 164.228 58.493 164.153 58.4508C164.078 58.4087 163.963 58.3664 163.817 58.3273C163.247 58.2823 162.725 58.286 162.368 58.3377C162.24 58.377 162.035 58.3996 161.78 58.4025C161.524 58.4054 161.23 58.3886 160.936 58.3542C160.599 58.3145 160.263 58.2986 159.989 58.3094C159.714 58.3203 159.519 58.3571 159.439 58.4132C159.093 58.3946 158.787 58.3807 158.485 58.3595C158.129 58.3326 157.792 58.3266 157.511 58.3422C157.062 58.3554 156.578 58.354 156.07 58.3381C154.605 58.3001 153.139 58.2657 151.721 58.2566C151.346 58.2538 151.022 58.2727 150.651 58.2626C150.28 58.2525 149.987 58.2907 149.522 58.2226C149.434 58.2122 149.345 58.2058 149.262 58.2038C149.18 58.2019 149.106 58.2045 149.047 58.2115C148.233 58.2753 147.278 58.2914 146.238 58.2589C144.815 58.2608 143.338 58.2446 141.912 58.2501C141.494 58.2592 141.099 58.2775 140.731 58.3048C140.451 58.3218 140.158 58.3341 139.853 58.3419C139.619 58.3484 139.395 58.3368 139.436 58.4155C139.476 58.4942 139.125 58.4477 138.923 58.4348C138.229 58.4023 137.519 58.3564 136.802 58.2976C136.095 58.233 135.403 58.1979 134.767 58.1941C134.307 58.1927 133.834 58.2168 133.242 58.1138C133.264 58.0738 133.286 58.0337 133.415 57.991C132.932 57.8805 132.382 57.7866 131.809 57.7171C131.236 57.6475 130.658 57.6042 130.121 57.5909L129.38 57.3804C129.198 57.3565 129.012 57.3395 128.833 57.3305C128.655 57.3215 128.487 57.3207 128.342 57.3281C128.229 57.3322 128.092 57.3253 127.955 57.3086C127.818 57.292 127.691 57.2668 127.597 57.2376C127.456 57.2006 127.284 57.1691 127.103 57.1471C126.922 57.1251 126.739 57.1134 126.577 57.1137C126.069 57.0944 125.526 57.0446 125.004 56.9693C124.869 56.9237 124.784 56.8761 124.76 56.8324C124.735 56.7888 124.773 56.7509 124.869 56.7235C125.022 56.6752 125.108 56.6147 125.121 56.5455C125.134 56.4763 125.074 56.3999 124.945 56.3209C124.878 56.2723 124.856 56.226 124.879 56.1847C124.902 56.1434 124.969 56.108 125.078 56.0806C125.482 55.9549 125.373 55.8872 124.708 55.6899C124.6 55.657 124.47 55.6264 124.326 55.6002C124.182 55.5741 124.027 55.5528 123.872 55.5378C123.507 55.5078 123.147 55.4862 122.799 55.4734C122.602 55.4496 122.402 55.4719 122.176 55.4639C121.047 55.4239 120.882 55.3455 120.515 55.1766L120.248 55.0547C119.753 54.9584 119.212 54.8794 118.664 54.8236C118.116 54.7678 117.575 54.7365 117.079 54.7319C116.882 54.7329 116.655 54.7176 116.433 54.6885C115.712 54.5996 114.982 54.54 114.291 54.5137C113.861 54.4993 113.397 54.4564 112.954 54.3903C112.512 54.3242 112.111 54.2376 111.798 54.141C111.518 54.0539 111.151 53.9767 110.749 53.9202C110.278 53.863 110.234 53.7916 110.496 53.7341C110.758 53.6765 111.197 53.6017 111.587 53.5402C111.723 53.5193 111.806 53.4864 111.829 53.4453C111.852 53.4041 111.813 53.3563 111.716 53.3072C111.653 53.2222 111.642 53.1412 111.682 53.066C111.703 53.0348 111.688 52.9993 111.637 52.9619C111.586 52.9245 111.5 52.8862 111.386 52.8494C111.271 52.8127 111.131 52.7784 110.973 52.7489C110.816 52.7194 110.646 52.6953 110.474 52.6784C109.748 52.5902 109.043 52.5045 108.303 52.4419C107.993 52.412 107.684 52.3744 107.382 52.3299C106.764 52.2188 106.103 52.128 105.437 52.0626C105.122 52.0336 104.813 51.9807 104.577 51.9154C103.836 51.7405 103.152 51.5558 102.539 51.3647C102.391 51.305 102.198 51.2472 101.971 51.195C101.744 51.1427 101.489 51.097 101.222 51.0609C101.006 51.0347 100.83 50.9744 100.664 50.9348C100.542 50.8408 100.529 50.753 100.624 50.6796C100.72 50.6063 100.921 50.5498 101.21 50.5154C101.483 50.4748 101.739 50.4282 101.975 50.3792C102.26 50.3388 102.599 50.3131 102.98 50.3031C103.43 50.2789 103.763 50.2178 103.935 50.1277C102.7 49.9776 101.525 49.7571 100.444 49.8201L99.6208 49.6813C99.653 49.623 99.6812 49.5721 99.7074 49.5247C99.9021 49.4373 99.9622 49.3287 99.8827 49.208C99.8174 49.1498 99.8228 49.0963 99.8983 49.053C99.9737 49.0096 100.117 48.9778 100.312 48.961C101.471 48.7948 102.812 48.678 103.899 48.4913C104.24 48.4552 104.639 48.4367 105.08 48.4366C105.506 48.4224 105.488 48.3424 104.996 48.2477C104.72 48.1984 104.439 48.1513 104.154 48.1065C102.897 48.1093 102.387 48.3504 100.952 48.2965L100.285 47.9901C100.105 47.9868 99.9303 47.9864 99.7623 47.9888L97.3586 48.1359C97.1583 48.1439 97.0026 48.1669 96.909 48.2022C96.8155 48.2376 96.7879 48.2839 96.8294 48.3358C96.8463 48.3996 96.8136 48.4586 96.7327 48.5106C96.6806 48.5469 96.7146 48.5943 96.8271 48.6425C97.0809 48.751 96.7566 48.7699 96.552 48.7995C96.4996 48.8026 96.4393 48.8028 96.3743 48.8001C96.3094 48.7974 96.2412 48.7917 96.1737 48.7835C96.1063 48.7753 96.0408 48.7647 95.9813 48.7523C95.9217 48.74 95.8691 48.726 95.8266 48.7113C95.4648 48.6091 95.1481 48.5007 94.7923 48.3875C95.0433 48.2742 94.7454 48.0943 95.1376 47.9904C95.1814 47.9699 95.1988 47.9453 95.1887 47.918C95.1786 47.8907 95.1413 47.8614 95.0789 47.8317C94.9182 47.7552 94.8413 47.6799 94.8561 47.6135C94.8708 47.5471 94.9766 47.4918 95.1628 47.4534L95.1849 47.4133C94.6919 47.2835 94.8212 47.1632 94.6268 47.023L94.1528 46.9343C92.9736 46.7211 92.9716 46.7248 91.9581 46.7415C91.753 46.6583 92.0125 46.6432 92.2071 46.6319L93.8366 46.5229C94.902 46.4503 95.9985 46.397 97.189 46.3629C98.3795 46.3288 99.7063 46.2374 100.937 46.1692C100.999 46.1642 101.046 46.155 101.075 46.1423C101.104 46.1296 101.113 46.1138 101.103 46.0962C101.053 46.0774 100.989 46.0595 100.915 46.0437C100.84 46.028 100.757 46.0147 100.672 46.005C100.28 45.9573 99.8776 45.9279 99.4598 45.8888L98.6811 45.8214L98.441 45.7262C98.2847 45.6683 98.1776 45.597 97.97 45.5563C97.799 45.526 97.6134 45.5035 97.4326 45.4911C97.2518 45.4787 97.0824 45.4769 96.9421 45.4858C96.5529 45.5085 96.2009 45.5395 95.8294 45.5682C95.4578 45.5969 95.2532 45.6264 94.9309 45.6417C94.276 45.6529 93.6431 45.6733 93.0351 45.7028C92.5232 45.7647 92.0499 45.837 91.6181 45.9192C91.3486 45.9525 91.0967 45.9919 90.6357 45.9553C90.4168 45.9204 90.228 45.8738 90.1025 45.8237C89.977 45.7737 89.9231 45.7233 89.9503 45.6816C89.9747 45.6489 90.0444 45.6226 90.1529 45.6052C90.2614 45.5878 90.405 45.5798 90.5702 45.5821C91.0325 45.5722 91.4599 45.5485 91.8438 45.5114C92.3779 45.4456 93.0286 45.4137 93.7578 45.4176C94.0051 45.4243 94.1706 45.39 94.3867 45.3774C94.6029 45.3648 94.7859 45.3365 95.0272 45.3542C95.7768 45.3986 96.1353 45.3179 96.5838 45.2635C96.7356 45.2399 96.8294 45.2029 96.855 45.1566C96.8806 45.1104 96.837 45.0566 96.7289 45.0014C96.5207 44.8913 96.2663 44.781 95.9696 44.6721C95.8169 44.6187 95.6215 44.5684 95.3986 44.5251C95.1757 44.4819 94.9314 44.4468 94.6848 44.4228C94.5368 44.3556 94.4577 44.2889 94.4544 44.2288C94.4511 44.1687 94.5239 44.1171 94.6661 44.0786C95.0287 43.9905 95.35 43.9013 96.1644 43.942C96.5473 43.9569 96.9075 43.9574 97.2307 43.9433C97.9477 43.9218 98.7752 43.9487 99.6352 44.0217C99.8577 44.0404 100.076 44.0526 100.285 44.0579C101.771 44.0947 103.186 44.1073 104.606 44.1127C105.358 44.1147 106.116 44.1058 106.902 44.1235C108.743 44.1607 110.419 44.1195 112.196 44.1217C113.127 44.1227 113.96 44.0801 114.651 43.9963C114.785 43.9691 114.9 43.9376 114.996 43.9023C114.536 43.8155 114.032 43.748 113.532 43.7062C113.031 43.6645 112.55 43.6498 112.136 43.6636C111.908 43.6909 111.613 43.698 111.285 43.6842C110.956 43.6703 110.607 43.6361 110.275 43.5852L111.238 43.5468C111.876 43.5272 112.531 43.5173 113.151 43.4917C114.138 43.4484 115.052 43.3845 116.073 43.3532C116.898 43.3254 117.636 43.2658 118.264 43.1763C118.717 43.1111 119.235 43.0632 119.807 43.0336C120.214 43.0169 120.214 43.0169 120.473 42.8891C120.266 42.8096 119.999 42.8004 119.748 42.801C118.24 42.7625 116.806 42.7657 115.474 42.8103C114.802 42.8189 114.206 42.8584 113.715 42.9268C113.595 42.955 113.287 42.9447 113.039 42.938C112.264 42.9311 111.523 42.9413 110.826 42.9683C109.861 43.0116 108.787 43.0123 107.644 42.9703C107.427 42.909 107.677 42.9121 107.689 42.8902C108.573 42.8423 109.44 42.7883 110.342 42.7463C110.588 42.732 110.852 42.7237 111.13 42.7215C112.167 42.7341 113.03 42.6678 113.599 42.5319C113.627 42.481 114.002 42.4838 114.168 42.4495C114.249 42.4203 114.303 42.3863 114.328 42.3485C114.086 42.2569 113.813 42.2587 113.603 42.2604C112.993 42.276 112.406 42.3007 111.846 42.3345C111.325 42.3666 110.748 42.3788 110.131 42.371C109.676 42.3623 109.286 42.3849 108.827 42.3835C108.578 42.3745 108.32 42.3588 108.058 42.3367C108.348 42.269 108.744 42.2255 109.216 42.2093C109.574 42.1673 110.022 42.1518 110.079 42.0499C109.909 41.9787 109.72 41.9791 109.569 41.988C109.254 41.9903 108.949 41.9975 108.657 42.0093C108.038 42.0352 107.368 42.0411 106.66 42.027C106.287 42.0226 105.934 42.0279 105.605 42.0426C104.861 42.0649 104.147 42.1064 103.466 42.1285C102.069 42.157 100.795 42.2276 99.4536 42.2706C99.1549 42.2809 98.8874 42.3106 98.4933 42.2666C98.0992 42.2226 98.0816 42.2166 98.0349 42.1876C97.9243 42.1395 97.8906 42.0923 97.9406 42.0557C98.0184 42.0212 98.1703 42.0011 98.3694 41.999C99.5687 41.9351 100.706 41.8501 101.774 41.7443C102.245 41.721 102.656 41.678 102.996 41.6168C103.265 41.5744 103.584 41.5451 103.943 41.5299C104.466 41.4964 105.011 41.4706 105.576 41.4524C105.839 41.443 106.063 41.4196 106.233 41.3836C106.404 41.3476 106.519 41.2998 106.571 41.2429L105.876 41.0614C105.767 41.0536 105.659 41.047 105.553 41.0415L99.802 41.2249L99.2324 41.2334C98.6081 41.2275 98.4552 41.2012 97.8612 40.9892C99.2123 40.9267 100.273 40.7689 100.939 40.5315C100.778 40.508 100.614 40.488 100.449 40.472C99.3684 40.4263 98.3473 40.4203 97.4249 40.4543C96.8769 40.4616 96.3134 40.4592 95.7478 40.4604C95.9123 40.3522 96.5462 40.3787 96.959 40.3511C97.9454 40.3051 98.8173 40.2199 99.5468 40.0982C99.7983 40.051 100.113 40.0196 100.477 40.0053C100.841 39.9983 101.145 39.9685 101.362 39.9184C101.58 39.8682 101.704 39.7994 101.724 39.7177C101.758 39.6436 101.831 39.5744 101.943 39.5111C101.743 39.4244 101.427 39.3424 101.053 39.2805C100.679 39.2186 100.273 39.1811 99.9113 39.175C99.1395 39.145 98.3387 39.0922 97.5295 39.0177C97.1264 38.9801 96.7312 38.9599 96.3697 38.9584C96.0509 38.9576 95.6883 38.931 95.3373 38.8828C94.9862 38.8345 94.666 38.7672 94.4254 38.6911C94.1007 38.5973 93.7976 38.5022 93.4946 38.4071C93.1915 38.312 92.8398 38.1915 92.486 38.0747C92.1748 38.0586 91.8718 38.0491 91.5811 38.0464C91.355 38.0527 91.091 38.0418 90.8204 38.0152C90.5497 37.9885 90.2835 37.947 90.0534 37.8958C90.1877 37.8421 90.3396 37.7945 90.4995 37.7324C90.2786 37.6539 90.1182 37.5734 90.0282 37.4956C89.9381 37.4179 89.9202 37.3446 89.9756 37.2802C90.0079 37.2219 89.7676 37.1267 89.6843 37.0505C89.5772 36.9851 89.5567 36.9234 89.6254 36.8735C89.6941 36.8236 89.8488 36.7878 90.0692 36.7709C90.3425 36.7406 90.5648 36.6967 90.7269 36.6409C90.7805 36.6264 90.8078 36.6068 90.806 36.584C90.8043 36.5612 90.7737 36.5359 90.717 36.5105C90.6603 36.485 90.5794 36.4603 90.4816 36.4384C90.3837 36.4165 90.2722 36.3982 90.1571 36.3852C89.8045 36.3486 89.4544 36.3258 89.127 36.3183C88.5629 36.3042 88.023 36.2969 87.5072 36.2964C86.9367 36.2939 86.3018 36.2543 85.6668 36.1816C85.0983 36.1126 84.5886 36.0506 84.3097 35.9118C84.0308 35.773 83.5869 35.7813 83.2446 35.6814C83.4356 35.5872 83.7759 35.52 84.2312 35.4865C84.5292 35.4735 84.7778 35.4437 84.9611 35.399C85.1443 35.3544 85.2581 35.2959 85.2953 35.2273L84.2564 34.9495C83.4275 34.8216 82.9704 34.9293 82.0756 34.8827L82.9962 34.7692C83.0146 34.7586 83.0215 34.7463 83.0164 34.7328C82.9251 34.5197 82.7824 34.4751 81.8393 34.3645L81.31 34.3002L80.4725 34.2256C80.3381 34.1829 80.2451 34.138 80.2026 34.0953C80.1601 34.0526 80.1697 34.0137 80.2305 33.9825C80.3526 33.9298 80.3894 33.8634 80.3373 33.7895C80.2557 33.741 80.2486 33.6956 80.3172 33.6614C80.3859 33.6271 80.5259 33.6061 80.713 33.602C80.8623 33.5969 80.8729 33.5399 80.9539 33.507C81.0343 33.4619 81.1722 33.4266 81.3582 33.4036C81.5442 33.3806 81.7739 33.3704 82.0319 33.3737C82.7922 33.3717 83.5064 33.3491 84.1616 33.306L84.0439 33.2918C84.7274 33.3189 85.3662 33.3175 85.9292 33.2877C86.4933 33.2513 87.2178 33.2655 87.8171 33.2411C88.3051 33.2414 88.6763 33.1945 88.8518 33.1104C89.0218 33.03 89.6422 33.0432 90.1173 33.0543C90.3987 33.0617 90.6706 33.0635 90.9302 33.0598C91.2785 33.039 91.7143 33.0522 92.1649 33.0971C92.3001 33.111 92.4333 33.1178 92.5515 33.1169C93.6962 33.1277 94.8389 33.1422 95.968 33.1434C96.2286 33.135 96.5343 33.1466 96.8493 33.1766C96.9817 33.1897 97.1105 33.1945 97.2183 33.1904C99.0021 33.1429 101.016 33.2088 102.765 33.1492C102.976 33.1368 103.211 33.1327 103.462 33.1368C104.026 33.1584 104.515 33.1373 104.855 33.0768C105.039 33.0446 105.274 33.0257 105.547 33.0213C105.819 33.017 106.123 33.0273 106.438 33.0515C106.963 33.0827 107.447 33.0825 107.84 33.0509C108.607 33.0183 109.414 33.0007 110.255 32.9984C110.512 33.0008 110.738 32.9887 110.916 32.9631C111.093 32.9375 111.217 32.899 111.278 32.8507C111.071 32.7711 110.845 32.7631 110.631 32.7721C109.8 32.7606 108.972 32.7454 108.157 32.7435C107.427 32.7247 106.727 32.723 106.067 32.7384C105.74 32.7522 105.331 32.7304 104.929 32.6778C104.437 32.6111 103.931 32.5801 103.513 32.5912C103.202 32.5957 102.875 32.5924 102.535 32.5812C102.317 32.5662 102.094 32.539 101.888 32.5026C101.806 32.4867 101.717 32.4736 101.627 32.4639C101.536 32.4543 101.447 32.4484 101.363 32.4466C101.279 32.4449 101.204 32.4473 101.141 32.4537C101.078 32.4601 101.03 32.4704 100.999 32.484C100.685 32.5974 99.9805 32.5468 99.3777 32.5396C98.473 32.3597 97.8018 32.4764 96.9568 32.3776C96.89 32.3711 96.8241 32.3674 96.7634 32.3667C96.7026 32.366 96.6482 32.3683 96.6033 32.3735C94.9703 32.451 93.066 32.4139 91.3511 32.4504C91.162 32.4552 90.9424 32.446 90.7172 32.4239C89.2456 32.2773 87.8316 32.244 86.7517 32.3307C86.6203 32.3388 86.4707 32.3403 86.3098 32.3353C85.5705 32.2783 84.8638 32.2591 84.2486 32.2792C83.2844 32.2825 82.3573 32.2942 81.3775 32.2878C80.702 32.2727 80.1097 32.2999 79.66 32.3667C79.6459 32.3922 79.3458 32.3674 79.116 32.3667C78.9834 32.3039 78.8684 32.2472 78.7317 32.1918C78.6093 32.1228 78.4263 32.0534 78.1951 31.9885C77.964 31.9235 77.69 31.8645 77.3918 31.8153C76.8821 31.7534 76.8303 31.6577 77.1863 31.6194C78.1036 31.4947 79.2579 31.4371 80.5644 31.4508C81.6564 31.4436 82.768 31.4387 83.8755 31.4412C84.5215 31.4458 85.2026 31.4625 85.8311 31.4612C86.0432 31.468 86.2611 31.4789 86.4826 31.4937C86.7544 31.5156 87.0182 31.5265 87.2598 31.5259C88.0354 31.499 88.9013 31.5095 89.8162 31.5567C90.1513 31.5659 90.4729 31.5672 90.7764 31.5607C91.4944 31.5397 92.2729 31.5442 93.0915 31.5739C93.6003 31.5902 94.0935 31.5968 94.566 31.5937C94.733 31.5945 94.8687 31.5761 95.0296 31.5878C96.4457 31.7132 97.4467 31.6056 98.7206 31.6477C99.3397 31.6572 99.931 31.6522 100.486 31.6329C101.57 31.6245 102.684 31.6302 103.824 31.6499C105.332 31.6854 106.729 31.6569 108.168 31.6647C108.452 31.6665 108.727 31.6635 108.989 31.6556C110.266 31.6078 111.653 31.604 113.117 31.6442C113.449 31.649 113.748 31.6372 113.993 31.6096C114.239 31.5819 114.427 31.539 114.545 31.4836C114.595 31.4457 114.562 31.3974 114.453 31.348C114.271 31.2852 114.067 31.2239 113.842 31.1651L105.695 31.0301C105.352 31.0223 105.019 31.0194 104.695 31.0213C103.744 31.0276 102.763 31.02 101.758 30.9986C100.764 30.979 99.8157 30.9919 98.8535 30.9916C98.5701 30.9912 98.2791 30.987 97.9818 30.979C95.9721 30.9128 94.0127 30.8786 92.1174 30.8766C91.3201 30.8807 90.4584 30.8499 89.6455 30.8444C88.8326 30.8389 87.721 30.8437 86.7567 30.847L83.7715 30.8729C83.1843 30.8754 82.6126 30.8875 82.043 30.896C81.3495 30.6369 81.1108 30.5769 80.1874 30.4686C79.8714 30.4284 79.5502 30.4056 79.2614 30.4027C78.3459 30.4314 77.1962 30.3539 76.328 30.3727C75.8039 30.3714 75.3596 30.4046 75.0404 30.4688C74.7632 30.5195 74.4461 30.5604 74.094 30.5909C73.127 30.3724 73.0407 30.2259 73.7662 30.1625C73.9628 30.1475 74.2338 30.1494 74.3756 30.12C74.4569 30.1021 74.5682 30.0914 74.7005 30.0885C74.8328 30.0857 74.9824 30.0909 75.1377 30.1038C75.6278 30.1367 76.0869 30.1416 76.469 30.1179C76.8285 30.0877 77.2695 30.085 77.7494 30.1102C78.1023 30.1531 78.4116 30.0857 78.7163 30.0645C79.021 30.0432 79.2708 30.0075 79.7474 30.0537C79.8347 30.063 79.9213 30.0683 80.0006 30.0692C80.0799 30.0701 80.1498 30.0665 80.2049 30.0588C80.716 30.0221 81.3262 30.0204 81.9861 30.0537C82.998 30.0835 83.9471 30.0769 84.8004 30.0343C85.3112 29.999 85.7465 29.9403 86.0892 29.8606C86.1825 29.8341 86.3214 29.8175 86.4924 29.8124C87.3514 29.8212 88.2846 29.8737 89.2317 29.9665C89.5885 30.0038 89.9447 30.0328 90.2928 30.0526C91.0084 30.0973 91.7002 30.1199 92.348 30.1197C93.2891 30.1126 94.2692 30.1238 95.2794 30.1533C95.9029 30.1692 96.5035 30.1719 97.0741 30.1615C97.6607 30.1539 98.2872 30.1648 98.9393 30.1938C99.5878 30.2165 100.159 30.1955 100.584 30.1333C100.724 30.1005 100.836 30.062 100.919 30.0186C99.969 29.8876 98.9868 29.8252 98.1705 29.844C97.8603 29.8374 97.6029 29.8488 97.2756 29.7974L97.2655 29.8156C97.2006 29.8279 97.1025 29.8315 96.99 29.8258C96.8774 29.82 96.7583 29.8052 96.6553 29.7842C96.6936 29.7151 96.7298 29.6495 96.756 29.6022C97.3781 29.6053 97.9821 29.5995 98.5649 29.5849C99.0561 29.5669 99.7241 29.683 100.149 29.6336C100.979 29.6839 101.506 29.6004 102.25 29.6169C102.994 29.6335 103.814 29.702 104.558 29.7186C105.208 29.7256 105.838 29.723 106.446 29.7108C106.655 29.6991 106.897 29.6994 107.157 29.7117C107.521 29.7359 107.86 29.7376 108.134 29.7166C108.408 29.6957 108.607 29.6529 108.708 29.5932C108.612 29.5388 108.484 29.4688 108.335 29.3964C108.606 29.3336 109.019 29.3046 109.511 29.3138L110.206 29.3051C110.39 29.3051 110.531 29.2876 110.599 29.2561C110.667 29.2245 110.657 29.1815 110.572 29.1358C109.251 28.9132 109.203 28.8878 108.236 29.0463L106.951 28.9873L106.972 28.986ZM124.356 29.4816L124.258 29.4697L124.356 29.4816ZM284.685 52.9964L284.663 53.0365L284.687 52.9928L284.902 53.019L284.917 52.9935L284.685 52.9964ZM253.262 35.7892C252.957 35.7483 252.649 35.7109 252.341 35.6773C252.26 35.6723 252.184 35.6717 252.12 35.6754C252.056 35.6792 252.006 35.6871 251.973 35.6987C251.949 35.7424 252.121 35.7711 252.278 35.7901C252.476 35.8159 252.678 35.8316 252.863 35.8357C253.049 35.8398 253.211 35.832 253.332 35.8133L253.509 35.7959L253.262 35.7892ZM96.528 47.7086C96.7285 47.7142 96.9186 47.7138 97.0936 47.7073C97.8699 47.6657 98.6129 47.6083 99.4088 47.569C100.413 47.4777 101.567 47.4343 102.828 47.4403C103.32 47.4443 103.736 47.4139 104.027 47.3529C104.201 47.3199 104.426 47.2996 104.687 47.2932L108.02 47.1696C108.225 47.1481 108.403 47.1188 108.549 47.0824C108.255 47.0467 108.059 47.0229 107.941 47.0086C107.698 47.0063 107.488 47.0197 107.334 47.0475C107.169 47.0937 106.889 47.1137 106.55 47.1037C106.207 47.096 105.874 47.0931 105.55 47.095C104.939 47.1024 104.325 47.1171 103.712 47.1281C103.474 47.2547 102.77 47.2041 102.167 47.1969L101.702 47.2064C100.18 47.2838 98.7273 47.3849 97.3496 47.5092C97.0834 47.5305 96.8541 47.5628 96.6689 47.6052C96.5992 47.6377 96.5771 47.6775 96.6044 47.7217L96.5064 47.7098L96.528 47.7086ZM164.59 59.0468C164.96 59.0522 165.344 59.0664 165.739 59.0892C166.042 59.1133 166.339 59.127 166.616 59.1297C168.168 59.1446 169.787 59.1954 171.448 59.2816C171.666 59.295 171.875 59.3007 172.067 59.2985L173.426 59.2616C173.855 59.2437 173.863 59.2291 173.549 59.0395C173.29 59.0044 173.028 58.9725 172.765 58.9442C172.608 58.9252 172.353 58.8942 172.294 58.9259C171.931 59.0139 171.268 58.9644 170.711 58.9511C169.097 58.9183 167.433 58.8637 165.803 58.8212C165.459 58.8103 165.125 58.8062 164.806 58.8088C164.608 58.8076 164.427 58.8145 164.271 58.8294C164.226 58.8311 164.188 58.8355 164.16 58.8421C164.132 58.8487 164.114 58.8575 164.108 58.8678C164.103 58.8782 164.109 58.8898 164.127 58.902C164.144 58.9142 164.173 58.9267 164.211 58.9386C164.345 58.9803 164.499 59.02 164.669 59.0564L164.59 59.0468ZM176.174 31.044L177.763 31.0079C177.954 31.0038 178.115 30.9768 178.319 30.986C179.408 31.0116 180.415 30.9935 181.299 30.9323C181.6 30.9078 181.952 30.9005 182.336 30.9106C183.512 30.9404 184.622 30.9327 185.634 30.8877C186.288 30.8749 186.9 30.8451 187.461 30.7989C187.504 30.7889 187.531 30.7756 187.54 30.7599C187.549 30.7442 187.539 30.7264 187.512 30.7079C187.505 30.696 187.485 30.6834 187.455 30.6709C187.425 30.6584 187.385 30.6462 187.337 30.6352C187.289 30.6243 187.235 30.6148 187.179 30.6074C187.123 30.6001 187.065 30.595 187.011 30.5926C186.301 30.5424 185.628 30.5285 185.045 30.552C184.506 30.5788 183.925 30.5903 183.311 30.5861C182.724 30.5886 182.326 30.6646 181.6 30.6153C181.293 30.5996 181.022 30.6079 180.834 30.6387C180.454 30.6905 179.924 30.6976 179.337 30.659C178.986 30.6399 178.651 30.6332 178.344 30.6393C177.599 30.6615 176.888 30.6994 176.198 30.7361C175.981 30.7451 175.748 30.748 175.503 30.7449L172.047 30.7136C171.216 30.7021 170.388 30.6869 169.573 30.6851C168.906 30.6717 168.286 30.6829 167.734 30.7181C167.146 30.7553 166.504 30.7738 165.821 30.7732C164.76 30.7998 163.705 30.8154 162.551 30.8228C161.814 30.8304 161.06 30.8321 160.29 30.824C159.901 30.8086 159.57 30.8266 159.363 30.8745C159.236 30.9136 158.938 30.8852 158.691 30.8784C157.371 30.8045 156.134 30.7948 155.066 30.8499C154.93 30.8586 154.78 30.8626 154.62 30.8618C153.591 30.8689 152.525 30.8676 151.537 30.8758C151.277 30.8816 151.032 30.8935 150.806 30.9113C150.83 30.9372 150.9 30.9648 151 30.9885C151.1 31.0122 151.222 31.0302 151.342 31.0387C152.277 31.1035 153.18 31.1343 154.012 31.1298C155.397 31.1089 156.848 31.1175 158.349 31.1555C159.515 31.1968 160.577 31.1771 161.457 31.0979C162.145 31.0385 163.04 31.0511 163.99 31.1336C164.396 31.1734 164.79 31.1873 165.118 31.1735C165.434 31.1564 165.797 31.1569 166.185 31.1749C167.003 31.2084 167.789 31.2205 168.529 31.211C169.252 31.19 169.926 31.1437 170.669 31.1251C171.411 31.1065 172.542 31.1041 173.458 31.0754C174.373 31.0467 175.279 31.0363 176.174 31.044ZM110.298 29.4794C110.383 29.5907 110.68 29.658 111 29.6852C112.103 29.8085 113.192 29.8558 114.085 29.8191C114.567 29.7742 115.211 29.7845 115.889 29.8479C116.679 29.913 117.417 29.9187 117.973 29.8639C118.109 29.854 118.213 29.8347 118.276 29.8075C118.288 29.7857 118.31 29.7456 118.314 29.7383C118.256 29.7205 118.184 29.704 118.104 29.6903C118.025 29.6766 117.94 29.666 117.856 29.6593L114.207 29.5618L113.571 29.539C112.409 29.4748 111.302 29.4547 110.298 29.4794ZM117.489 31.1923C118.06 31.3705 118.062 31.3668 118.354 31.4062C119.762 31.568 121.17 31.65 122.408 31.6422C122.683 31.6394 122.916 31.6197 123.088 31.585C123.176 31.5797 123.233 31.5649 123.244 31.5438C123.256 31.5226 123.222 31.4969 123.15 31.4721L122.697 31.347C121.874 31.2982 121.063 31.2607 120.269 31.2347C119.344 31.204 118.525 31.2094 117.567 31.2018L117.489 31.1923ZM164.515 58.2373C165.048 58.4846 165.05 58.481 165.939 58.5384C166.558 58.5793 167.159 58.6012 167.723 58.6037C168.412 58.6058 169.119 58.614 169.806 58.6197C169.974 58.6263 170.116 58.6185 170.205 58.5977C170.294 58.5769 170.323 58.5446 170.287 58.5072C170.196 58.467 170.055 58.4285 169.886 58.3981C169.717 58.3676 169.529 58.347 169.355 58.3395L168.98 58.3367C168.524 58.328 168.051 58.3132 167.611 58.3142C167.326 58.327 166.995 58.3218 166.645 58.2987C166.295 58.2757 165.934 58.2357 165.592 58.1816L164.515 58.2373ZM120.31 29.7243C120.452 29.7667 120.612 29.8071 120.787 29.8445C121.464 29.9464 122.179 30.0014 122.794 29.9989C123.084 30.0031 123.35 29.9771 123.646 30.0092C124.177 30.0509 124.691 30.0712 125.161 30.0689C125.161 30.0689 125.293 30.0577 125.336 30.0552L125.425 29.895C125.202 29.8599 124.97 29.8317 124.739 29.8116C123.964 29.7758 123.202 29.7532 122.442 29.7269C121.683 29.7007 121.418 29.688 120.921 29.6781C120.7 29.6877 120.495 29.7032 120.31 29.7243ZM103.697 49.687L104.714 50.0048C105.043 50.0303 105.349 50.0329 105.587 50.012C105.825 49.9912 105.982 49.948 106.033 49.8892C106.117 49.8611 106.125 49.8205 106.056 49.7759C105.987 49.7313 105.846 49.6862 105.664 49.65C105.488 49.6067 105.287 49.5682 105.074 49.537C104.861 49.5057 104.64 49.4824 104.425 49.4684L103.697 49.687ZM112.126 47.991C111.462 47.9413 110.828 47.924 110.271 47.9405C109.92 47.9758 109.445 47.9695 108.942 47.9228C108.027 47.829 107.146 47.8083 106.484 47.8651C106.484 47.8651 106.46 47.9088 106.348 47.9224C106.236 47.9359 106.681 47.9629 106.779 47.9748C107.497 47.9999 108.22 48.0177 108.844 48.0236C109.232 48.0198 109.642 48.0267 110.067 48.044C110.653 48.0712 111.208 48.077 111.711 48.061C111.711 48.061 111.905 48.0497 112.124 47.9947L112.126 47.991ZM182.809 30.3969C182.492 30.3381 182.148 30.291 181.803 30.2592C181.458 30.2274 181.122 30.2117 180.818 30.2133C180.586 30.2121 180.398 30.2299 180.285 30.2639C180.171 30.298 180.138 30.3463 180.191 30.4013C180.426 30.4299 180.74 30.468 180.916 30.4895C181.527 30.4821 182.048 30.4482 182.809 30.3969ZM242.149 35.0764C241.895 35.0291 241.614 34.9936 241.34 34.974C241.066 34.9545 240.81 34.9516 240.599 34.9658C240.491 34.9721 240.565 35.0277 240.547 35.0605C240.535 35.068 240.535 35.0772 240.548 35.0871C240.56 35.097 240.584 35.1073 240.617 35.1169C240.651 35.1265 240.692 35.1351 240.736 35.1416C240.781 35.1482 240.828 35.1526 240.872 35.1543C241.148 35.1733 241.408 35.1775 241.629 35.1664C241.851 35.1553 242.027 35.1294 242.141 35.091L242.149 35.0764ZM246.128 35.7502C246.089 35.7213 246.005 35.6916 245.892 35.6665C245.779 35.6413 245.645 35.6225 245.514 35.6133C245.282 35.6139 245.072 35.6238 244.891 35.6426C244.694 35.6575 244.836 35.7409 245.103 35.7888C245.215 35.808 245.336 35.8226 245.454 35.8317C245.573 35.8407 245.686 35.8438 245.786 35.8408C245.885 35.8377 245.967 35.8286 246.026 35.8141C246.085 35.7997 246.118 35.7803 246.124 35.7575L246.128 35.7502ZM130.626 29.9479C130.033 29.8486 129.577 29.8787 129.074 29.841C128.572 29.8033 128.448 29.7999 128.516 29.8665C128.584 29.933 128.928 29.9165 129.144 29.9427C129.435 29.9774 129.728 29.9963 129.99 29.9972C130.252 29.9981 130.472 29.9811 130.626 29.9479ZM254.291 46.5569C253.977 46.5361 253.67 46.5222 253.373 46.5153C253.334 46.5253 253.31 46.5382 253.301 46.5532C253.293 46.5682 253.301 46.585 253.325 46.6027C253.325 46.6027 253.526 46.6543 253.644 46.6686C254.077 46.7174 254.098 46.6422 254.291 46.5569ZM298.748 55.9016C298.961 55.9703 299.06 56.0173 299.231 56.0497C299.309 56.0607 299.39 56.0686 299.467 56.0726C299.545 56.0767 299.617 56.0768 299.678 56.073C299.753 56.052 299.77 56.0208 299.727 55.9856C299.727 55.9856 299.51 55.9242 299.427 55.922C299.192 55.909 298.964 55.9022 298.748 55.9016ZM120.532 29.4365C120.081 29.3818 119.649 29.3294 119.338 29.4003C120.054 29.4679 120.054 29.4679 120.532 29.4365ZM127.832 30.0437C127.376 29.9223 127.109 29.9132 126.891 29.9294C126.845 29.9334 126.814 29.9417 126.804 29.9531C126.794 29.9645 126.804 29.9784 126.834 29.9925C126.864 30.0067 126.912 30.0205 126.97 30.0317C127.028 30.043 127.094 30.0511 127.157 30.0549C127.394 30.0565 127.62 30.0527 127.832 30.0437ZM151.24 29.8995C151.251 29.8813 151.263 29.8594 151.145 29.8451C151.114 29.8376 151.078 29.8313 151.04 29.8267C151.002 29.8221 150.964 29.8194 150.929 29.8189C150.929 29.8189 150.917 29.8408 150.909 29.8553L151.24 29.8995ZM167.749 59.8424L167.487 59.8612L167.605 59.8755L167.915 59.8821L167.749 59.8424ZM259.654 35.3535C259.556 35.3416 259.458 35.3297 259.444 35.3551C259.424 35.3592 259.411 35.365 259.407 35.372C259.403 35.379 259.408 35.3869 259.422 35.3952C259.422 35.3952 259.559 35.4119 259.618 35.419L259.654 35.3535ZM244.407 35.6848C244.342 35.6839 244.284 35.6861 244.236 35.6913L244.224 35.7131L244.42 35.7369L244.407 35.6848ZM111.558 41.9848C111.483 41.9723 111.402 41.9625 111.323 41.9563L111.225 41.9443C111.225 41.9443 111.331 41.9805 111.389 41.9876C111.448 41.9948 111.495 41.985 111.558 41.9848Z" fill="url(#paint2_linear_213_497)"/>
</g>
<defs>
<linearGradient id="paint0_linear_213_497" x1="0" y1="14.5" x2="326" y2="14.5" gradientUnits="userSpaceOnUse">
<stop stop-color="#BE746C" stop-opacity="0.84"/>
<stop offset="1" stop-color="#FFA89F"/>
</linearGradient>
<linearGradient id="paint1_linear_213_497" x1="-0.0235409" y1="14.5087" x2="326" y2="14.5087" gradientUnits="userSpaceOnUse">
<stop stop-color="#12BCCA"/>
<stop offset="1" stop-color="#41BA95"/>
</linearGradient>
<linearGradient id="paint2_linear_213_497" x1="72.5422" y1="31.6285" x2="262.592" y2="136.798" gradientUnits="userSpaceOnUse">
<stop stop-color="#6BB5BE"/>
<stop offset="1" stop-color="#74B192"/>
</linearGradient>
</defs>
</svg>
