<svg width="64" height="65" viewBox="0 0 64 65" fill="none" xmlns="http://www.w3.org/2000/svg">
<g clip-path="url(#clip0_179_128)">
<path d="M50.6628 5.40063H21.7617V17.5759H56.8354V11.6687C56.8354 8.21216 54.0663 5.40063 50.6628 5.40063Z" fill="#F7F6FF"/>
<path d="M34.3028 19.4495H0.5V8.1521C0.5 4.01245 3.81602 0.645264 7.89243 0.645264H18.7004C19.7746 0.645264 20.8095 0.875244 21.7496 1.30737C23.0628 1.90845 24.1908 2.89917 24.982 4.1936L34.3028 19.4495Z" fill="#6CB6BE"/>
<path d="M63.5 21.9788V58.3694C63.5 61.8303 60.7266 64.6453 57.3183 64.6453H6.68166C3.27336 64.6453 0.5 61.8303 0.5 58.3694V15.7014H57.3183C60.7266 15.7014 63.5 18.5173 63.5 21.9788Z" fill="url(#paint0_linear_179_128)"/>
<path d="M63.5 21.9788V58.3694C63.5 61.8303 60.7266 64.6453 57.3183 64.6453H32V15.7014H57.3183C60.7266 15.7014 63.5 18.5173 63.5 21.9788Z" fill="url(#paint1_linear_179_128)"/>
<path d="M48.5718 40.1726C48.5718 49.4563 41.1376 57.009 31.9999 57.009C22.8622 57.009 15.428 49.4563 15.428 40.1726C15.428 30.8904 22.8622 23.3376 31.9999 23.3376C41.1376 23.3376 48.5718 30.8904 48.5718 40.1726Z" fill="#F7F6FF"/>
<path d="M37.3416 40.3792C36.996 40.6765 36.5725 40.8215 36.1529 40.8215C35.6276 40.8215 35.1056 40.5955 34.7403 40.155L33.8458 39.0779V46.1301C33.8458 47.1653 33.0191 48.0051 32.0001 48.0051C30.9811 48.0051 30.1544 47.1653 30.1544 46.1301V39.0779L29.2599 40.155C28.6014 40.9465 27.4377 41.0476 26.6586 40.3792C25.8799 39.7117 25.78 38.5291 26.437 37.7375L30.0905 33.3376C30.5668 32.7654 31.2618 32.4363 32.0001 32.4363C32.7384 32.4363 33.4334 32.7654 33.9097 33.3376L37.5632 37.7375C38.2202 38.5291 38.1202 39.7117 37.3416 40.3792Z" fill="#6CB6BE"/>
<path d="M37.3415 40.3792C36.9959 40.6765 36.5724 40.8215 36.1528 40.8215C35.6275 40.8215 35.1055 40.5955 34.7402 40.155L33.8457 39.0779V46.1301C33.8457 47.1653 33.019 48.0051 32 48.0051V32.4363C32.7383 32.4363 33.4333 32.7654 33.9096 33.3376L37.5631 37.7375C38.2201 38.5291 38.1201 39.7117 37.3415 40.3792Z" fill="url(#paint2_linear_179_128)"/>
</g>
<defs>
<linearGradient id="paint0_linear_179_128" x1="0.5" y1="40.1733" x2="63.5" y2="40.1733" gradientUnits="userSpaceOnUse">
<stop stop-color="#6BB5BE"/>
<stop offset="1" stop-color="#74B192"/>
</linearGradient>
<linearGradient id="paint1_linear_179_128" x1="32" y1="40.1733" x2="63.5" y2="40.1733" gradientUnits="userSpaceOnUse">
<stop stop-color="#6BB5BE"/>
<stop offset="1" stop-color="#74B192"/>
</linearGradient>
<linearGradient id="paint2_linear_179_128" x1="32" y1="40.2207" x2="37.9974" y2="40.2207" gradientUnits="userSpaceOnUse">
<stop stop-color="#6BB5BE"/>
<stop offset="1" stop-color="#74B192"/>
</linearGradient>
<clipPath id="clip0_179_128">
<rect width="63" height="64" fill="white" transform="translate(0.5 0.645264)"/>
</clipPath>
</defs>
</svg>
