<svg width="103" height="127" viewBox="0 0 103 127" fill="none" xmlns="http://www.w3.org/2000/svg">
<path d="M58.9063 0.083374C66.4136 0.083374 72.5 6.16951 72.5 13.6771V54.572C71.5049 54.4964 70.5014 54.4584 69.4901 54.4584C47.7974 54.4584 30.2126 72.0439 30.2126 93.7365C30.2126 99.6948 31.5429 105.356 33.9264 110.427L30.7322 120.917H13.5938C6.08613 120.917 0 114.83 0 107.323V13.6771C0 6.16951 6.08613 0.083374 13.5938 0.083374H58.9063ZM90.625 68.0872C85.5639 63.9112 79.2461 61.2045 72.3236 60.6197C71.3883 60.5405 70.4416 60.5 69.4858 60.5C51.13 60.5 36.25 75.3807 36.25 93.7365C36.25 99.5848 37.7604 105.08 40.4121 109.853L36.3896 123.063C35.6857 125.376 37.8474 127.538 40.1596 126.835L53.3739 122.813C58.1462 125.464 63.6399 126.973 69.4858 126.973C87.8416 126.973 102.722 112.093 102.722 93.7365C102.722 83.41 98.0128 74.1832 90.625 68.0872ZM57.4013 90.715C55.7326 90.715 54.3798 89.3623 54.3798 87.6936C54.3798 86.0249 55.7326 84.6721 57.4013 84.6721H81.5716C83.2403 84.6721 84.593 86.0249 84.593 87.6936C84.593 89.3623 83.2403 90.715 81.5716 90.715H57.4013ZM69.4858 102.801H57.4013C55.7326 102.801 54.3798 101.448 54.3798 99.7793C54.3798 98.1106 55.7326 96.7579 57.4013 96.7579H69.4858C71.1545 96.7579 72.5073 98.1106 72.5073 99.7793C72.5073 101.448 71.1545 102.801 69.4858 102.801Z" fill="#6CB6BE"/>
</svg>
