<svg width="23" height="22" viewBox="0 0 23 22" fill="none" xmlns="http://www.w3.org/2000/svg">
<path d="M11.7171 3.03457V1.89668C11.7171 1.76793 11.7267 1.64133 11.7447 1.51733H11.7171C11.2987 1.51733 10.9585 1.8577 10.9585 2.27589C10.9583 2.6942 11.2987 3.03457 11.7171 3.03457V3.03457Z" fill="#E09F1F"/>
<path d="M2.61377 5.3103H6.40679V6.06886H2.61377V5.3103Z" fill="#E09F1F"/>
<path d="M13.2196 6.02288C13.4678 5.95889 13.6953 5.82953 13.8813 5.64354L14.3718 5.15326L15.1303 5.91182L15.8889 5.15326L16.3793 5.6437C16.5653 5.82969 16.7929 5.95905 17.041 6.02304C17.0851 5.36761 17.231 4.72695 17.4766 4.11311L17.7855 3.34061V1.89657C17.7855 0.850759 16.9347 0 15.8889 0H14.3717C13.3259 0 12.4751 0.850759 12.4751 1.89657V3.34077L12.784 4.11296C13.0297 4.72679 13.1756 5.36749 13.2197 6.02288H13.2196Z" fill="#E09F1F"/>
<path d="M18.5447 3.03457C18.963 3.03457 19.3033 2.6942 19.3033 2.27601C19.3033 1.8577 18.9629 1.51746 18.5447 1.51746H18.5171C18.5349 1.64145 18.5447 1.7679 18.5447 1.8968V3.03457Z" fill="#E09F1F"/>
<path d="M1.47569 7.5861H7.54445C7.75361 7.5861 7.9238 7.41592 7.9238 7.20675L7.92364 4.17244C7.92364 3.96327 7.75346 3.79309 7.5443 3.79309H1.47554C1.26637 3.79309 1.09619 3.96327 1.09619 4.17244V7.20691C1.09619 7.41607 1.26637 7.5861 1.47554 7.5861L1.47569 7.5861ZM1.85503 4.55178H7.1652V6.82758H1.85503V4.55178Z" fill="#E09F1F"/>
<path d="M0.337891 20.4825V21.9997H9.50154C9.46272 21.8862 9.44123 21.7645 9.44123 21.6379C9.44123 21.2624 9.62784 20.9139 9.94027 20.7057L10.2748 20.4827L0.337891 20.4825Z" fill="#E09F1F"/>
<path d="M19.9003 21.3367L19.3692 20.9825C19.1054 20.8065 18.9258 20.5261 18.8764 20.2131L17.992 14.6122C17.6483 14.9581 17.1726 15.1725 16.6477 15.1725C16.4723 15.1725 16.3029 15.1478 16.1416 15.1031L17.5749 21.4096C17.6539 21.7573 17.9581 22 18.3147 22H19.6997C19.8992 22 20.0615 21.8377 20.0615 21.6382C20.0615 21.5168 20.0012 21.4042 19.9002 21.3368L19.9003 21.3367Z" fill="#E09F1F"/>
<path d="M12.2692 14.6122L11.3848 20.2131C11.3354 20.5261 11.1559 20.8065 10.8921 20.9824L10.3608 21.3365C10.2599 21.4038 10.1997 21.5164 10.1997 21.6376C10.1997 21.8371 10.3621 21.9996 10.5616 21.9996H11.9465C12.303 21.9996 12.6073 21.7569 12.6863 21.4091L14.1196 15.1027C13.9582 15.1475 13.7887 15.1722 13.6133 15.1722C13.0885 15.1722 12.6129 14.9578 12.2692 14.6121L12.2692 14.6122Z" fill="#E09F1F"/>
<path d="M21.9567 11.3279L21.3095 10.8964L19.2636 7.9737C18.8969 7.44964 18.353 7.07568 17.7324 6.92051L17.3555 6.82629C16.806 6.81386 16.2898 6.60239 15.8905 6.22534L15.131 6.98465L14.3717 6.22534C13.9724 6.60239 13.4562 6.81383 12.9067 6.82629L12.5298 6.92051C11.9092 7.07565 11.3653 7.44964 10.9985 7.9737L8.95265 10.8964L8.3055 11.3279C8.06688 11.4871 7.92432 11.7533 7.92432 12.0403C7.92416 12.5124 8.30827 12.8964 8.7803 12.8964C9.21857 12.8964 9.59885 12.5995 9.70519 12.1744L9.86141 11.5492L13.2346 8.65793V11.021C13.2346 11.314 13.1653 11.6072 13.0343 11.8692L12.6055 12.7269C12.5207 12.8963 12.4759 13.0861 12.4759 13.2756C12.4759 13.9031 12.9864 14.4135 13.6138 14.4135C14.2413 14.4135 14.7516 13.903 14.7516 13.2756V12.8963H15.5102V13.2756C15.5102 13.9031 16.0208 14.4135 16.6481 14.4135C17.2756 14.4135 17.786 13.903 17.786 13.2756C17.786 13.086 17.7412 12.8963 17.6565 12.7267L17.2277 11.869C17.0968 11.6072 17.0276 11.314 17.0276 11.021V8.65793L20.4007 11.5491L20.557 12.1743C20.6633 12.5993 21.0436 12.8963 21.4819 12.8963C21.9537 12.8964 22.3378 12.5123 22.3378 12.0403C22.3378 11.7535 22.1953 11.4871 21.9567 11.3279H21.9567Z" fill="#E09F1F"/>
<path d="M4.88953 8.3446H4.13086V13.1185L4.88953 12.36V8.3446Z" fill="#E09F1F"/>
<path d="M4.13086 19.724H4.88953V13.4329L4.13086 14.1915V19.724Z" fill="#E09F1F"/>
</svg>
